<?xml version="1.0" encoding="UTF-8"?>
<svg width="1200" height="1000" xmlns="http://www.w3.org/2000/svg">
  <path d="M 0.00,403.98 C 1.00,404.27 0.00,404.27 1.00,404.27M 1.00,404.27 C 2.00,404.56 1.00,404.27 2.00,404.56M 2.00,404.56 C 3.00,404.86 2.00,404.56 3.00,404.86M 3.00,404.86 C 4.00,405.18 3.00,404.86 4.00,405.18M 4.00,405.18 C 5.00,405.50 4.00,405.18 5.00,405.50M 5.00,405.50 C 6.00,405.83 5.00,405.50 6.00,405.83M 6.00,405.83 C 7.00,406.17 6.00,405.83 7.00,406.17M 7.00,406.17 C 8.00,406.52 7.00,406.17 8.00,406.52M 8.00,406.52 C 9.00,406.88 8.00,406.52 9.00,406.88M 9.00,406.88 C 10.00,407.25 9.00,406.88 10.00,407.25M 10.00,407.25 C 11.00,407.63 10.00,407.25 11.00,407.63M 11.00,407.63 C 12.00,408.02 11.00,407.63 12.00,408.02M 12.00,408.02 C 13.00,408.42 12.00,408.02 13.00,408.42M 13.00,408.42 C 14.00,408.82 13.00,408.42 14.00,408.82M 14.00,408.82 C 15.00,409.24 14.00,408.82 15.00,409.24M 15.00,409.24 C 16.00,409.66 15.00,409.24 16.00,409.66M 16.00,409.66 C 17.00,410.09 16.00,409.66 17.00,410.09M 17.00,410.09 C 18.00,410.54 17.00,410.09 18.00,410.54M 18.00,410.54 C 19.00,410.99 18.00,410.54 19.00,410.99M 19.00,410.99 C 20.00,411.45 19.00,410.99 20.00,411.45M 20.00,411.45 C 21.00,411.92 20.00,411.45 21.00,411.92M 21.00,411.92 C 22.00,412.39 21.00,411.92 22.00,412.39M 22.00,412.39 C 23.00,412.88 22.00,412.39 23.00,412.88M 23.00,412.88 C 24.00,413.38 23.00,412.88 24.00,413.38M 24.00,413.38 C 25.00,413.88 24.00,413.38 25.00,413.88M 25.00,413.88 C 26.00,414.39 25.00,413.88 26.00,414.39M 26.00,414.39 C 27.00,414.91 26.00,414.39 27.00,414.91M 27.00,414.91 C 28.00,415.44 27.00,414.91 28.00,415.44M 28.00,415.44 C 29.00,415.98 28.00,415.44 29.00,415.98M 29.00,415.98 C 30.00,416.53 29.00,415.98 30.00,416.53M 30.00,416.53 C 31.00,417.08 30.00,416.53 31.00,417.08M 31.00,417.08 C 32.00,417.65 31.00,417.08 32.00,417.65M 32.00,417.65 C 33.00,418.22 32.00,417.65 33.00,418.22M 33.00,418.22 C 34.00,418.80 33.00,418.22 34.00,418.80M 34.00,418.80 C 35.00,419.39 34.00,418.80 35.00,419.39M 35.00,419.39 C 36.00,419.98 35.00,419.39 36.00,419.98M 36.00,419.98 C 37.00,420.58 36.00,419.98 37.00,420.58M 37.00,420.58 C 38.00,421.20 37.00,420.58 38.00,421.20M 38.00,421.20 C 39.00,421.82 38.00,421.20 39.00,421.82M 39.00,421.82 C 40.00,422.44 39.00,421.82 40.00,422.44M 40.00,422.44 C 41.00,423.08 40.00,422.44 41.00,423.08M 41.00,423.08 C 42.00,423.72 41.00,423.08 42.00,423.72M 42.00,423.72 C 43.00,424.37 42.00,423.72 43.00,424.37M 43.00,424.37 C 44.00,425.03 43.00,424.37 44.00,425.03M 44.00,425.03 C 45.00,425.70 44.00,425.03 45.00,425.70M 45.00,425.70 C 46.00,426.37 45.00,425.70 46.00,426.37M 46.00,426.37 C 47.00,427.05 46.00,426.37 47.00,427.05M 47.00,427.05 C 48.00,427.74 47.00,427.05 48.00,427.74M 48.00,427.74 C 49.00,428.43 48.00,427.74 49.00,428.43M 49.00,428.43 C 50.00,429.13 49.00,428.43 50.00,429.13M 50.00,429.13 C 51.00,429.84 50.00,429.13 51.00,429.84M 51.00,429.84 C 52.00,430.56 51.00,429.84 52.00,430.56M 52.00,430.56 C 53.00,431.28 52.00,430.56 53.00,431.28M 53.00,431.28 C 54.00,432.01 53.00,431.28 54.00,432.01M 54.00,432.01 C 55.00,432.75 54.00,432.01 55.00,432.75M 55.00,432.75 C 56.00,433.49 55.00,432.75 56.00,433.49M 56.00,433.49 C 57.00,434.24 56.00,433.49 57.00,434.24M 57.00,434.24 C 58.00,435.00 57.00,434.24 58.00,435.00M 58.00,435.00 C 59.00,435.76 58.00,435.00 59.00,435.76M 59.00,435.76 C 60.00,436.53 59.00,435.76 60.00,436.53M 60.00,436.53 C 61.00,437.31 60.00,436.53 61.00,437.31M 61.00,437.31 C 62.00,438.09 61.00,437.31 62.00,438.09M 62.00,438.09 C 63.00,438.88 62.00,438.09 63.00,438.88M 63.00,438.88 C 64.00,439.67 63.00,438.88 64.00,439.67M 64.00,439.67 C 65.00,440.47 64.00,439.67 65.00,440.47M 65.00,440.47 C 66.00,441.28 65.00,440.47 66.00,441.28M 66.00,441.28 C 67.00,442.09 66.00,441.28 67.00,442.09M 67.00,442.09 C 68.00,442.91 67.00,442.09 68.00,442.91M 68.00,442.91 C 69.00,443.73 68.00,442.91 69.00,443.73M 69.00,443.73 C 70.00,444.56 69.00,443.73 70.00,444.56M 70.00,444.56 C 71.00,445.40 70.00,444.56 71.00,445.40M 71.00,445.40 C 72.00,446.24 71.00,445.40 72.00,446.24M 72.00,446.24 C 73.00,447.08 72.00,446.24 73.00,447.08M 73.00,447.08 C 74.00,447.94 73.00,447.08 74.00,447.94M 74.00,447.94 C 75.00,448.79 74.00,447.94 75.00,448.79M 75.00,448.79 C 76.00,449.65 75.00,448.79 76.00,449.65M 76.00,449.65 C 77.00,450.52 76.00,449.65 77.00,450.52M 77.00,450.52 C 78.00,451.39 77.00,450.52 78.00,451.39M 78.00,451.39 C 79.00,452.27 78.00,451.39 79.00,452.27M 79.00,452.27 C 80.00,453.15 79.00,452.27 80.00,453.15M 80.00,453.15 C 81.00,454.03 80.00,453.15 81.00,454.03M 81.00,454.03 C 82.00,454.92 81.00,454.03 82.00,454.92M 82.00,454.92 C 83.00,455.82 82.00,454.92 83.00,455.82M 83.00,455.82 C 84.00,456.72 83.00,455.82 84.00,456.72M 84.00,456.72 C 85.00,457.62 84.00,456.72 85.00,457.62M 85.00,457.62 C 86.00,458.53 85.00,457.62 86.00,458.53M 86.00,458.53 C 87.00,459.44 86.00,458.53 87.00,459.44M 87.00,459.44 C 88.00,460.36 87.00,459.44 88.00,460.36M 88.00,460.36 C 89.00,461.28 88.00,460.36 89.00,461.28M 89.00,461.28 C 90.00,462.20 89.00,461.28 90.00,462.20M 90.00,462.20 C 91.00,463.13 90.00,462.20 91.00,463.13M 91.00,463.13 C 92.00,464.06 91.00,463.13 92.00,464.06M 92.00,464.06 C 93.00,465.00 92.00,464.06 93.00,465.00M 93.00,465.00 C 94.00,465.93 93.00,465.00 94.00,465.93M 94.00,465.93 C 95.00,466.88 94.00,465.93 95.00,466.88M 95.00,466.88 C 96.00,467.82 95.00,466.88 96.00,467.82M 96.00,467.82 C 97.00,468.77 96.00,467.82 97.00,468.77M 97.00,468.77 C 98.00,469.72 97.00,468.77 98.00,469.72M 98.00,469.72 C 99.00,470.68 98.00,469.72 99.00,470.68M 99.00,470.68 C 100.00,471.63 99.00,470.68 100.00,471.63M 100.00,471.63 C 101.00,472.59 100.00,471.63 101.00,472.59M 101.00,472.59 C 102.00,473.56 101.00,472.59 102.00,473.56M 102.00,473.56 C 103.00,474.52 102.00,473.56 103.00,474.52M 103.00,474.52 C 104.00,475.49 103.00,474.52 104.00,475.49M 104.00,475.49 C 105.00,476.46 104.00,475.49 105.00,476.46M 105.00,476.46 C 106.00,477.43 105.00,476.46 106.00,477.43M 106.00,477.43 C 107.00,478.41 106.00,477.43 107.00,478.41M 107.00,478.41 C 108.00,479.39 107.00,478.41 108.00,479.39M 108.00,479.39 C 109.00,480.37 108.00,479.39 109.00,480.37M 109.00,480.37 C 110.00,481.35 109.00,480.37 110.00,481.35M 110.00,481.35 C 111.00,482.33 110.00,481.35 111.00,482.33M 111.00,482.33 C 112.00,483.32 111.00,482.33 112.00,483.32M 112.00,483.32 C 113.00,484.30 112.00,483.32 113.00,484.30M 113.00,484.30 C 114.00,485.29 113.00,484.30 114.00,485.29M 114.00,485.29 C 115.00,486.28 114.00,485.29 115.00,486.28M 115.00,486.28 C 116.00,487.27 115.00,486.28 116.00,487.27M 116.00,487.27 C 117.00,488.27 116.00,487.27 117.00,488.27M 117.00,488.27 C 118.00,489.26 117.00,488.27 118.00,489.26M 118.00,489.26 C 119.00,490.25 118.00,489.26 119.00,490.25M 119.00,490.25 C 120.00,491.25 119.00,490.25 120.00,491.25M 120.00,491.25 C 121.00,492.25 120.00,491.25 121.00,492.25M 121.00,492.25 C 122.00,493.24 121.00,492.25 122.00,493.24M 122.00,493.24 C 123.00,494.24 122.00,493.24 123.00,494.24M 123.00,494.24 C 124.00,495.24 123.00,494.24 124.00,495.24M 124.00,495.24 C 125.00,496.24 124.00,495.24 125.00,496.24M 125.00,496.24 C 126.00,497.24 125.00,496.24 126.00,497.24M 126.00,497.24 C 127.00,498.24 126.00,497.24 127.00,498.24M 127.00,498.24 C 128.00,499.24 127.00,498.24 128.00,499.24M 128.00,499.24 C 129.00,500.24 128.00,499.24 129.00,500.24M 129.00,500.24 C 130.00,501.24 129.00,500.24 130.00,501.24M 130.00,501.24 C 131.00,502.24 130.00,501.24 131.00,502.24M 131.00,502.24 C 132.00,503.24 131.00,502.24 132.00,503.24M 132.00,503.24 C 133.00,504.24 132.00,503.24 133.00,504.24M 133.00,504.24 C 134.00,505.24 133.00,504.24 134.00,505.24M 134.00,505.24 C 135.00,506.23 134.00,505.24 135.00,506.23M 135.00,506.23 C 136.00,507.23 135.00,506.23 136.00,507.23M 136.00,507.23 C 137.00,508.23 136.00,507.23 137.00,508.23M 137.00,508.23 C 138.00,509.23 137.00,508.23 138.00,509.23M 138.00,509.23 C 139.00,510.22 138.00,509.23 139.00,510.22M 139.00,510.22 C 140.00,511.22 139.00,510.22 140.00,511.22M 140.00,511.22 C 141.00,512.21 140.00,511.22 141.00,512.21M 141.00,512.21 C 142.00,513.20 141.00,512.21 142.00,513.20M 142.00,513.20 C 143.00,514.19 142.00,513.20 143.00,514.19M 143.00,514.19 C 144.00,515.18 143.00,514.19 144.00,515.18M 144.00,515.18 C 145.00,516.17 144.00,515.18 145.00,516.17M 145.00,516.17 C 146.00,517.15 145.00,516.17 146.00,517.15M 146.00,517.15 C 147.00,518.14 146.00,517.15 147.00,518.14M 147.00,518.14 C 148.00,519.12 147.00,518.14 148.00,519.12M 148.00,519.12 C 149.00,520.10 148.00,519.12 149.00,520.10M 149.00,520.10 C 150.00,521.08 149.00,520.10 150.00,521.08M 150.00,521.08 C 151.00,522.06 150.00,521.08 151.00,522.06M 151.00,522.06 C 152.00,523.03 151.00,522.06 152.00,523.03M 152.00,523.03 C 153.00,524.00 152.00,523.03 153.00,524.00M 153.00,524.00 C 154.00,524.97 153.00,524.00 154.00,524.97M 154.00,524.97 C 155.00,525.94 154.00,524.97 155.00,525.94M 155.00,525.94 C 156.00,526.90 155.00,525.94 156.00,526.90M 156.00,526.90 C 157.00,527.87 156.00,526.90 157.00,527.87M 157.00,527.87 C 158.00,528.82 157.00,527.87 158.00,528.82M 158.00,528.82 C 159.00,529.78 158.00,528.82 159.00,529.78M 159.00,529.78 C 160.00,530.73 159.00,529.78 160.00,530.73M 160.00,530.73 C 161.00,531.68 160.00,530.73 161.00,531.68M 161.00,531.68 C 162.00,532.63 161.00,531.68 162.00,532.63M 162.00,532.63 C 163.00,533.57 162.00,532.63 163.00,533.57M 163.00,533.57 C 164.00,534.51 163.00,533.57 164.00,534.51M 164.00,534.51 C 165.00,535.45 164.00,534.51 165.00,535.45M 165.00,535.45 C 166.00,536.38 165.00,535.45 166.00,536.38M 166.00,536.38 C 167.00,537.31 166.00,536.38 167.00,537.31M 167.00,537.31 C 168.00,538.24 167.00,537.31 168.00,538.24M 168.00,538.24 C 169.00,539.16 168.00,538.24 169.00,539.16M 169.00,539.16 C 170.00,540.08 169.00,539.16 170.00,540.08M 170.00,540.08 C 171.00,540.99 170.00,540.08 171.00,540.99M 171.00,540.99 C 172.00,541.90 171.00,540.99 172.00,541.90M 172.00,541.90 C 173.00,542.81 172.00,541.90 173.00,542.81M 173.00,542.81 C 174.00,543.71 173.00,542.81 174.00,543.71M 174.00,543.71 C 175.00,544.61 174.00,543.71 175.00,544.61M 175.00,544.61 C 176.00,545.50 175.00,544.61 176.00,545.50M 176.00,545.50 C 177.00,546.39 176.00,545.50 177.00,546.39M 177.00,546.39 C 178.00,547.27 177.00,546.39 178.00,547.27M 178.00,547.27 C 179.00,548.15 178.00,547.27 179.00,548.15M 179.00,548.15 C 180.00,549.03 179.00,548.15 180.00,549.03M 180.00,549.03 C 181.00,549.90 180.00,549.03 181.00,549.90M 181.00,549.90 C 182.00,550.76 181.00,549.90 182.00,550.76M 182.00,550.76 C 183.00,551.62 182.00,550.76 183.00,551.62M 183.00,551.62 C 184.00,552.47 183.00,551.62 184.00,552.47M 184.00,552.47 C 185.00,553.32 184.00,552.47 185.00,553.32M 185.00,553.32 C 186.00,554.16 185.00,553.32 186.00,554.16M 186.00,554.16 C 187.00,555.00 186.00,554.16 187.00,555.00M 187.00,555.00 C 188.00,555.83 187.00,555.00 188.00,555.83M 188.00,555.83 C 189.00,556.66 188.00,555.83 189.00,556.66M 189.00,556.66 C 190.00,557.48 189.00,556.66 190.00,557.48M 190.00,557.48 C 191.00,558.30 190.00,557.48 191.00,558.30M 191.00,558.30 C 192.00,559.11 191.00,558.30 192.00,559.11M 192.00,559.11 C 193.00,559.91 192.00,559.11 193.00,559.91M 193.00,559.91 C 194.00,560.71 193.00,559.91 194.00,560.71M 194.00,560.71 C 195.00,561.50 194.00,560.71 195.00,561.50M 195.00,561.50 C 196.00,562.29 195.00,561.50 196.00,562.29M 196.00,562.29 C 197.00,563.06 196.00,562.29 197.00,563.06M 197.00,563.06 C 198.00,563.84 197.00,563.06 198.00,563.84M 198.00,563.84 C 199.00,564.60 198.00,563.84 199.00,564.60M 199.00,564.60 C 200.00,565.36 199.00,564.60 200.00,565.36M 200.00,565.36 C 201.00,566.12 200.00,565.36 201.00,566.12M 201.00,566.12 C 202.00,566.86 201.00,566.12 202.00,566.86M 202.00,566.86 C 203.00,567.61 202.00,566.86 203.00,567.61M 203.00,567.61 C 204.00,568.34 203.00,567.61 204.00,568.34M 204.00,568.34 C 205.00,569.07 204.00,568.34 205.00,569.07M 205.00,569.07 C 206.00,569.78 205.00,569.07 206.00,569.78M 206.00,569.78 C 207.00,570.50 206.00,569.78 207.00,570.50M 207.00,570.50 C 208.00,571.20 207.00,570.50 208.00,571.20M 208.00,571.20 C 209.00,571.90 208.00,571.20 209.00,571.90M 209.00,571.90 C 210.00,572.59 209.00,571.90 210.00,572.59M 210.00,572.59 C 211.00,573.28 210.00,572.59 211.00,573.28M 211.00,573.28 C 212.00,573.95 211.00,573.28 212.00,573.95M 212.00,573.95 C 213.00,574.62 212.00,573.95 213.00,574.62M 213.00,574.62 C 214.00,575.29 213.00,574.62 214.00,575.29M 214.00,575.29 C 215.00,575.94 214.00,575.29 215.00,575.94M 215.00,575.94 C 216.00,576.59 215.00,575.94 216.00,576.59M 216.00,576.59 C 217.00,577.23 216.00,576.59 217.00,577.23M 217.00,577.23 C 218.00,577.86 217.00,577.23 218.00,577.86M 218.00,577.86 C 219.00,578.48 218.00,577.86 219.00,578.48M 219.00,578.48 C 220.00,579.10 219.00,578.48 220.00,579.10M 220.00,579.10 C 221.00,579.70 220.00,579.10 221.00,579.70M 221.00,579.70 C 222.00,580.30 221.00,579.70 222.00,580.30M 222.00,580.30 C 223.00,580.90 222.00,580.30 223.00,580.90M 223.00,580.90 C 224.00,581.48 223.00,580.90 224.00,581.48M 224.00,581.48 C 225.00,582.06 224.00,581.48 225.00,582.06M 225.00,582.06 C 226.00,582.62 225.00,582.06 226.00,582.62M 226.00,582.62 C 227.00,583.18 226.00,582.62 227.00,583.18M 227.00,583.18 C 228.00,583.73 227.00,583.18 228.00,583.73M 228.00,583.73 C 229.00,584.28 228.00,583.73 229.00,584.28M 229.00,584.28 C 230.00,584.81 229.00,584.28 230.00,584.81M 230.00,584.81 C 231.00,585.34 230.00,584.81 231.00,585.34M 231.00,585.34 C 232.00,585.85 231.00,585.34 232.00,585.85M 232.00,585.85 C 233.00,586.36 232.00,585.85 233.00,586.36M 233.00,586.36 C 234.00,586.86 233.00,586.36 234.00,586.86M 234.00,586.86 C 235.00,587.35 234.00,586.86 235.00,587.35M 235.00,587.35 C 236.00,587.83 235.00,587.35 236.00,587.83M 236.00,587.83 C 237.00,588.31 236.00,587.83 237.00,588.31M 237.00,588.31 C 238.00,588.77 237.00,588.31 238.00,588.77M 238.00,588.77 C 239.00,589.23 238.00,588.77 239.00,589.23M 239.00,589.23 C 240.00,589.68 239.00,589.23 240.00,589.68M 240.00,589.68 C 241.00,590.11 240.00,589.68 241.00,590.11M 241.00,590.11 C 242.00,590.54 241.00,590.11 242.00,590.54M 242.00,590.54 C 243.00,590.96 242.00,590.54 243.00,590.96M 243.00,590.96 C 244.00,591.37 243.00,590.96 244.00,591.37M 244.00,591.37 C 245.00,591.78 244.00,591.37 245.00,591.78M 245.00,591.78 C 246.00,592.17 245.00,591.78 246.00,592.17M 246.00,592.17 C 247.00,592.55 246.00,592.17 247.00,592.55M 247.00,592.55 C 248.00,592.93 247.00,592.55 248.00,592.93M 248.00,592.93 C 249.00,593.29 248.00,592.93 249.00,593.29M 249.00,593.29 C 250.00,593.65 249.00,593.29 250.00,593.65M 250.00,593.65 C 251.00,593.99 250.00,593.65 251.00,593.99M 251.00,593.99 C 252.00,594.33 251.00,593.99 252.00,594.33M 252.00,594.33 C 253.00,594.66 252.00,594.33 253.00,594.66M 253.00,594.66 C 254.00,594.97 253.00,594.66 254.00,594.97M 254.00,594.97 C 255.00,595.28 254.00,594.97 255.00,595.28M 255.00,595.28 C 256.00,595.58 255.00,595.28 256.00,595.58M 256.00,595.58 C 257.00,595.87 256.00,595.58 257.00,595.87M 257.00,595.87 C 258.00,596.15 257.00,595.87 258.00,596.15M 258.00,596.15 C 259.00,596.42 258.00,596.15 259.00,596.42M 259.00,596.42 C 260.00,596.68 259.00,596.42 260.00,596.68M 260.00,596.68 C 261.00,596.93 260.00,596.68 261.00,596.93M 261.00,596.93 C 262.00,597.17 261.00,596.93 262.00,597.17M 262.00,597.17 C 263.00,597.40 262.00,597.17 263.00,597.40M 263.00,597.40 C 264.00,597.62 263.00,597.40 264.00,597.62M 264.00,597.62 C 265.00,597.84 264.00,597.62 265.00,597.84M 265.00,597.84 C 266.00,598.04 265.00,597.84 266.00,598.04M 266.00,598.04 C 267.00,598.23 266.00,598.04 267.00,598.23M 267.00,598.23 C 268.00,598.41 267.00,598.23 268.00,598.41M 268.00,598.41 C 269.00,598.59 268.00,598.41 269.00,598.59M 269.00,598.59 C 270.00,598.75 269.00,598.59 270.00,598.75M 270.00,598.75 C 271.00,598.90 270.00,598.75 271.00,598.90M 271.00,598.90 C 272.00,599.04 271.00,598.90 272.00,599.04M 272.00,599.04 C 273.00,599.18 272.00,599.04 273.00,599.18M 273.00,599.18 C 274.00,599.30 273.00,599.18 274.00,599.30M 274.00,599.30 C 275.00,599.41 274.00,599.30 275.00,599.41M 275.00,599.41 C 276.00,599.52 275.00,599.41 276.00,599.52M 276.00,599.52 C 277.00,599.61 276.00,599.52 277.00,599.61M 277.00,599.61 C 278.00,599.69 277.00,599.61 278.00,599.69M 278.00,599.69 C 279.00,599.77 278.00,599.69 279.00,599.77M 279.00,599.77 C 280.00,599.83 279.00,599.77 280.00,599.83M 280.00,599.83 C 281.00,599.88 280.00,599.83 281.00,599.88M 281.00,599.88 C 282.00,599.93 281.00,599.88 282.00,599.93M 282.00,599.93 C 283.00,599.96 282.00,599.93 283.00,599.96M 283.00,599.96 C 284.00,599.98 283.00,599.96 284.00,599.98M 284.00,599.98 C 285.00,600.00 284.00,599.98 285.00,600.00M 285.00,600.00 C 286.00,600.00 285.00,600.00 286.00,600.00M 286.00,600.00 C 287.00,599.99 286.00,600.00 287.00,599.99M 287.00,599.99 C 288.00,599.98 287.00,599.99 288.00,599.98M 288.00,599.98 C 289.00,599.95 288.00,599.98 289.00,599.95M 289.00,599.95 C 290.00,599.91 289.00,599.95 290.00,599.91M 290.00,599.91 C 291.00,599.87 290.00,599.91 291.00,599.87M 291.00,599.87 C 292.00,599.81 291.00,599.87 292.00,599.81M 292.00,599.81 C 293.00,599.74 292.00,599.81 293.00,599.74M 293.00,599.74 C 294.00,599.67 293.00,599.74 294.00,599.67M 294.00,599.67 C 295.00,599.58 294.00,599.67 295.00,599.58M 295.00,599.58 C 296.00,599.48 295.00,599.58 296.00,599.48M 296.00,599.48 C 297.00,599.38 296.00,599.48 297.00,599.38M 297.00,599.38 C 298.00,599.26 297.00,599.38 298.00,599.26M 298.00,599.26 C 299.00,599.14 298.00,599.26 299.00,599.14M 299.00,599.14 C 300.00,599.00 299.00,599.14 300.00,599.00M 300.00,599.00 C 301.00,598.85 300.00,599.00 301.00,598.85M 301.00,598.85 C 302.00,598.70 301.00,598.85 302.00,598.70M 302.00,598.70 C 303.00,598.53 302.00,598.70 303.00,598.53M 303.00,598.53 C 304.00,598.36 303.00,598.53 304.00,598.36M 304.00,598.36 C 305.00,598.17 304.00,598.36 305.00,598.17M 305.00,598.17 C 306.00,597.97 305.00,598.17 306.00,597.97M 306.00,597.97 C 307.00,597.77 306.00,597.97 307.00,597.77M 307.00,597.77 C 308.00,597.55 307.00,597.77 308.00,597.55M 308.00,597.55 C 309.00,597.33 308.00,597.55 309.00,597.33M 309.00,597.33 C 310.00,597.10 309.00,597.33 310.00,597.10M 310.00,597.10 C 311.00,596.85 310.00,597.10 311.00,596.85M 311.00,596.85 C 312.00,596.60 311.00,596.85 312.00,596.60M 312.00,596.60 C 313.00,596.33 312.00,596.60 313.00,596.33M 313.00,596.33 C 314.00,596.06 313.00,596.33 314.00,596.06M 314.00,596.06 C 315.00,595.78 314.00,596.06 315.00,595.78M 315.00,595.78 C 316.00,595.49 315.00,595.78 316.00,595.49M 316.00,595.49 C 317.00,595.18 316.00,595.49 317.00,595.18M 317.00,595.18 C 318.00,594.87 317.00,595.18 318.00,594.87M 318.00,594.87 C 319.00,594.55 318.00,594.87 319.00,594.55M 319.00,594.55 C 320.00,594.22 319.00,594.55 320.00,594.22M 320.00,594.22 C 321.00,593.88 320.00,594.22 321.00,593.88M 321.00,593.88 C 322.00,593.53 321.00,593.88 322.00,593.53M 322.00,593.53 C 323.00,593.18 322.00,593.53 323.00,593.18M 323.00,593.18 C 324.00,592.81 323.00,593.18 324.00,592.81M 324.00,592.81 C 325.00,592.43 324.00,592.81 325.00,592.43M 325.00,592.43 C 326.00,592.04 325.00,592.43 326.00,592.04M 326.00,592.04 C 327.00,591.65 326.00,592.04 327.00,591.65M 327.00,591.65 C 328.00,591.24 327.00,591.65 328.00,591.24M 328.00,591.24 C 329.00,590.83 328.00,591.24 329.00,590.83M 329.00,590.83 C 330.00,590.41 329.00,590.83 330.00,590.41M 330.00,590.41 C 331.00,589.98 330.00,590.41 331.00,589.98M 331.00,589.98 C 332.00,589.53 331.00,589.98 332.00,589.53M 332.00,589.53 C 333.00,589.08 332.00,589.53 333.00,589.08M 333.00,589.08 C 334.00,588.63 333.00,589.08 334.00,588.63M 334.00,588.63 C 335.00,588.16 334.00,588.63 335.00,588.16M 335.00,588.16 C 336.00,587.68 335.00,588.16 336.00,587.68M 336.00,587.68 C 337.00,587.20 336.00,587.68 337.00,587.20M 337.00,587.20 C 338.00,586.70 337.00,587.20 338.00,586.70M 338.00,586.70 C 339.00,586.20 338.00,586.70 339.00,586.20M 339.00,586.20 C 340.00,585.69 339.00,586.20 340.00,585.69M 340.00,585.69 C 341.00,585.17 340.00,585.69 341.00,585.17M 341.00,585.17 C 342.00,584.64 341.00,585.17 342.00,584.64M 342.00,584.64 C 343.00,584.10 342.00,584.64 343.00,584.10M 343.00,584.10 C 344.00,583.56 343.00,584.10 344.00,583.56M 344.00,583.56 C 345.00,583.01 344.00,583.56 345.00,583.01M 345.00,583.01 C 346.00,582.44 345.00,583.01 346.00,582.44M 346.00,582.44 C 347.00,581.87 346.00,582.44 347.00,581.87M 347.00,581.87 C 348.00,581.30 347.00,581.87 348.00,581.30M 348.00,581.30 C 349.00,580.71 348.00,581.30 349.00,580.71M 349.00,580.71 C 350.00,580.11 349.00,580.71 350.00,580.11M 350.00,580.11 C 351.00,579.51 350.00,580.11 351.00,579.51M 351.00,579.51 C 352.00,578.90 351.00,579.51 352.00,578.90M 352.00,578.90 C 353.00,578.28 352.00,578.90 353.00,578.28M 353.00,578.28 C 354.00,577.66 353.00,578.28 354.00,577.66M 354.00,577.66 C 355.00,577.02 354.00,577.66 355.00,577.02M 355.00,577.02 C 356.00,576.38 355.00,577.02 356.00,576.38M 356.00,576.38 C 357.00,575.73 356.00,576.38 357.00,575.73M 357.00,575.73 C 358.00,575.08 357.00,575.73 358.00,575.08M 358.00,575.08 C 359.00,574.41 358.00,575.08 359.00,574.41M 359.00,574.41 C 360.00,573.74 359.00,574.41 360.00,573.74M 360.00,573.74 C 361.00,573.06 360.00,573.74 361.00,573.06M 361.00,573.06 C 362.00,572.37 361.00,573.06 362.00,572.37M 362.00,572.37 C 363.00,571.68 362.00,572.37 363.00,571.68M 363.00,571.68 C 364.00,570.98 363.00,571.68 364.00,570.98M 364.00,570.98 C 365.00,570.27 364.00,570.98 365.00,570.27M 365.00,570.27 C 366.00,569.56 365.00,570.27 366.00,569.56M 366.00,569.56 C 367.00,568.83 366.00,569.56 367.00,568.83M 367.00,568.83 C 368.00,568.11 367.00,568.83 368.00,568.11M 368.00,568.11 C 369.00,567.37 368.00,568.11 369.00,567.37M 369.00,567.37 C 370.00,566.63 369.00,567.37 370.00,566.63M 370.00,566.63 C 371.00,565.88 370.00,566.63 371.00,565.88M 371.00,565.88 C 372.00,565.12 371.00,565.88 372.00,565.12M 372.00,565.12 C 373.00,564.36 372.00,565.12 373.00,564.36M 373.00,564.36 C 374.00,563.59 373.00,564.36 374.00,563.59M 374.00,563.59 C 375.00,562.82 374.00,563.59 375.00,562.82M 375.00,562.82 C 376.00,562.04 375.00,562.82 376.00,562.04M 376.00,562.04 C 377.00,561.25 376.00,562.04 377.00,561.25M 377.00,561.25 C 378.00,560.46 377.00,561.25 378.00,560.46M 378.00,560.46 C 379.00,559.66 378.00,560.46 379.00,559.66M 379.00,559.66 C 380.00,558.85 379.00,559.66 380.00,558.85M 380.00,558.85 C 381.00,558.04 380.00,558.85 381.00,558.04M 381.00,558.04 C 382.00,557.22 381.00,558.04 382.00,557.22M 382.00,557.22 C 383.00,556.40 382.00,557.22 383.00,556.40M 383.00,556.40 C 384.00,555.57 383.00,556.40 384.00,555.57M 384.00,555.57 C 385.00,554.74 384.00,555.57 385.00,554.74M 385.00,554.74 C 386.00,553.90 385.00,554.74 386.00,553.90M 386.00,553.90 C 387.00,553.05 386.00,553.90 387.00,553.05M 387.00,553.05 C 388.00,552.20 387.00,553.05 388.00,552.20M 388.00,552.20 C 389.00,551.35 388.00,552.20 389.00,551.35M 389.00,551.35 C 390.00,550.48 389.00,551.35 390.00,550.48M 390.00,550.48 C 391.00,549.62 390.00,550.48 391.00,549.62M 391.00,549.62 C 392.00,548.75 391.00,549.62 392.00,548.75M 392.00,548.75 C 393.00,547.87 392.00,548.75 393.00,547.87M 393.00,547.87 C 394.00,546.99 393.00,547.87 394.00,546.99M 394.00,546.99 C 395.00,546.11 394.00,546.99 395.00,546.11M 395.00,546.11 C 396.00,545.22 395.00,546.11 396.00,545.22M 396.00,545.22 C 397.00,544.32 396.00,545.22 397.00,544.32M 397.00,544.32 C 398.00,543.42 397.00,544.32 398.00,543.42M 398.00,543.42 C 399.00,542.52 398.00,543.42 399.00,542.52M 399.00,542.52 C 400.00,541.61 399.00,542.52 400.00,541.61M 400.00,541.61 C 401.00,540.70 400.00,541.61 401.00,540.70M 401.00,540.70 C 402.00,539.79 401.00,540.70 402.00,539.79M 402.00,539.79 C 403.00,538.87 402.00,539.79 403.00,538.87M 403.00,538.87 C 404.00,537.95 403.00,538.87 404.00,537.95M 404.00,537.95 C 405.00,537.02 404.00,537.95 405.00,537.02M 405.00,537.02 C 406.00,536.09 405.00,537.02 406.00,536.09M 406.00,536.09 C 407.00,535.15 406.00,536.09 407.00,535.15M 407.00,535.15 C 408.00,534.21 407.00,535.15 408.00,534.21M 408.00,534.21 C 409.00,533.27 408.00,534.21 409.00,533.27M 409.00,533.27 C 410.00,532.33 409.00,533.27 410.00,532.33M 410.00,532.33 C 411.00,531.38 410.00,532.33 411.00,531.38M 411.00,531.38 C 412.00,530.43 411.00,531.38 412.00,530.43M 412.00,530.43 C 413.00,529.48 412.00,530.43 413.00,529.48M 413.00,529.48 C 414.00,528.52 413.00,529.48 414.00,528.52M 414.00,528.52 C 415.00,527.56 414.00,528.52 415.00,527.56M 415.00,527.56 C 416.00,526.60 415.00,527.56 416.00,526.60M 416.00,526.60 C 417.00,525.63 416.00,526.60 417.00,525.63M 417.00,525.63 C 418.00,524.66 417.00,525.63 418.00,524.66M 418.00,524.66 C 419.00,523.69 418.00,524.66 419.00,523.69M 419.00,523.69 C 420.00,522.72 419.00,523.69 420.00,522.72M 420.00,522.72 C 421.00,521.75 420.00,522.72 421.00,521.75M 421.00,521.75 C 422.00,520.77 421.00,521.75 422.00,520.77M 422.00,520.77 C 423.00,519.79 422.00,520.77 423.00,519.79M 423.00,519.79 C 424.00,518.81 423.00,519.79 424.00,518.81M 424.00,518.81 C 425.00,517.82 424.00,518.81 425.00,517.82M 425.00,517.82 C 426.00,516.84 425.00,517.82 426.00,516.84M 426.00,516.84 C 427.00,515.85 426.00,516.84 427.00,515.85M 427.00,515.85 C 428.00,514.87 427.00,515.85 428.00,514.87M 428.00,514.87 C 429.00,513.88 428.00,514.87 429.00,513.88M 429.00,513.88 C 430.00,512.88 429.00,513.88 430.00,512.88M 430.00,512.88 C 431.00,511.89 430.00,512.88 431.00,511.89M 431.00,511.89 C 432.00,510.90 431.00,511.89 432.00,510.90M 432.00,510.90 C 433.00,509.90 432.00,510.90 433.00,509.90M 433.00,509.90 C 434.00,508.91 433.00,509.90 434.00,508.91M 434.00,508.91 C 435.00,507.91 434.00,508.91 435.00,507.91M 435.00,507.91 C 436.00,506.91 435.00,507.91 436.00,506.91M 436.00,506.91 C 437.00,505.92 436.00,506.91 437.00,505.92M 437.00,505.92 C 438.00,504.92 437.00,505.92 438.00,504.92M 438.00,504.92 C 439.00,503.92 438.00,504.92 439.00,503.92M 439.00,503.92 C 440.00,502.92 439.00,503.92 440.00,502.92M 440.00,502.92 C 441.00,501.92 440.00,502.92 441.00,501.92M 441.00,501.92 C 442.00,500.92 441.00,501.92 442.00,500.92M 442.00,500.92 C 443.00,499.92 442.00,500.92 443.00,499.92M 443.00,499.92 C 444.00,498.92 443.00,499.92 444.00,498.92M 444.00,498.92 C 445.00,497.92 444.00,498.92 445.00,497.92M 445.00,497.92 C 446.00,496.92 445.00,497.92 446.00,496.92M 446.00,496.92 C 447.00,495.92 446.00,496.92 447.00,495.92M 447.00,495.92 C 448.00,494.92 447.00,495.92 448.00,494.92M 448.00,494.92 C 449.00,493.92 448.00,494.92 449.00,493.92M 449.00,493.92 C 450.00,492.93 449.00,493.92 450.00,492.93M 450.00,492.93 C 451.00,491.93 450.00,492.93 451.00,491.93M 451.00,491.93 C 452.00,490.93 451.00,491.93 452.00,490.93M 452.00,490.93 C 453.00,489.94 452.00,490.93 453.00,489.94M 453.00,489.94 C 454.00,488.94 453.00,489.94 454.00,488.94M 454.00,488.94 C 455.00,487.95 454.00,488.94 455.00,487.95M 455.00,487.95 C 456.00,486.96 455.00,487.95 456.00,486.96M 456.00,486.96 C 457.00,485.97 456.00,486.96 457.00,485.97M 457.00,485.97 C 458.00,484.98 457.00,485.97 458.00,484.98M 458.00,484.98 C 459.00,483.99 458.00,484.98 459.00,483.99M 459.00,483.99 C 460.00,483.00 459.00,483.99 460.00,483.00M 460.00,483.00 C 461.00,482.02 460.00,483.00 461.00,482.02M 461.00,482.02 C 462.00,481.04 461.00,482.02 462.00,481.04M 462.00,481.04 C 463.00,480.06 462.00,481.04 463.00,480.06M 463.00,480.06 C 464.00,479.08 463.00,480.06 464.00,479.08M 464.00,479.08 C 465.00,478.10 464.00,479.08 465.00,478.10M 465.00,478.10 C 466.00,477.12 465.00,478.10 466.00,477.12M 466.00,477.12 C 467.00,476.15 466.00,477.12 467.00,476.15M 467.00,476.15 C 468.00,475.18 467.00,476.15 468.00,475.18M 468.00,475.18 C 469.00,474.21 468.00,475.18 469.00,474.21M 469.00,474.21 C 470.00,473.25 469.00,474.21 470.00,473.25M 470.00,473.25 C 471.00,472.29 470.00,473.25 471.00,472.29M 471.00,472.29 C 472.00,471.33 471.00,472.29 472.00,471.33M 472.00,471.33 C 473.00,470.37 472.00,471.33 473.00,470.37M 473.00,470.37 C 474.00,469.42 473.00,470.37 474.00,469.42M 474.00,469.42 C 475.00,468.47 474.00,469.42 475.00,468.47M 475.00,468.47 C 476.00,467.52 475.00,468.47 476.00,467.52M 476.00,467.52 C 477.00,466.58 476.00,467.52 477.00,466.58M 477.00,466.58 C 478.00,465.64 477.00,466.58 478.00,465.64M 478.00,465.64 C 479.00,464.70 478.00,465.64 479.00,464.70M 479.00,464.70 C 480.00,463.76 479.00,464.70 480.00,463.76M 480.00,463.76 C 481.00,462.83 480.00,463.76 481.00,462.83M 481.00,462.83 C 482.00,461.91 481.00,462.83 482.00,461.91M 482.00,461.91 C 483.00,460.98 482.00,461.91 483.00,460.98M 483.00,460.98 C 484.00,460.07 483.00,460.98 484.00,460.07M 484.00,460.07 C 485.00,459.15 484.00,460.07 485.00,459.15M 485.00,459.15 C 486.00,458.24 485.00,459.15 486.00,458.24M 486.00,458.24 C 487.00,457.33 486.00,458.24 487.00,457.33M 487.00,457.33 C 488.00,456.43 487.00,457.33 488.00,456.43M 488.00,456.43 C 489.00,455.53 488.00,456.43 489.00,455.53M 489.00,455.53 C 490.00,454.64 489.00,455.53 490.00,454.64M 490.00,454.64 C 491.00,453.75 490.00,454.64 491.00,453.75M 491.00,453.75 C 492.00,452.87 491.00,453.75 492.00,452.87M 492.00,452.87 C 493.00,451.99 492.00,452.87 493.00,451.99M 493.00,451.99 C 494.00,451.11 493.00,451.99 494.00,451.11M 494.00,451.11 C 495.00,450.24 494.00,451.11 495.00,450.24M 495.00,450.24 C 496.00,449.38 495.00,450.24 496.00,449.38M 496.00,449.38 C 497.00,448.52 496.00,449.38 497.00,448.52M 497.00,448.52 C 498.00,447.66 497.00,448.52 498.00,447.66M 498.00,447.66 C 499.00,446.81 498.00,447.66 499.00,446.81M 499.00,446.81 C 500.00,445.97 499.00,446.81 500.00,445.97M 500.00,445.97 C 501.00,445.13 500.00,445.97 501.00,445.13M 501.00,445.13 C 502.00,444.30 501.00,445.13 502.00,444.30M 502.00,444.30 C 503.00,443.47 502.00,444.30 503.00,443.47M 503.00,443.47 C 504.00,442.65 503.00,443.47 504.00,442.65M 504.00,442.65 C 505.00,441.83 504.00,442.65 505.00,441.83M 505.00,441.83 C 506.00,441.02 505.00,441.83 506.00,441.02M 506.00,441.02 C 507.00,440.22 506.00,441.02 507.00,440.22M 507.00,440.22 C 508.00,439.42 507.00,440.22 508.00,439.42M 508.00,439.42 C 509.00,438.63 508.00,439.42 509.00,438.63M 509.00,438.63 C 510.00,437.84 509.00,438.63 510.00,437.84M 510.00,437.84 C 511.00,437.06 510.00,437.84 511.00,437.06M 511.00,437.06 C 512.00,436.28 511.00,437.06 512.00,436.28M 512.00,436.28 C 513.00,435.52 512.00,436.28 513.00,435.52M 513.00,435.52 C 514.00,434.76 513.00,435.52 514.00,434.76M 514.00,434.76 C 515.00,434.00 514.00,434.76 515.00,434.00M 515.00,434.00 C 516.00,433.25 515.00,434.00 516.00,433.25M 516.00,433.25 C 517.00,432.51 516.00,433.25 517.00,432.51M 517.00,432.51 C 518.00,431.78 517.00,432.51 518.00,431.78M 518.00,431.78 C 519.00,431.05 518.00,431.78 519.00,431.05M 519.00,431.05 C 520.00,430.33 519.00,431.05 520.00,430.33M 520.00,430.33 C 521.00,429.62 520.00,430.33 521.00,429.62M 521.00,429.62 C 522.00,428.91 521.00,429.62 522.00,428.91M 522.00,428.91 C 523.00,428.21 522.00,428.91 523.00,428.21M 523.00,428.21 C 524.00,427.52 523.00,428.21 524.00,427.52M 524.00,427.52 C 525.00,426.83 524.00,427.52 525.00,426.83M 525.00,426.83 C 526.00,426.15 525.00,426.83 526.00,426.15M 526.00,426.15 C 527.00,425.48 526.00,426.15 527.00,425.48M 527.00,425.48 C 528.00,424.82 527.00,425.48 528.00,424.82M 528.00,424.82 C 529.00,424.16 528.00,424.82 529.00,424.16M 529.00,424.16 C 530.00,423.52 529.00,424.16 530.00,423.52M 530.00,423.52 C 531.00,422.88 530.00,423.52 531.00,422.88M 531.00,422.88 C 532.00,422.24 531.00,422.88 532.00,422.24M 532.00,422.24 C 533.00,421.62 532.00,422.24 533.00,421.62M 533.00,421.62 C 534.00,421.00 533.00,421.62 534.00,421.00M 534.00,421.00 C 535.00,420.39 534.00,421.00 535.00,420.39M 535.00,420.39 C 536.00,419.79 535.00,420.39 536.00,419.79M 536.00,419.79 C 537.00,419.20 536.00,419.79 537.00,419.20M 537.00,419.20 C 538.00,418.61 537.00,419.20 538.00,418.61M 538.00,418.61 C 539.00,418.04 538.00,418.61 539.00,418.04M 539.00,418.04 C 540.00,417.47 539.00,418.04 540.00,417.47M 540.00,417.47 C 541.00,416.91 540.00,417.47 541.00,416.91M 541.00,416.91 C 542.00,416.35 541.00,416.91 542.00,416.35M 542.00,416.35 C 543.00,415.81 542.00,416.35 543.00,415.81M 543.00,415.81 C 544.00,415.27 543.00,415.81 544.00,415.27M 544.00,415.27 C 545.00,414.75 544.00,415.27 545.00,414.75M 545.00,414.75 C 546.00,414.23 545.00,414.75 546.00,414.23M 546.00,414.23 C 547.00,413.72 546.00,414.23 547.00,413.72M 547.00,413.72 C 548.00,413.22 547.00,413.72 548.00,413.22M 548.00,413.22 C 549.00,412.73 548.00,413.22 549.00,412.73M 549.00,412.73 C 550.00,412.24 549.00,412.73 550.00,412.24M 550.00,412.24 C 551.00,411.77 550.00,412.24 551.00,411.77M 551.00,411.77 C 552.00,411.30 551.00,411.77 552.00,411.30M 552.00,411.30 C 553.00,410.84 552.00,411.30 553.00,410.84M 553.00,410.84 C 554.00,410.39 553.00,410.84 554.00,410.39M 554.00,410.39 C 555.00,409.96 554.00,410.39 555.00,409.96M 555.00,409.96 C 556.00,409.52 555.00,409.96 556.00,409.52M 556.00,409.52 C 557.00,409.10 556.00,409.52 557.00,409.10M 557.00,409.10 C 558.00,408.69 557.00,409.10 558.00,408.69M 558.00,408.69 C 559.00,408.29 558.00,408.69 559.00,408.29M 559.00,408.29 C 560.00,407.89 559.00,408.29 560.00,407.89M 560.00,407.89 C 561.00,407.51 560.00,407.89 561.00,407.51M 561.00,407.51 C 562.00,407.13 561.00,407.51 562.00,407.13M 562.00,407.13 C 563.00,406.77 562.00,407.13 563.00,406.77M 563.00,406.77 C 564.00,406.41 563.00,406.77 564.00,406.41M 564.00,406.41 C 565.00,406.06 564.00,406.41 565.00,406.06M 565.00,406.06 C 566.00,405.72 565.00,406.06 566.00,405.72M 566.00,405.72 C 567.00,405.40 566.00,405.72 567.00,405.40M 567.00,405.40 C 568.00,405.08 567.00,405.40 568.00,405.08M 568.00,405.08 C 569.00,404.77 568.00,405.08 569.00,404.77M 569.00,404.77 C 570.00,404.47 569.00,404.77 570.00,404.47M 570.00,404.47 C 571.00,404.18 570.00,404.47 571.00,404.18M 571.00,404.18 C 572.00,403.89 571.00,404.18 572.00,403.89M 572.00,403.89 C 573.00,403.62 572.00,403.89 573.00,403.62M 573.00,403.62 C 574.00,403.36 573.00,403.62 574.00,403.36M 574.00,403.36 C 575.00,403.11 574.00,403.36 575.00,403.11M 575.00,403.11 C 576.00,402.87 575.00,403.11 576.00,402.87M 576.00,402.87 C 577.00,402.63 576.00,402.87 577.00,402.63M 577.00,402.63 C 578.00,402.41 577.00,402.63 578.00,402.41M 578.00,402.41 C 579.00,402.20 578.00,402.41 579.00,402.20M 579.00,402.20 C 580.00,401.99 579.00,402.20 580.00,401.99M 580.00,401.99 C 581.00,401.80 580.00,401.99 581.00,401.80M 581.00,401.80 C 582.00,401.62 581.00,401.80 582.00,401.62M 582.00,401.62 C 583.00,401.44 582.00,401.62 583.00,401.44M 583.00,401.44 C 584.00,401.28 583.00,401.44 584.00,401.28M 584.00,401.28 C 585.00,401.12 584.00,401.28 585.00,401.12M 585.00,401.12 C 586.00,400.98 585.00,401.12 586.00,400.98M 586.00,400.98 C 587.00,400.84 586.00,400.98 587.00,400.84M 587.00,400.84 C 588.00,400.72 587.00,400.84 588.00,400.72M 588.00,400.72 C 589.00,400.60 588.00,400.72 589.00,400.60M 589.00,400.60 C 590.00,400.50 589.00,400.60 590.00,400.50M 590.00,400.50 C 591.00,400.40 590.00,400.50 591.00,400.40M 591.00,400.40 C 592.00,400.32 591.00,400.40 592.00,400.32M 592.00,400.32 C 593.00,400.24 592.00,400.32 593.00,400.24M 593.00,400.24 C 594.00,400.18 593.00,400.24 594.00,400.18M 594.00,400.18 C 595.00,400.12 594.00,400.18 595.00,400.12M 595.00,400.12 C 596.00,400.08 595.00,400.12 596.00,400.08M 596.00,400.08 C 597.00,400.04 596.00,400.08 597.00,400.04M 597.00,400.04 C 598.00,400.02 597.00,400.04 598.00,400.02M 598.00,400.02 C 599.00,400.00 598.00,400.02 599.00,400.00M 599.00,400.00 C 600.00,400.00 599.00,400.00 600.00,400.00M 600.00,400.00 C 601.00,400.00 600.00,400.00 601.00,400.00M 601.00,400.00 C 602.00,400.02 601.00,400.00 602.00,400.02M 602.00,400.02 C 603.00,400.04 602.00,400.02 603.00,400.04M 603.00,400.04 C 604.00,400.08 603.00,400.04 604.00,400.08M 604.00,400.08 C 605.00,400.12 604.00,400.08 605.00,400.12M 605.00,400.12 C 606.00,400.18 605.00,400.12 606.00,400.18M 606.00,400.18 C 607.00,400.24 606.00,400.18 607.00,400.24M 607.00,400.24 C 608.00,400.32 607.00,400.24 608.00,400.32M 608.00,400.32 C 609.00,400.40 608.00,400.32 609.00,400.40M 609.00,400.40 C 610.00,400.50 609.00,400.40 610.00,400.50M 610.00,400.50 C 611.00,400.60 610.00,400.50 611.00,400.60M 611.00,400.60 C 612.00,400.72 611.00,400.60 612.00,400.72M 612.00,400.72 C 613.00,400.84 612.00,400.72 613.00,400.84M 613.00,400.84 C 614.00,400.98 613.00,400.84 614.00,400.98M 614.00,400.98 C 615.00,401.12 614.00,400.98 615.00,401.12M 615.00,401.12 C 616.00,401.28 615.00,401.12 616.00,401.28M 616.00,401.28 C 617.00,401.44 616.00,401.28 617.00,401.44M 617.00,401.44 C 618.00,401.62 617.00,401.44 618.00,401.62M 618.00,401.62 C 619.00,401.80 618.00,401.62 619.00,401.80M 619.00,401.80 C 620.00,401.99 619.00,401.80 620.00,401.99M 620.00,401.99 C 621.00,402.20 620.00,401.99 621.00,402.20M 621.00,402.20 C 622.00,402.41 621.00,402.20 622.00,402.41M 622.00,402.41 C 623.00,402.63 622.00,402.41 623.00,402.63M 623.00,402.63 C 624.00,402.87 623.00,402.63 624.00,402.87M 624.00,402.87 C 625.00,403.11 624.00,402.87 625.00,403.11M 625.00,403.11 C 626.00,403.36 625.00,403.11 626.00,403.36M 626.00,403.36 C 627.00,403.62 626.00,403.36 627.00,403.62M 627.00,403.62 C 628.00,403.89 627.00,403.62 628.00,403.89M 628.00,403.89 C 629.00,404.18 628.00,403.89 629.00,404.18M 629.00,404.18 C 630.00,404.47 629.00,404.18 630.00,404.47M 630.00,404.47 C 631.00,404.77 630.00,404.47 631.00,404.77M 631.00,404.77 C 632.00,405.08 631.00,404.77 632.00,405.08M 632.00,405.08 C 633.00,405.40 632.00,405.08 633.00,405.40M 633.00,405.40 C 634.00,405.72 633.00,405.40 634.00,405.72M 634.00,405.72 C 635.00,406.06 634.00,405.72 635.00,406.06M 635.00,406.06 C 636.00,406.41 635.00,406.06 636.00,406.41M 636.00,406.41 C 637.00,406.77 636.00,406.41 637.00,406.77M 637.00,406.77 C 638.00,407.13 637.00,406.77 638.00,407.13M 638.00,407.13 C 639.00,407.51 638.00,407.13 639.00,407.51M 639.00,407.51 C 640.00,407.89 639.00,407.51 640.00,407.89M 640.00,407.89 C 641.00,408.29 640.00,407.89 641.00,408.29M 641.00,408.29 C 642.00,408.69 641.00,408.29 642.00,408.69M 642.00,408.69 C 643.00,409.10 642.00,408.69 643.00,409.10M 643.00,409.10 C 644.00,409.52 643.00,409.10 644.00,409.52M 644.00,409.52 C 645.00,409.96 644.00,409.52 645.00,409.96M 645.00,409.96 C 646.00,410.39 645.00,409.96 646.00,410.39M 646.00,410.39 C 647.00,410.84 646.00,410.39 647.00,410.84M 647.00,410.84 C 648.00,411.30 647.00,410.84 648.00,411.30M 648.00,411.30 C 649.00,411.77 648.00,411.30 649.00,411.77M 649.00,411.77 C 650.00,412.24 649.00,411.77 650.00,412.24M 650.00,412.24 C 651.00,412.73 650.00,412.24 651.00,412.73M 651.00,412.73 C 652.00,413.22 651.00,412.73 652.00,413.22M 652.00,413.22 C 653.00,413.72 652.00,413.22 653.00,413.72M 653.00,413.72 C 654.00,414.23 653.00,413.72 654.00,414.23M 654.00,414.23 C 655.00,414.75 654.00,414.23 655.00,414.75M 655.00,414.75 C 656.00,415.27 655.00,414.75 656.00,415.27M 656.00,415.27 C 657.00,415.81 656.00,415.27 657.00,415.81M 657.00,415.81 C 658.00,416.35 657.00,415.81 658.00,416.35M 658.00,416.35 C 659.00,416.91 658.00,416.35 659.00,416.91M 659.00,416.91 C 660.00,417.47 659.00,416.91 660.00,417.47M 660.00,417.47 C 661.00,418.04 660.00,417.47 661.00,418.04M 661.00,418.04 C 662.00,418.61 661.00,418.04 662.00,418.61M 662.00,418.61 C 663.00,419.20 662.00,418.61 663.00,419.20M 663.00,419.20 C 664.00,419.79 663.00,419.20 664.00,419.79M 664.00,419.79 C 665.00,420.39 664.00,419.79 665.00,420.39M 665.00,420.39 C 666.00,421.00 665.00,420.39 666.00,421.00M 666.00,421.00 C 667.00,421.62 666.00,421.00 667.00,421.62M 667.00,421.62 C 668.00,422.24 667.00,421.62 668.00,422.24M 668.00,422.24 C 669.00,422.88 668.00,422.24 669.00,422.88M 669.00,422.88 C 670.00,423.52 669.00,422.88 670.00,423.52M 670.00,423.52 C 671.00,424.16 670.00,423.52 671.00,424.16M 671.00,424.16 C 672.00,424.82 671.00,424.16 672.00,424.82M 672.00,424.82 C 673.00,425.48 672.00,424.82 673.00,425.48M 673.00,425.48 C 674.00,426.15 673.00,425.48 674.00,426.15M 674.00,426.15 C 675.00,426.83 674.00,426.15 675.00,426.83M 675.00,426.83 C 676.00,427.52 675.00,426.83 676.00,427.52M 676.00,427.52 C 677.00,428.21 676.00,427.52 677.00,428.21M 677.00,428.21 C 678.00,428.91 677.00,428.21 678.00,428.91M 678.00,428.91 C 679.00,429.62 678.00,428.91 679.00,429.62M 679.00,429.62 C 680.00,430.33 679.00,429.62 680.00,430.33M 680.00,430.33 C 681.00,431.05 680.00,430.33 681.00,431.05M 681.00,431.05 C 682.00,431.78 681.00,431.05 682.00,431.78M 682.00,431.78 C 683.00,432.51 682.00,431.78 683.00,432.51M 683.00,432.51 C 684.00,433.25 683.00,432.51 684.00,433.25M 684.00,433.25 C 685.00,434.00 684.00,433.25 685.00,434.00M 685.00,434.00 C 686.00,434.76 685.00,434.00 686.00,434.76M 686.00,434.76 C 687.00,435.52 686.00,434.76 687.00,435.52M 687.00,435.52 C 688.00,436.28 687.00,435.52 688.00,436.28M 688.00,436.28 C 689.00,437.06 688.00,436.28 689.00,437.06M 689.00,437.06 C 690.00,437.84 689.00,437.06 690.00,437.84M 690.00,437.84 C 691.00,438.63 690.00,437.84 691.00,438.63M 691.00,438.63 C 692.00,439.42 691.00,438.63 692.00,439.42M 692.00,439.42 C 693.00,440.22 692.00,439.42 693.00,440.22M 693.00,440.22 C 694.00,441.02 693.00,440.22 694.00,441.02M 694.00,441.02 C 695.00,441.83 694.00,441.02 695.00,441.83M 695.00,441.83 C 696.00,442.65 695.00,441.83 696.00,442.65M 696.00,442.65 C 697.00,443.47 696.00,442.65 697.00,443.47M 697.00,443.47 C 698.00,444.30 697.00,443.47 698.00,444.30M 698.00,444.30 C 699.00,445.13 698.00,444.30 699.00,445.13M 699.00,445.13 C 700.00,445.97 699.00,445.13 700.00,445.97M 700.00,445.97 C 701.00,446.81 700.00,445.97 701.00,446.81M 701.00,446.81 C 702.00,447.66 701.00,446.81 702.00,447.66M 702.00,447.66 C 703.00,448.52 702.00,447.66 703.00,448.52M 703.00,448.52 C 704.00,449.38 703.00,448.52 704.00,449.38M 704.00,449.38 C 705.00,450.24 704.00,449.38 705.00,450.24M 705.00,450.24 C 706.00,451.11 705.00,450.24 706.00,451.11M 706.00,451.11 C 707.00,451.99 706.00,451.11 707.00,451.99M 707.00,451.99 C 708.00,452.87 707.00,451.99 708.00,452.87M 708.00,452.87 C 709.00,453.75 708.00,452.87 709.00,453.75M 709.00,453.75 C 710.00,454.64 709.00,453.75 710.00,454.64M 710.00,454.64 C 711.00,455.53 710.00,454.64 711.00,455.53M 711.00,455.53 C 712.00,456.43 711.00,455.53 712.00,456.43M 712.00,456.43 C 713.00,457.33 712.00,456.43 713.00,457.33M 713.00,457.33 C 714.00,458.24 713.00,457.33 714.00,458.24M 714.00,458.24 C 715.00,459.15 714.00,458.24 715.00,459.15M 715.00,459.15 C 716.00,460.07 715.00,459.15 716.00,460.07M 716.00,460.07 C 717.00,460.98 716.00,460.07 717.00,460.98M 717.00,460.98 C 718.00,461.91 717.00,460.98 718.00,461.91M 718.00,461.91 C 719.00,462.83 718.00,461.91 719.00,462.83M 719.00,462.83 C 720.00,463.76 719.00,462.83 720.00,463.76M 720.00,463.76 C 721.00,464.70 720.00,463.76 721.00,464.70M 721.00,464.70 C 722.00,465.64 721.00,464.70 722.00,465.64M 722.00,465.64 C 723.00,466.58 722.00,465.64 723.00,466.58M 723.00,466.58 C 724.00,467.52 723.00,466.58 724.00,467.52M 724.00,467.52 C 725.00,468.47 724.00,467.52 725.00,468.47M 725.00,468.47 C 726.00,469.42 725.00,468.47 726.00,469.42M 726.00,469.42 C 727.00,470.37 726.00,469.42 727.00,470.37M 727.00,470.37 C 728.00,471.33 727.00,470.37 728.00,471.33M 728.00,471.33 C 729.00,472.29 728.00,471.33 729.00,472.29M 729.00,472.29 C 730.00,473.25 729.00,472.29 730.00,473.25M 730.00,473.25 C 731.00,474.21 730.00,473.25 731.00,474.21M 731.00,474.21 C 732.00,475.18 731.00,474.21 732.00,475.18M 732.00,475.18 C 733.00,476.15 732.00,475.18 733.00,476.15M 733.00,476.15 C 734.00,477.12 733.00,476.15 734.00,477.12M 734.00,477.12 C 735.00,478.10 734.00,477.12 735.00,478.10M 735.00,478.10 C 736.00,479.08 735.00,478.10 736.00,479.08M 736.00,479.08 C 737.00,480.06 736.00,479.08 737.00,480.06M 737.00,480.06 C 738.00,481.04 737.00,480.06 738.00,481.04M 738.00,481.04 C 739.00,482.02 738.00,481.04 739.00,482.02M 739.00,482.02 C 740.00,483.00 739.00,482.02 740.00,483.00M 740.00,483.00 C 741.00,483.99 740.00,483.00 741.00,483.99M 741.00,483.99 C 742.00,484.98 741.00,483.99 742.00,484.98M 742.00,484.98 C 743.00,485.97 742.00,484.98 743.00,485.97M 743.00,485.97 C 744.00,486.96 743.00,485.97 744.00,486.96M 744.00,486.96 C 745.00,487.95 744.00,486.96 745.00,487.95M 745.00,487.95 C 746.00,488.94 745.00,487.95 746.00,488.94M 746.00,488.94 C 747.00,489.94 746.00,488.94 747.00,489.94M 747.00,489.94 C 748.00,490.93 747.00,489.94 748.00,490.93M 748.00,490.93 C 749.00,491.93 748.00,490.93 749.00,491.93M 749.00,491.93 C 750.00,492.93 749.00,491.93 750.00,492.93M 750.00,492.93 C 751.00,493.92 750.00,492.93 751.00,493.92M 751.00,493.92 C 752.00,494.92 751.00,493.92 752.00,494.92M 752.00,494.92 C 753.00,495.92 752.00,494.92 753.00,495.92M 753.00,495.92 C 754.00,496.92 753.00,495.92 754.00,496.92M 754.00,496.92 C 755.00,497.92 754.00,496.92 755.00,497.92M 755.00,497.92 C 756.00,498.92 755.00,497.92 756.00,498.92M 756.00,498.92 C 757.00,499.92 756.00,498.92 757.00,499.92M 757.00,499.92 C 758.00,500.92 757.00,499.92 758.00,500.92M 758.00,500.92 C 759.00,501.92 758.00,500.92 759.00,501.92M 759.00,501.92 C 760.00,502.92 759.00,501.92 760.00,502.92M 760.00,502.92 C 761.00,503.92 760.00,502.92 761.00,503.92M 761.00,503.92 C 762.00,504.92 761.00,503.92 762.00,504.92M 762.00,504.92 C 763.00,505.92 762.00,504.92 763.00,505.92M 763.00,505.92 C 764.00,506.91 763.00,505.92 764.00,506.91M 764.00,506.91 C 765.00,507.91 764.00,506.91 765.00,507.91M 765.00,507.91 C 766.00,508.91 765.00,507.91 766.00,508.91M 766.00,508.91 C 767.00,509.90 766.00,508.91 767.00,509.90M 767.00,509.90 C 768.00,510.90 767.00,509.90 768.00,510.90M 768.00,510.90 C 769.00,511.89 768.00,510.90 769.00,511.89M 769.00,511.89 C 770.00,512.88 769.00,511.89 770.00,512.88M 770.00,512.88 C 771.00,513.88 770.00,512.88 771.00,513.88M 771.00,513.88 C 772.00,514.87 771.00,513.88 772.00,514.87M 772.00,514.87 C 773.00,515.85 772.00,514.87 773.00,515.85M 773.00,515.85 C 774.00,516.84 773.00,515.85 774.00,516.84M 774.00,516.84 C 775.00,517.82 774.00,516.84 775.00,517.82M 775.00,517.82 C 776.00,518.81 775.00,517.82 776.00,518.81M 776.00,518.81 C 777.00,519.79 776.00,518.81 777.00,519.79M 777.00,519.79 C 778.00,520.77 777.00,519.79 778.00,520.77M 778.00,520.77 C 779.00,521.75 778.00,520.77 779.00,521.75M 779.00,521.75 C 780.00,522.72 779.00,521.75 780.00,522.72M 780.00,522.72 C 781.00,523.69 780.00,522.72 781.00,523.69M 781.00,523.69 C 782.00,524.66 781.00,523.69 782.00,524.66M 782.00,524.66 C 783.00,525.63 782.00,524.66 783.00,525.63M 783.00,525.63 C 784.00,526.60 783.00,525.63 784.00,526.60M 784.00,526.60 C 785.00,527.56 784.00,526.60 785.00,527.56M 785.00,527.56 C 786.00,528.52 785.00,527.56 786.00,528.52M 786.00,528.52 C 787.00,529.48 786.00,528.52 787.00,529.48M 787.00,529.48 C 788.00,530.43 787.00,529.48 788.00,530.43M 788.00,530.43 C 789.00,531.38 788.00,530.43 789.00,531.38M 789.00,531.38 C 790.00,532.33 789.00,531.38 790.00,532.33M 790.00,532.33 C 791.00,533.27 790.00,532.33 791.00,533.27M 791.00,533.27 C 792.00,534.21 791.00,533.27 792.00,534.21M 792.00,534.21 C 793.00,535.15 792.00,534.21 793.00,535.15M 793.00,535.15 C 794.00,536.09 793.00,535.15 794.00,536.09M 794.00,536.09 C 795.00,537.02 794.00,536.09 795.00,537.02M 795.00,537.02 C 796.00,537.95 795.00,537.02 796.00,537.95M 796.00,537.95 C 797.00,538.87 796.00,537.95 797.00,538.87M 797.00,538.87 C 798.00,539.79 797.00,538.87 798.00,539.79M 798.00,539.79 C 799.00,540.70 798.00,539.79 799.00,540.70M 799.00,540.70 C 800.00,541.61 799.00,540.70 800.00,541.61M 800.00,541.61 C 801.00,542.52 800.00,541.61 801.00,542.52M 801.00,542.52 C 802.00,543.42 801.00,542.52 802.00,543.42M 802.00,543.42 C 803.00,544.32 802.00,543.42 803.00,544.32M 803.00,544.32 C 804.00,545.22 803.00,544.32 804.00,545.22M 804.00,545.22 C 805.00,546.11 804.00,545.22 805.00,546.11M 805.00,546.11 C 806.00,546.99 805.00,546.11 806.00,546.99M 806.00,546.99 C 807.00,547.87 806.00,546.99 807.00,547.87M 807.00,547.87 C 808.00,548.75 807.00,547.87 808.00,548.75M 808.00,548.75 C 809.00,549.62 808.00,548.75 809.00,549.62M 809.00,549.62 C 810.00,550.48 809.00,549.62 810.00,550.48M 810.00,550.48 C 811.00,551.35 810.00,550.48 811.00,551.35M 811.00,551.35 C 812.00,552.20 811.00,551.35 812.00,552.20M 812.00,552.20 C 813.00,553.05 812.00,552.20 813.00,553.05M 813.00,553.05 C 814.00,553.90 813.00,553.05 814.00,553.90M 814.00,553.90 C 815.00,554.74 814.00,553.90 815.00,554.74M 815.00,554.74 C 816.00,555.57 815.00,554.74 816.00,555.57M 816.00,555.57 C 817.00,556.40 816.00,555.57 817.00,556.40M 817.00,556.40 C 818.00,557.22 817.00,556.40 818.00,557.22M 818.00,557.22 C 819.00,558.04 818.00,557.22 819.00,558.04M 819.00,558.04 C 820.00,558.85 819.00,558.04 820.00,558.85M 820.00,558.85 C 821.00,559.66 820.00,558.85 821.00,559.66M 821.00,559.66 C 822.00,560.46 821.00,559.66 822.00,560.46M 822.00,560.46 C 823.00,561.25 822.00,560.46 823.00,561.25M 823.00,561.25 C 824.00,562.04 823.00,561.25 824.00,562.04M 824.00,562.04 C 825.00,562.82 824.00,562.04 825.00,562.82M 825.00,562.82 C 826.00,563.59 825.00,562.82 826.00,563.59M 826.00,563.59 C 827.00,564.36 826.00,563.59 827.00,564.36M 827.00,564.36 C 828.00,565.12 827.00,564.36 828.00,565.12M 828.00,565.12 C 829.00,565.88 828.00,565.12 829.00,565.88M 829.00,565.88 C 830.00,566.63 829.00,565.88 830.00,566.63M 830.00,566.63 C 831.00,567.37 830.00,566.63 831.00,567.37M 831.00,567.37 C 832.00,568.11 831.00,567.37 832.00,568.11M 832.00,568.11 C 833.00,568.83 832.00,568.11 833.00,568.83M 833.00,568.83 C 834.00,569.56 833.00,568.83 834.00,569.56M 834.00,569.56 C 835.00,570.27 834.00,569.56 835.00,570.27M 835.00,570.27 C 836.00,570.98 835.00,570.27 836.00,570.98M 836.00,570.98 C 837.00,571.68 836.00,570.98 837.00,571.68M 837.00,571.68 C 838.00,572.37 837.00,571.68 838.00,572.37M 838.00,572.37 C 839.00,573.06 838.00,572.37 839.00,573.06M 839.00,573.06 C 840.00,573.74 839.00,573.06 840.00,573.74M 840.00,573.74 C 841.00,574.41 840.00,573.74 841.00,574.41M 841.00,574.41 C 842.00,575.08 841.00,574.41 842.00,575.08M 842.00,575.08 C 843.00,575.73 842.00,575.08 843.00,575.73M 843.00,575.73 C 844.00,576.38 843.00,575.73 844.00,576.38M 844.00,576.38 C 845.00,577.02 844.00,576.38 845.00,577.02M 845.00,577.02 C 846.00,577.66 845.00,577.02 846.00,577.66M 846.00,577.66 C 847.00,578.28 846.00,577.66 847.00,578.28M 847.00,578.28 C 848.00,578.90 847.00,578.28 848.00,578.90M 848.00,578.90 C 849.00,579.51 848.00,578.90 849.00,579.51M 849.00,579.51 C 850.00,580.11 849.00,579.51 850.00,580.11M 850.00,580.11 C 851.00,580.71 850.00,580.11 851.00,580.71M 851.00,580.71 C 852.00,581.30 851.00,580.71 852.00,581.30M 852.00,581.30 C 853.00,581.87 852.00,581.30 853.00,581.87M 853.00,581.87 C 854.00,582.44 853.00,581.87 854.00,582.44M 854.00,582.44 C 855.00,583.01 854.00,582.44 855.00,583.01M 855.00,583.01 C 856.00,583.56 855.00,583.01 856.00,583.56M 856.00,583.56 C 857.00,584.10 856.00,583.56 857.00,584.10M 857.00,584.10 C 858.00,584.64 857.00,584.10 858.00,584.64M 858.00,584.64 C 859.00,585.17 858.00,584.64 859.00,585.17M 859.00,585.17 C 860.00,585.69 859.00,585.17 860.00,585.69M 860.00,585.69 C 861.00,586.20 860.00,585.69 861.00,586.20M 861.00,586.20 C 862.00,586.70 861.00,586.20 862.00,586.70M 862.00,586.70 C 863.00,587.20 862.00,586.70 863.00,587.20M 863.00,587.20 C 864.00,587.68 863.00,587.20 864.00,587.68M 864.00,587.68 C 865.00,588.16 864.00,587.68 865.00,588.16M 865.00,588.16 C 866.00,588.63 865.00,588.16 866.00,588.63M 866.00,588.63 C 867.00,589.08 866.00,588.63 867.00,589.08M 867.00,589.08 C 868.00,589.53 867.00,589.08 868.00,589.53M 868.00,589.53 C 869.00,589.98 868.00,589.53 869.00,589.98M 869.00,589.98 C 870.00,590.41 869.00,589.98 870.00,590.41M 870.00,590.41 C 871.00,590.83 870.00,590.41 871.00,590.83M 871.00,590.83 C 872.00,591.24 871.00,590.83 872.00,591.24M 872.00,591.24 C 873.00,591.65 872.00,591.24 873.00,591.65M 873.00,591.65 C 874.00,592.04 873.00,591.65 874.00,592.04M 874.00,592.04 C 875.00,592.43 874.00,592.04 875.00,592.43M 875.00,592.43 C 876.00,592.81 875.00,592.43 876.00,592.81M 876.00,592.81 C 877.00,593.18 876.00,592.81 877.00,593.18M 877.00,593.18 C 878.00,593.53 877.00,593.18 878.00,593.53M 878.00,593.53 C 879.00,593.88 878.00,593.53 879.00,593.88M 879.00,593.88 C 880.00,594.22 879.00,593.88 880.00,594.22M 880.00,594.22 C 881.00,594.55 880.00,594.22 881.00,594.55M 881.00,594.55 C 882.00,594.87 881.00,594.55 882.00,594.87M 882.00,594.87 C 883.00,595.18 882.00,594.87 883.00,595.18M 883.00,595.18 C 884.00,595.49 883.00,595.18 884.00,595.49M 884.00,595.49 C 885.00,595.78 884.00,595.49 885.00,595.78M 885.00,595.78 C 886.00,596.06 885.00,595.78 886.00,596.06M 886.00,596.06 C 887.00,596.33 886.00,596.06 887.00,596.33M 887.00,596.33 C 888.00,596.60 887.00,596.33 888.00,596.60M 888.00,596.60 C 889.00,596.85 888.00,596.60 889.00,596.85M 889.00,596.85 C 890.00,597.10 889.00,596.85 890.00,597.10M 890.00,597.10 C 891.00,597.33 890.00,597.10 891.00,597.33M 891.00,597.33 C 892.00,597.55 891.00,597.33 892.00,597.55M 892.00,597.55 C 893.00,597.77 892.00,597.55 893.00,597.77M 893.00,597.77 C 894.00,597.97 893.00,597.77 894.00,597.97M 894.00,597.97 C 895.00,598.17 894.00,597.97 895.00,598.17M 895.00,598.17 C 896.00,598.36 895.00,598.17 896.00,598.36M 896.00,598.36 C 897.00,598.53 896.00,598.36 897.00,598.53M 897.00,598.53 C 898.00,598.70 897.00,598.53 898.00,598.70M 898.00,598.70 C 899.00,598.85 898.00,598.70 899.00,598.85M 899.00,598.85 C 900.00,599.00 899.00,598.85 900.00,599.00M 900.00,599.00 C 901.00,599.14 900.00,599.00 901.00,599.14M 901.00,599.14 C 902.00,599.26 901.00,599.14 902.00,599.26M 902.00,599.26 C 903.00,599.38 902.00,599.26 903.00,599.38M 903.00,599.38 C 904.00,599.48 903.00,599.38 904.00,599.48M 904.00,599.48 C 905.00,599.58 904.00,599.48 905.00,599.58M 905.00,599.58 C 906.00,599.67 905.00,599.58 906.00,599.67M 906.00,599.67 C 907.00,599.74 906.00,599.67 907.00,599.74M 907.00,599.74 C 908.00,599.81 907.00,599.74 908.00,599.81M 908.00,599.81 C 909.00,599.87 908.00,599.81 909.00,599.87M 909.00,599.87 C 910.00,599.91 909.00,599.87 910.00,599.91M 910.00,599.91 C 911.00,599.95 910.00,599.91 911.00,599.95M 911.00,599.95 C 912.00,599.98 911.00,599.95 912.00,599.98M 912.00,599.98 C 913.00,599.99 912.00,599.98 913.00,599.99M 913.00,599.99 C 914.00,600.00 913.00,599.99 914.00,600.00M 914.00,600.00 C 915.00,600.00 914.00,600.00 915.00,600.00M 915.00,600.00 C 916.00,599.98 915.00,600.00 916.00,599.98M 916.00,599.98 C 917.00,599.96 916.00,599.98 917.00,599.96M 917.00,599.96 C 918.00,599.93 917.00,599.96 918.00,599.93M 918.00,599.93 C 919.00,599.88 918.00,599.93 919.00,599.88M 919.00,599.88 C 920.00,599.83 919.00,599.88 920.00,599.83M 920.00,599.83 C 921.00,599.77 920.00,599.83 921.00,599.77M 921.00,599.77 C 922.00,599.69 921.00,599.77 922.00,599.69M 922.00,599.69 C 923.00,599.61 922.00,599.69 923.00,599.61M 923.00,599.61 C 924.00,599.52 923.00,599.61 924.00,599.52M 924.00,599.52 C 925.00,599.41 924.00,599.52 925.00,599.41M 925.00,599.41 C 926.00,599.30 925.00,599.41 926.00,599.30M 926.00,599.30 C 927.00,599.18 926.00,599.30 927.00,599.18M 927.00,599.18 C 928.00,599.04 927.00,599.18 928.00,599.04M 928.00,599.04 C 929.00,598.90 928.00,599.04 929.00,598.90M 929.00,598.90 C 930.00,598.75 929.00,598.90 930.00,598.75M 930.00,598.75 C 931.00,598.59 930.00,598.75 931.00,598.59M 931.00,598.59 C 932.00,598.41 931.00,598.59 932.00,598.41M 932.00,598.41 C 933.00,598.23 932.00,598.41 933.00,598.23M 933.00,598.23 C 934.00,598.04 933.00,598.23 934.00,598.04M 934.00,598.04 C 935.00,597.84 934.00,598.04 935.00,597.84M 935.00,597.84 C 936.00,597.62 935.00,597.84 936.00,597.62M 936.00,597.62 C 937.00,597.40 936.00,597.62 937.00,597.40M 937.00,597.40 C 938.00,597.17 937.00,597.40 938.00,597.17M 938.00,597.17 C 939.00,596.93 938.00,597.17 939.00,596.93M 939.00,596.93 C 940.00,596.68 939.00,596.93 940.00,596.68M 940.00,596.68 C 941.00,596.42 940.00,596.68 941.00,596.42M 941.00,596.42 C 942.00,596.15 941.00,596.42 942.00,596.15M 942.00,596.15 C 943.00,595.87 942.00,596.15 943.00,595.87M 943.00,595.87 C 944.00,595.58 943.00,595.87 944.00,595.58M 944.00,595.58 C 945.00,595.28 944.00,595.58 945.00,595.28M 945.00,595.28 C 946.00,594.97 945.00,595.28 946.00,594.97M 946.00,594.97 C 947.00,594.66 946.00,594.97 947.00,594.66M 947.00,594.66 C 948.00,594.33 947.00,594.66 948.00,594.33M 948.00,594.33 C 949.00,593.99 948.00,594.33 949.00,593.99M 949.00,593.99 C 950.00,593.65 949.00,593.99 950.00,593.65M 950.00,593.65 C 951.00,593.29 950.00,593.65 951.00,593.29M 951.00,593.29 C 952.00,592.93 951.00,593.29 952.00,592.93M 952.00,592.93 C 953.00,592.55 952.00,592.93 953.00,592.55M 953.00,592.55 C 954.00,592.17 953.00,592.55 954.00,592.17M 954.00,592.17 C 955.00,591.78 954.00,592.17 955.00,591.78M 955.00,591.78 C 956.00,591.37 955.00,591.78 956.00,591.37M 956.00,591.37 C 957.00,590.96 956.00,591.37 957.00,590.96M 957.00,590.96 C 958.00,590.54 957.00,590.96 958.00,590.54M 958.00,590.54 C 959.00,590.11 958.00,590.54 959.00,590.11M 959.00,590.11 C 960.00,589.68 959.00,590.11 960.00,589.68M 960.00,589.68 C 961.00,589.23 960.00,589.68 961.00,589.23M 961.00,589.23 C 962.00,588.77 961.00,589.23 962.00,588.77M 962.00,588.77 C 963.00,588.31 962.00,588.77 963.00,588.31M 963.00,588.31 C 964.00,587.83 963.00,588.31 964.00,587.83M 964.00,587.83 C 965.00,587.35 964.00,587.83 965.00,587.35M 965.00,587.35 C 966.00,586.86 965.00,587.35 966.00,586.86M 966.00,586.86 C 967.00,586.36 966.00,586.86 967.00,586.36M 967.00,586.36 C 968.00,585.85 967.00,586.36 968.00,585.85M 968.00,585.85 C 969.00,585.34 968.00,585.85 969.00,585.34M 969.00,585.34 C 970.00,584.81 969.00,585.34 970.00,584.81M 970.00,584.81 C 971.00,584.28 970.00,584.81 971.00,584.28M 971.00,584.28 C 972.00,583.73 971.00,584.28 972.00,583.73M 972.00,583.73 C 973.00,583.18 972.00,583.73 973.00,583.18M 973.00,583.18 C 974.00,582.62 973.00,583.18 974.00,582.62M 974.00,582.62 C 975.00,582.06 974.00,582.62 975.00,582.06M 975.00,582.06 C 976.00,581.48 975.00,582.06 976.00,581.48M 976.00,581.48 C 977.00,580.90 976.00,581.48 977.00,580.90M 977.00,580.90 C 978.00,580.30 977.00,580.90 978.00,580.30M 978.00,580.30 C 979.00,579.70 978.00,580.30 979.00,579.70M 979.00,579.70 C 980.00,579.10 979.00,579.70 980.00,579.10M 980.00,579.10 C 981.00,578.48 980.00,579.10 981.00,578.48M 981.00,578.48 C 982.00,577.86 981.00,578.48 982.00,577.86M 982.00,577.86 C 983.00,577.23 982.00,577.86 983.00,577.23M 983.00,577.23 C 984.00,576.59 983.00,577.23 984.00,576.59M 984.00,576.59 C 985.00,575.94 984.00,576.59 985.00,575.94M 985.00,575.94 C 986.00,575.29 985.00,575.94 986.00,575.29M 986.00,575.29 C 987.00,574.62 986.00,575.29 987.00,574.62M 987.00,574.62 C 988.00,573.95 987.00,574.62 988.00,573.95M 988.00,573.95 C 989.00,573.28 988.00,573.95 989.00,573.28M 989.00,573.28 C 990.00,572.59 989.00,573.28 990.00,572.59M 990.00,572.59 C 991.00,571.90 990.00,572.59 991.00,571.90M 991.00,571.90 C 992.00,571.20 991.00,571.90 992.00,571.20M 992.00,571.20 C 993.00,570.50 992.00,571.20 993.00,570.50M 993.00,570.50 C 994.00,569.78 993.00,570.50 994.00,569.78M 994.00,569.78 C 995.00,569.07 994.00,569.78 995.00,569.07M 995.00,569.07 C 996.00,568.34 995.00,569.07 996.00,568.34M 996.00,568.34 C 997.00,567.61 996.00,568.34 997.00,567.61M 997.00,567.61 C 998.00,566.86 997.00,567.61 998.00,566.86M 998.00,566.86 C 999.00,566.12 998.00,566.86 999.00,566.12M 999.00,566.12 C 1000.00,565.36 999.00,566.12 1000.00,565.36M 1000.00,565.36 C 1001.00,564.60 1000.00,565.36 1001.00,564.60M 1001.00,564.60 C 1002.00,563.84 1001.00,564.60 1002.00,563.84M 1002.00,563.84 C 1003.00,563.06 1002.00,563.84 1003.00,563.06M 1003.00,563.06 C 1004.00,562.29 1003.00,563.06 1004.00,562.29M 1004.00,562.29 C 1005.00,561.50 1004.00,562.29 1005.00,561.50M 1005.00,561.50 C 1006.00,560.71 1005.00,561.50 1006.00,560.71M 1006.00,560.71 C 1007.00,559.91 1006.00,560.71 1007.00,559.91M 1007.00,559.91 C 1008.00,559.11 1007.00,559.91 1008.00,559.11M 1008.00,559.11 C 1009.00,558.30 1008.00,559.11 1009.00,558.30M 1009.00,558.30 C 1010.00,557.48 1009.00,558.30 1010.00,557.48M 1010.00,557.48 C 1011.00,556.66 1010.00,557.48 1011.00,556.66M 1011.00,556.66 C 1012.00,555.83 1011.00,556.66 1012.00,555.83M 1012.00,555.83 C 1013.00,555.00 1012.00,555.83 1013.00,555.00M 1013.00,555.00 C 1014.00,554.16 1013.00,555.00 1014.00,554.16M 1014.00,554.16 C 1015.00,553.32 1014.00,554.16 1015.00,553.32M 1015.00,553.32 C 1016.00,552.47 1015.00,553.32 1016.00,552.47M 1016.00,552.47 C 1017.00,551.62 1016.00,552.47 1017.00,551.62M 1017.00,551.62 C 1018.00,550.76 1017.00,551.62 1018.00,550.76M 1018.00,550.76 C 1019.00,549.90 1018.00,550.76 1019.00,549.90M 1019.00,549.90 C 1020.00,549.03 1019.00,549.90 1020.00,549.03M 1020.00,549.03 C 1021.00,548.15 1020.00,549.03 1021.00,548.15M 1021.00,548.15 C 1022.00,547.27 1021.00,548.15 1022.00,547.27M 1022.00,547.27 C 1023.00,546.39 1022.00,547.27 1023.00,546.39M 1023.00,546.39 C 1024.00,545.50 1023.00,546.39 1024.00,545.50M 1024.00,545.50 C 1025.00,544.61 1024.00,545.50 1025.00,544.61M 1025.00,544.61 C 1026.00,543.71 1025.00,544.61 1026.00,543.71M 1026.00,543.71 C 1027.00,542.81 1026.00,543.71 1027.00,542.81M 1027.00,542.81 C 1028.00,541.90 1027.00,542.81 1028.00,541.90M 1028.00,541.90 C 1029.00,540.99 1028.00,541.90 1029.00,540.99M 1029.00,540.99 C 1030.00,540.08 1029.00,540.99 1030.00,540.08M 1030.00,540.08 C 1031.00,539.16 1030.00,540.08 1031.00,539.16M 1031.00,539.16 C 1032.00,538.24 1031.00,539.16 1032.00,538.24M 1032.00,538.24 C 1033.00,537.31 1032.00,538.24 1033.00,537.31M 1033.00,537.31 C 1034.00,536.38 1033.00,537.31 1034.00,536.38M 1034.00,536.38 C 1035.00,535.45 1034.00,536.38 1035.00,535.45M 1035.00,535.45 C 1036.00,534.51 1035.00,535.45 1036.00,534.51M 1036.00,534.51 C 1037.00,533.57 1036.00,534.51 1037.00,533.57M 1037.00,533.57 C 1038.00,532.63 1037.00,533.57 1038.00,532.63M 1038.00,532.63 C 1039.00,531.68 1038.00,532.63 1039.00,531.68M 1039.00,531.68 C 1040.00,530.73 1039.00,531.68 1040.00,530.73M 1040.00,530.73 C 1041.00,529.78 1040.00,530.73 1041.00,529.78M 1041.00,529.78 C 1042.00,528.82 1041.00,529.78 1042.00,528.82M 1042.00,528.82 C 1043.00,527.87 1042.00,528.82 1043.00,527.87M 1043.00,527.87 C 1044.00,526.90 1043.00,527.87 1044.00,526.90M 1044.00,526.90 C 1045.00,525.94 1044.00,526.90 1045.00,525.94M 1045.00,525.94 C 1046.00,524.97 1045.00,525.94 1046.00,524.97M 1046.00,524.97 C 1047.00,524.00 1046.00,524.97 1047.00,524.00M 1047.00,524.00 C 1048.00,523.03 1047.00,524.00 1048.00,523.03M 1048.00,523.03 C 1049.00,522.06 1048.00,523.03 1049.00,522.06M 1049.00,522.06 C 1050.00,521.08 1049.00,522.06 1050.00,521.08M 1050.00,521.08 C 1051.00,520.10 1050.00,521.08 1051.00,520.10M 1051.00,520.10 C 1052.00,519.12 1051.00,520.10 1052.00,519.12M 1052.00,519.12 C 1053.00,518.14 1052.00,519.12 1053.00,518.14M 1053.00,518.14 C 1054.00,517.15 1053.00,518.14 1054.00,517.15M 1054.00,517.15 C 1055.00,516.17 1054.00,517.15 1055.00,516.17M 1055.00,516.17 C 1056.00,515.18 1055.00,516.17 1056.00,515.18M 1056.00,515.18 C 1057.00,514.19 1056.00,515.18 1057.00,514.19M 1057.00,514.19 C 1058.00,513.20 1057.00,514.19 1058.00,513.20M 1058.00,513.20 C 1059.00,512.21 1058.00,513.20 1059.00,512.21M 1059.00,512.21 C 1060.00,511.22 1059.00,512.21 1060.00,511.22M 1060.00,511.22 C 1061.00,510.22 1060.00,511.22 1061.00,510.22M 1061.00,510.22 C 1062.00,509.23 1061.00,510.22 1062.00,509.23M 1062.00,509.23 C 1063.00,508.23 1062.00,509.23 1063.00,508.23M 1063.00,508.23 C 1064.00,507.23 1063.00,508.23 1064.00,507.23M 1064.00,507.23 C 1065.00,506.23 1064.00,507.23 1065.00,506.23M 1065.00,506.23 C 1066.00,505.24 1065.00,506.23 1066.00,505.24M 1066.00,505.24 C 1067.00,504.24 1066.00,505.24 1067.00,504.24M 1067.00,504.24 C 1068.00,503.24 1067.00,504.24 1068.00,503.24M 1068.00,503.24 C 1069.00,502.24 1068.00,503.24 1069.00,502.24M 1069.00,502.24 C 1070.00,501.24 1069.00,502.24 1070.00,501.24M 1070.00,501.24 C 1071.00,500.24 1070.00,501.24 1071.00,500.24M 1071.00,500.24 C 1072.00,499.24 1071.00,500.24 1072.00,499.24M 1072.00,499.24 C 1073.00,498.24 1072.00,499.24 1073.00,498.24M 1073.00,498.24 C 1074.00,497.24 1073.00,498.24 1074.00,497.24M 1074.00,497.24 C 1075.00,496.24 1074.00,497.24 1075.00,496.24M 1075.00,496.24 C 1076.00,495.24 1075.00,496.24 1076.00,495.24M 1076.00,495.24 C 1077.00,494.24 1076.00,495.24 1077.00,494.24M 1077.00,494.24 C 1078.00,493.24 1077.00,494.24 1078.00,493.24M 1078.00,493.24 C 1079.00,492.25 1078.00,493.24 1079.00,492.25M 1079.00,492.25 C 1080.00,491.25 1079.00,492.25 1080.00,491.25M 1080.00,491.25 C 1081.00,490.25 1080.00,491.25 1081.00,490.25M 1081.00,490.25 C 1082.00,489.26 1081.00,490.25 1082.00,489.26M 1082.00,489.26 C 1083.00,488.27 1082.00,489.26 1083.00,488.27M 1083.00,488.27 C 1084.00,487.27 1083.00,488.27 1084.00,487.27M 1084.00,487.27 C 1085.00,486.28 1084.00,487.27 1085.00,486.28M 1085.00,486.28 C 1086.00,485.29 1085.00,486.28 1086.00,485.29M 1086.00,485.29 C 1087.00,484.30 1086.00,485.29 1087.00,484.30M 1087.00,484.30 C 1088.00,483.32 1087.00,484.30 1088.00,483.32M 1088.00,483.32 C 1089.00,482.33 1088.00,483.32 1089.00,482.33M 1089.00,482.33 C 1090.00,481.35 1089.00,482.33 1090.00,481.35M 1090.00,481.35 C 1091.00,480.37 1090.00,481.35 1091.00,480.37M 1091.00,480.37 C 1092.00,479.39 1091.00,480.37 1092.00,479.39M 1092.00,479.39 C 1093.00,478.41 1092.00,479.39 1093.00,478.41M 1093.00,478.41 C 1094.00,477.43 1093.00,478.41 1094.00,477.43M 1094.00,477.43 C 1095.00,476.46 1094.00,477.43 1095.00,476.46M 1095.00,476.46 C 1096.00,475.49 1095.00,476.46 1096.00,475.49M 1096.00,475.49 C 1097.00,474.52 1096.00,475.49 1097.00,474.52M 1097.00,474.52 C 1098.00,473.56 1097.00,474.52 1098.00,473.56M 1098.00,473.56 C 1099.00,472.59 1098.00,473.56 1099.00,472.59M 1099.00,472.59 C 1100.00,471.63 1099.00,472.59 1100.00,471.63M 1100.00,471.63 C 1101.00,470.68 1100.00,471.63 1101.00,470.68M 1101.00,470.68 C 1102.00,469.72 1101.00,470.68 1102.00,469.72M 1102.00,469.72 C 1103.00,468.77 1102.00,469.72 1103.00,468.77M 1103.00,468.77 C 1104.00,467.82 1103.00,468.77 1104.00,467.82M 1104.00,467.82 C 1105.00,466.88 1104.00,467.82 1105.00,466.88M 1105.00,466.88 C 1106.00,465.93 1105.00,466.88 1106.00,465.93M 1106.00,465.93 C 1107.00,465.00 1106.00,465.93 1107.00,465.00M 1107.00,465.00 C 1108.00,464.06 1107.00,465.00 1108.00,464.06M 1108.00,464.06 C 1109.00,463.13 1108.00,464.06 1109.00,463.13M 1109.00,463.13 C 1110.00,462.20 1109.00,463.13 1110.00,462.20M 1110.00,462.20 C 1111.00,461.28 1110.00,462.20 1111.00,461.28M 1111.00,461.28 C 1112.00,460.36 1111.00,461.28 1112.00,460.36M 1112.00,460.36 C 1113.00,459.44 1112.00,460.36 1113.00,459.44M 1113.00,459.44 C 1114.00,458.53 1113.00,459.44 1114.00,458.53M 1114.00,458.53 C 1115.00,457.62 1114.00,458.53 1115.00,457.62M 1115.00,457.62 C 1116.00,456.72 1115.00,457.62 1116.00,456.72M 1116.00,456.72 C 1117.00,455.82 1116.00,456.72 1117.00,455.82M 1117.00,455.82 C 1118.00,454.92 1117.00,455.82 1118.00,454.92M 1118.00,454.92 C 1119.00,454.03 1118.00,454.92 1119.00,454.03M 1119.00,454.03 C 1120.00,453.15 1119.00,454.03 1120.00,453.15M 1120.00,453.15 C 1121.00,452.27 1120.00,453.15 1121.00,452.27M 1121.00,452.27 C 1122.00,451.39 1121.00,452.27 1122.00,451.39M 1122.00,451.39 C 1123.00,450.52 1122.00,451.39 1123.00,450.52M 1123.00,450.52 C 1124.00,449.65 1123.00,450.52 1124.00,449.65M 1124.00,449.65 C 1125.00,448.79 1124.00,449.65 1125.00,448.79M 1125.00,448.79 C 1126.00,447.94 1125.00,448.79 1126.00,447.94M 1126.00,447.94 C 1127.00,447.08 1126.00,447.94 1127.00,447.08M 1127.00,447.08 C 1128.00,446.24 1127.00,447.08 1128.00,446.24M 1128.00,446.24 C 1129.00,445.40 1128.00,446.24 1129.00,445.40M 1129.00,445.40 C 1130.00,444.56 1129.00,445.40 1130.00,444.56M 1130.00,444.56 C 1131.00,443.73 1130.00,444.56 1131.00,443.73M 1131.00,443.73 C 1132.00,442.91 1131.00,443.73 1132.00,442.91M 1132.00,442.91 C 1133.00,442.09 1132.00,442.91 1133.00,442.09M 1133.00,442.09 C 1134.00,441.28 1133.00,442.09 1134.00,441.28M 1134.00,441.28 C 1135.00,440.47 1134.00,441.28 1135.00,440.47M 1135.00,440.47 C 1136.00,439.67 1135.00,440.47 1136.00,439.67M 1136.00,439.67 C 1137.00,438.88 1136.00,439.67 1137.00,438.88M 1137.00,438.88 C 1138.00,438.09 1137.00,438.88 1138.00,438.09M 1138.00,438.09 C 1139.00,437.31 1138.00,438.09 1139.00,437.31M 1139.00,437.31 C 1140.00,436.53 1139.00,437.31 1140.00,436.53M 1140.00,436.53 C 1141.00,435.76 1140.00,436.53 1141.00,435.76M 1141.00,435.76 C 1142.00,435.00 1141.00,435.76 1142.00,435.00M 1142.00,435.00 C 1143.00,434.24 1142.00,435.00 1143.00,434.24M 1143.00,434.24 C 1144.00,433.49 1143.00,434.24 1144.00,433.49M 1144.00,433.49 C 1145.00,432.75 1144.00,433.49 1145.00,432.75M 1145.00,432.75 C 1146.00,432.01 1145.00,432.75 1146.00,432.01M 1146.00,432.01 C 1147.00,431.28 1146.00,432.01 1147.00,431.28M 1147.00,431.28 C 1148.00,430.56 1147.00,431.28 1148.00,430.56M 1148.00,430.56 C 1149.00,429.84 1148.00,430.56 1149.00,429.84M 1149.00,429.84 C 1150.00,429.13 1149.00,429.84 1150.00,429.13M 1150.00,429.13 C 1151.00,428.43 1150.00,429.13 1151.00,428.43M 1151.00,428.43 C 1152.00,427.74 1151.00,428.43 1152.00,427.74M 1152.00,427.74 C 1153.00,427.05 1152.00,427.74 1153.00,427.05M 1153.00,427.05 C 1154.00,426.37 1153.00,427.05 1154.00,426.37M 1154.00,426.37 C 1155.00,425.70 1154.00,426.37 1155.00,425.70M 1155.00,425.70 C 1156.00,425.03 1155.00,425.70 1156.00,425.03M 1156.00,425.03 C 1157.00,424.37 1156.00,425.03 1157.00,424.37M 1157.00,424.37 C 1158.00,423.72 1157.00,424.37 1158.00,423.72M 1158.00,423.72 C 1159.00,423.08 1158.00,423.72 1159.00,423.08M 1159.00,423.08 C 1160.00,422.44 1159.00,423.08 1160.00,422.44M 1160.00,422.44 C 1161.00,421.82 1160.00,422.44 1161.00,421.82M 1161.00,421.82 C 1162.00,421.20 1161.00,421.82 1162.00,421.20M 1162.00,421.20 C 1163.00,420.58 1162.00,421.20 1163.00,420.58M 1163.00,420.58 C 1164.00,419.98 1163.00,420.58 1164.00,419.98M 1164.00,419.98 C 1165.00,419.39 1164.00,419.98 1165.00,419.39M 1165.00,419.39 C 1166.00,418.80 1165.00,419.39 1166.00,418.80M 1166.00,418.80 C 1167.00,418.22 1166.00,418.80 1167.00,418.22M 1167.00,418.22 C 1168.00,417.65 1167.00,418.22 1168.00,417.65M 1168.00,417.65 C 1169.00,417.08 1168.00,417.65 1169.00,417.08M 1169.00,417.08 C 1170.00,416.53 1169.00,417.08 1170.00,416.53M 1170.00,416.53 C 1171.00,415.98 1170.00,416.53 1171.00,415.98M 1171.00,415.98 C 1172.00,415.44 1171.00,415.98 1172.00,415.44M 1172.00,415.44 C 1173.00,414.91 1172.00,415.44 1173.00,414.91M 1173.00,414.91 C 1174.00,414.39 1173.00,414.91 1174.00,414.39M 1174.00,414.39 C 1175.00,413.88 1174.00,414.39 1175.00,413.88M 1175.00,413.88 C 1176.00,413.38 1175.00,413.88 1176.00,413.38M 1176.00,413.38 C 1177.00,412.88 1176.00,413.38 1177.00,412.88M 1177.00,412.88 C 1178.00,412.39 1177.00,412.88 1178.00,412.39M 1178.00,412.39 C 1179.00,411.92 1178.00,412.39 1179.00,411.92M 1179.00,411.92 C 1180.00,411.45 1179.00,411.92 1180.00,411.45M 1180.00,411.45 C 1181.00,410.99 1180.00,411.45 1181.00,410.99M 1181.00,410.99 C 1182.00,410.54 1181.00,410.99 1182.00,410.54M 1182.00,410.54 C 1183.00,410.09 1182.00,410.54 1183.00,410.09M 1183.00,410.09 C 1184.00,409.66 1183.00,410.09 1184.00,409.66M 1184.00,409.66 C 1185.00,409.24 1184.00,409.66 1185.00,409.24M 1185.00,409.24 C 1186.00,408.82 1185.00,409.24 1186.00,408.82M 1186.00,408.82 C 1187.00,408.42 1186.00,408.82 1187.00,408.42M 1187.00,408.42 C 1188.00,408.02 1187.00,408.42 1188.00,408.02M 1188.00,408.02 C 1189.00,407.63 1188.00,408.02 1189.00,407.63M 1189.00,407.63 C 1190.00,407.25 1189.00,407.63 1190.00,407.25M 1190.00,407.25 C 1191.00,406.88 1190.00,407.25 1191.00,406.88M 1191.00,406.88 C 1192.00,406.52 1191.00,406.88 1192.00,406.52M 1192.00,406.52 C 1193.00,406.17 1192.00,406.52 1193.00,406.17M 1193.00,406.17 C 1194.00,405.83 1193.00,406.17 1194.00,405.83M 1194.00,405.83 C 1195.00,405.50 1194.00,405.83 1195.00,405.50M 1195.00,405.50 C 1196.00,405.18 1195.00,405.50 1196.00,405.18M 1196.00,405.18 C 1197.00,404.86 1196.00,405.18 1197.00,404.86M 1197.00,404.86 C 1198.00,404.56 1197.00,404.86 1198.00,404.56M 1198.00,404.56 C 1199.00,404.27 1198.00,404.56 1199.00,404.27" stroke="black" fill="none" stroke-width="2"/>
</svg>
