<?xml version="1.0" encoding="UTF-8"?>
<svg width="1200" height="1000" xmlns="http://www.w3.org/2000/svg">
  <path d="M 0.00,104.79 C 0.02,105.79 0.98,101.20 1.00,102.20M 1.00,102.20 C 1.02,103.20 1.95,99.60 2.00,100.60M 2.00,100.60 C 2.05,101.60 2.54,99.12 3.00,100.00M 3.00,100.00 C 3.46,100.89 3.94,101.41 4.00,100.41M 4.00,100.41 C 4.06,99.41 4.97,102.81 5.00,101.81M 5.00,101.81 C 5.03,100.81 5.98,105.21 6.00,104.21M 6.00,104.21 C 6.02,103.21 6.99,108.59 7.00,107.59M 7.00,107.59 C 7.01,106.59 7.99,112.96 8.00,111.96M 8.00,111.96 C 8.01,110.96 8.99,118.29 9.00,117.29M 9.00,117.29 C 9.01,116.29 9.99,124.59 10.00,123.59M 10.00,123.59 C 10.01,122.59 10.99,131.82 11.00,130.82M 11.00,130.82 C 11.01,129.82 11.99,139.98 12.00,138.98M 12.00,138.98 C 12.01,137.98 12.99,149.04 13.00,148.04M 13.00,148.04 C 13.01,147.04 14.00,158.98 14.00,157.98M 14.00,157.98 C 14.00,156.98 15.00,169.77 15.00,168.77M 15.00,168.77 C 15.00,167.77 16.00,181.39 16.00,180.39M 16.00,180.39 C 16.00,179.39 17.00,193.81 17.00,192.81M 17.00,192.81 C 17.00,191.81 18.00,207.00 18.00,206.00M 18.00,206.00 C 18.00,205.00 19.00,220.92 19.00,219.92M 19.00,219.92 C 19.00,218.92 20.00,235.55 20.00,234.55M 20.00,234.55 C 20.00,233.55 21.00,250.83 21.00,249.83M 21.00,249.83 C 21.00,248.83 22.00,266.75 22.00,265.75M 22.00,265.75 C 22.00,264.75 23.00,283.24 23.00,282.24M 23.00,282.24 C 23.00,281.24 24.00,300.28 24.00,299.28M 24.00,299.28 C 24.00,298.28 25.00,317.83 25.00,316.83M 25.00,316.83 C 25.00,315.83 26.00,335.83 26.00,334.83M 26.00,334.83 C 26.00,333.83 27.00,354.24 27.00,353.24M 27.00,353.24 C 27.00,352.24 28.00,373.02 28.00,372.02M 28.00,372.02 C 28.00,371.02 29.00,392.12 29.00,391.12M 29.00,391.12 C 29.00,390.12 30.00,411.50 30.00,410.50M 30.00,410.50 C 30.00,409.50 31.00,431.09 31.00,430.09M 31.00,430.09 C 31.00,429.09 32.00,450.87 32.00,449.87M 32.00,449.87 C 32.00,448.87 33.00,470.76 33.00,469.76M 33.00,469.76 C 33.00,468.76 34.00,490.73 34.00,489.73M 34.00,489.73 C 34.00,488.73 35.00,510.73 35.00,509.73M 35.00,509.73 C 35.00,508.73 36.00,530.71 36.00,529.71M 36.00,529.71 C 36.00,528.71 37.00,550.61 37.00,549.61M 37.00,549.61 C 37.00,548.61 38.00,570.38 38.00,569.38M 38.00,569.38 C 38.00,568.38 39.00,589.98 39.00,588.98M 39.00,588.98 C 39.00,587.98 40.00,609.36 40.00,608.36M 40.00,608.36 C 40.00,607.36 41.00,628.47 41.00,627.47M 41.00,627.47 C 41.00,626.47 42.00,647.26 42.00,646.26M 42.00,646.26 C 42.00,645.26 43.00,665.69 43.00,664.69M 43.00,664.69 C 43.00,663.69 44.00,683.70 44.00,682.70M 44.00,682.70 C 44.00,681.70 45.00,701.25 45.00,700.25M 45.00,700.25 C 45.00,699.25 46.00,718.31 46.00,717.31M 46.00,717.31 C 46.00,716.31 47.00,734.82 47.00,733.82M 47.00,733.82 C 47.00,732.82 48.00,750.75 48.00,749.75M 48.00,749.75 C 48.00,748.75 49.00,766.05 49.00,765.05M 49.00,765.05 C 49.00,764.05 50.00,780.70 50.00,779.70M 50.00,779.70 C 50.00,778.70 51.00,794.64 51.00,793.64M 51.00,793.64 C 51.00,792.64 52.00,807.85 52.00,806.85M 52.00,806.85 C 52.00,805.85 53.00,820.29 53.00,819.29M 53.00,819.29 C 53.00,818.29 54.00,831.93 54.00,830.93M 54.00,830.93 C 54.00,829.93 55.00,842.75 55.00,841.75M 55.00,841.75 C 55.00,840.75 55.99,852.71 56.00,851.71M 56.00,851.71 C 56.01,850.71 56.99,861.79 57.00,860.79M 57.00,860.79 C 57.01,859.79 57.99,869.97 58.00,868.97M 58.00,868.97 C 58.01,867.97 58.99,877.23 59.00,876.23M 59.00,876.23 C 59.01,875.23 59.99,883.55 60.00,882.55M 60.00,882.55 C 60.01,881.55 60.99,888.91 61.00,887.91M 61.00,887.91 C 61.01,886.91 61.99,893.31 62.00,892.31M 62.00,892.31 C 62.01,891.31 62.98,896.72 63.00,895.72M 63.00,895.72 C 63.02,894.72 63.97,899.14 64.00,898.14M 64.00,898.14 C 64.03,897.14 64.95,900.57 65.00,899.57M 65.00,899.57 C 65.05,898.57 65.42,899.18 66.00,900.00M 66.00,900.00 C 66.58,900.81 66.95,898.43 67.00,899.43M 67.00,899.43 C 67.05,900.43 67.98,896.86 68.00,897.86M 68.00,897.86 C 68.02,898.86 68.98,894.29 69.00,895.29M 69.00,895.29 C 69.02,896.29 69.99,890.74 70.00,891.74M 70.00,891.74 C 70.01,892.74 70.99,886.21 71.00,887.21M 71.00,887.21 C 71.01,888.21 71.99,880.71 72.00,881.71M 72.00,881.71 C 72.01,882.71 72.99,874.26 73.00,875.26M 73.00,875.26 C 73.01,876.26 73.99,866.87 74.00,867.87M 74.00,867.87 C 74.01,868.87 74.99,858.56 75.00,859.56M 75.00,859.56 C 75.01,860.56 75.99,849.35 76.00,850.35M 76.00,850.35 C 76.01,851.35 77.00,839.27 77.00,840.27M 77.00,840.27 C 77.00,841.27 78.00,828.33 78.00,829.33M 78.00,829.33 C 78.00,830.33 79.00,816.58 79.00,817.58M 79.00,817.58 C 79.00,818.58 80.00,804.02 80.00,805.02M 80.00,805.02 C 80.00,806.02 81.00,790.71 81.00,791.71M 81.00,791.71 C 81.00,792.71 82.00,776.67 82.00,777.67M 82.00,777.67 C 82.00,778.67 83.00,761.93 83.00,762.93M 83.00,762.93 C 83.00,763.93 84.00,746.53 84.00,747.53M 84.00,747.53 C 84.00,748.53 85.00,730.52 85.00,731.52M 85.00,731.52 C 85.00,732.52 86.00,713.93 86.00,714.93M 86.00,714.93 C 86.00,715.93 87.00,696.80 87.00,697.80M 87.00,697.80 C 87.00,698.80 88.00,679.18 88.00,680.18M 88.00,680.18 C 88.00,681.18 89.00,661.10 89.00,662.10M 89.00,662.10 C 89.00,663.10 90.00,642.62 90.00,643.62M 90.00,643.62 C 90.00,644.62 91.00,623.79 91.00,624.79M 91.00,624.79 C 91.00,625.79 92.00,604.64 92.00,605.64M 92.00,605.64 C 92.00,606.64 93.00,585.22 93.00,586.22M 93.00,586.22 C 93.00,587.22 94.00,565.59 94.00,566.59M 94.00,566.59 C 94.00,567.59 95.00,545.80 95.00,546.80M 95.00,546.80 C 95.00,547.80 96.00,525.88 96.00,526.88M 96.00,526.88 C 96.00,527.88 97.00,505.90 97.00,506.90M 97.00,506.90 C 97.00,507.90 98.00,485.91 98.00,486.91M 98.00,486.91 C 98.00,487.91 99.00,465.94 99.00,466.94M 99.00,466.94 C 99.00,467.94 100.00,446.06 100.00,447.06M 100.00,447.06 C 100.00,448.06 101.00,426.31 101.00,427.31M 101.00,427.31 C 101.00,428.31 102.00,406.74 102.00,407.74M 102.00,407.74 C 102.00,408.74 103.00,387.40 103.00,388.40M 103.00,388.40 C 103.00,389.40 104.00,368.35 104.00,369.35M 104.00,369.35 C 104.00,370.35 105.00,349.61 105.00,350.61M 105.00,350.61 C 105.00,351.61 106.00,331.26 106.00,332.26M 106.00,332.26 C 106.00,333.26 107.00,313.32 107.00,314.32M 107.00,314.32 C 107.00,315.32 108.00,295.84 108.00,296.84M 108.00,296.84 C 108.00,297.84 109.00,278.87 109.00,279.87M 109.00,279.87 C 109.00,280.87 110.00,262.46 110.00,263.46M 110.00,263.46 C 110.00,264.46 111.00,246.63 111.00,247.63M 111.00,247.63 C 111.00,248.63 112.00,231.44 112.00,232.44M 112.00,232.44 C 112.00,233.44 113.00,216.91 113.00,217.91M 113.00,217.91 C 113.00,218.91 114.00,203.09 114.00,204.09M 114.00,204.09 C 114.00,205.09 115.00,190.01 115.00,191.01M 115.00,191.01 C 115.00,192.01 116.00,177.70 116.00,178.70M 116.00,178.70 C 116.00,179.70 117.00,166.19 117.00,167.19M 117.00,167.19 C 117.00,168.19 118.00,155.52 118.00,156.52M 118.00,156.52 C 118.00,157.52 118.99,145.70 119.00,146.70M 119.00,146.70 C 119.01,147.70 119.99,136.77 120.00,137.77M 120.00,137.77 C 120.01,138.77 120.99,128.74 121.00,129.74M 121.00,129.74 C 121.01,130.74 121.99,121.64 122.00,122.64M 122.00,122.64 C 122.01,123.64 122.99,115.48 123.00,116.48M 123.00,116.48 C 123.01,117.48 123.99,110.28 124.00,111.28M 124.00,111.28 C 124.01,112.28 124.99,106.05 125.00,107.05M 125.00,107.05 C 125.01,108.05 125.98,102.81 126.00,103.81M 126.00,103.81 C 126.02,104.81 126.97,100.55 127.00,101.55M 127.00,101.55 C 127.03,102.55 127.93,99.29 128.00,100.29M 128.00,100.29 C 128.07,101.29 128.80,101.01 129.00,100.03M 129.00,100.03 C 129.20,99.05 129.96,101.77 130.00,100.77M 130.00,100.77 C 130.04,99.77 130.98,103.50 131.00,102.50M 131.00,102.50 C 131.02,101.50 131.98,106.23 132.00,105.23M 132.00,105.23 C 132.02,104.23 132.99,109.95 133.00,108.95M 133.00,108.95 C 133.01,107.95 133.99,114.64 134.00,113.64M 134.00,113.64 C 134.01,112.64 134.99,120.30 135.00,119.30M 135.00,119.30 C 135.01,118.30 135.99,126.92 136.00,125.92M 136.00,125.92 C 136.01,124.92 136.99,134.46 137.00,133.46M 137.00,133.46 C 137.01,132.46 137.99,142.93 138.00,141.93M 138.00,141.93 C 138.01,140.93 138.99,152.28 139.00,151.28M 139.00,151.28 C 139.01,150.28 140.00,162.51 140.00,161.51M 140.00,161.51 C 140.00,160.51 141.00,173.59 141.00,172.59M 141.00,172.59 C 141.00,171.59 142.00,185.48 142.00,184.48M 142.00,184.48 C 142.00,183.48 143.00,198.16 143.00,197.16M 143.00,197.16 C 143.00,196.16 144.00,211.60 144.00,210.60M 144.00,210.60 C 144.00,209.60 145.00,225.76 145.00,224.76M 145.00,224.76 C 145.00,223.76 146.00,240.62 146.00,239.62M 146.00,239.62 C 146.00,238.62 147.00,256.12 147.00,255.12M 147.00,255.12 C 147.00,254.12 148.00,272.23 148.00,271.23M 148.00,271.23 C 148.00,270.23 149.00,288.91 149.00,287.91M 149.00,287.91 C 149.00,286.91 150.00,306.13 150.00,305.13M 150.00,305.13 C 150.00,304.13 151.00,323.83 151.00,322.83M 151.00,322.83 C 151.00,321.83 152.00,341.98 152.00,340.98M 152.00,340.98 C 152.00,339.98 153.00,360.52 153.00,359.52M 153.00,359.52 C 153.00,358.52 154.00,379.41 154.00,378.41M 154.00,378.41 C 154.00,377.41 155.00,398.61 155.00,397.61M 155.00,397.61 C 155.00,396.61 156.00,418.07 156.00,417.07M 156.00,417.07 C 156.00,416.07 157.00,437.73 157.00,436.73M 157.00,436.73 C 157.00,435.73 158.00,457.55 158.00,456.55M 158.00,456.55 C 158.00,455.55 159.00,477.47 159.00,476.47M 159.00,476.47 C 159.00,475.47 160.00,497.46 160.00,496.46M 160.00,496.46 C 160.00,495.46 161.00,517.45 161.00,516.45M 161.00,516.45 C 161.00,515.45 162.00,537.41 162.00,536.41M 162.00,536.41 C 162.00,535.41 163.00,557.27 163.00,556.27M 163.00,556.27 C 163.00,555.27 164.00,576.99 164.00,575.99M 164.00,575.99 C 164.00,574.99 165.00,596.53 165.00,595.53M 165.00,595.53 C 165.00,594.53 166.00,615.82 166.00,614.82M 166.00,614.82 C 166.00,613.82 167.00,634.83 167.00,633.83M 167.00,633.83 C 167.00,632.83 168.00,653.50 168.00,652.50M 168.00,652.50 C 168.00,651.50 169.00,671.79 169.00,670.79M 169.00,670.79 C 169.00,669.79 170.00,689.66 170.00,688.66M 170.00,688.66 C 170.00,687.66 171.00,707.05 171.00,706.05M 171.00,706.05 C 171.00,705.05 172.00,723.93 172.00,722.93M 172.00,722.93 C 172.00,721.93 173.00,740.25 173.00,739.25M 173.00,739.25 C 173.00,738.25 174.00,755.97 174.00,754.97M 174.00,754.97 C 174.00,753.97 175.00,771.05 175.00,770.05M 175.00,770.05 C 175.00,769.05 176.00,785.46 176.00,784.46M 176.00,784.46 C 176.00,783.46 177.00,799.16 177.00,798.16M 177.00,798.16 C 177.00,797.16 178.00,812.12 178.00,811.12M 178.00,811.12 C 178.00,810.12 179.00,824.29 179.00,823.29M 179.00,823.29 C 179.00,822.29 180.00,835.66 180.00,834.66M 180.00,834.66 C 180.00,833.66 181.00,846.19 181.00,845.19M 181.00,845.19 C 181.00,844.19 181.99,855.86 182.00,854.86M 182.00,854.86 C 182.01,853.86 182.99,864.64 183.00,863.65M 183.00,863.65 C 183.01,862.65 183.99,872.52 184.00,871.52M 184.00,871.52 C 184.01,870.52 184.99,879.46 185.00,878.46M 185.00,878.46 C 185.01,877.46 185.99,885.46 186.00,884.46M 186.00,884.46 C 186.01,883.46 186.99,890.50 187.00,889.50M 187.00,889.50 C 187.01,888.50 187.99,894.56 188.00,893.56M 188.00,893.56 C 188.01,892.56 188.98,897.64 189.00,896.64M 189.00,896.64 C 189.02,895.64 189.97,899.73 190.00,898.73M 190.00,898.73 C 190.03,897.73 190.92,900.82 191.00,899.82M 191.00,899.82 C 191.08,898.83 191.88,898.92 192.00,899.92M 192.00,899.92 C 192.12,900.91 192.96,898.01 193.00,899.01M 193.00,899.01 C 193.04,900.01 193.98,896.11 194.00,897.11M 194.00,897.11 C 194.02,898.11 194.99,893.21 195.00,894.21M 195.00,894.21 C 195.01,895.21 195.99,889.33 196.00,890.33M 196.00,890.33 C 196.01,891.33 196.99,884.47 197.00,885.47M 197.00,885.47 C 197.01,886.47 197.99,878.65 198.00,879.65M 198.00,879.65 C 198.01,880.65 198.99,871.88 199.00,872.88M 199.00,872.88 C 199.01,873.88 199.99,864.18 200.00,865.18M 200.00,865.18 C 200.01,866.18 200.99,855.56 201.00,856.56M 201.00,856.56 C 201.01,857.56 201.99,846.06 202.00,847.06M 202.00,847.06 C 202.01,848.06 203.00,835.68 203.00,836.68M 203.00,836.68 C 203.00,837.68 204.00,824.47 204.00,825.47M 204.00,825.47 C 204.00,826.47 205.00,812.44 205.00,813.44M 205.00,813.44 C 205.00,814.44 206.00,799.63 206.00,800.63M 206.00,800.63 C 206.00,801.63 207.00,786.07 207.00,787.07M 207.00,787.07 C 207.00,788.07 208.00,771.79 208.00,772.79M 208.00,772.79 C 208.00,773.79 209.00,756.82 209.00,757.82M 209.00,757.82 C 209.00,758.82 210.00,741.22 210.00,742.22M 210.00,742.22 C 210.00,743.22 211.00,725.00 211.00,726.00M 211.00,726.00 C 211.00,727.00 212.00,708.23 212.00,709.23M 212.00,709.23 C 212.00,710.23 213.00,690.93 213.00,691.93M 213.00,691.93 C 213.00,692.93 214.00,673.15 214.00,674.15M 214.00,674.15 C 214.00,675.15 215.00,654.93 215.00,655.93M 215.00,655.93 C 215.00,656.93 216.00,636.33 216.00,637.33M 216.00,637.33 C 216.00,638.33 217.00,617.38 217.00,618.38M 217.00,618.38 C 217.00,619.38 218.00,598.13 218.00,599.13M 218.00,599.13 C 218.00,600.13 219.00,578.64 219.00,579.64M 219.00,579.64 C 219.00,580.64 220.00,558.95 220.00,559.95M 220.00,559.95 C 220.00,560.95 221.00,539.11 221.00,540.11M 221.00,540.11 C 221.00,541.11 222.00,519.17 222.00,520.17M 222.00,520.17 C 222.00,521.17 223.00,499.18 223.00,500.18M 223.00,500.18 C 223.00,501.18 224.00,479.19 224.00,480.19M 224.00,480.19 C 224.00,481.19 225.00,459.24 225.00,460.24M 225.00,460.24 C 225.00,461.24 226.00,439.40 226.00,440.40M 226.00,440.40 C 226.00,441.40 227.00,419.71 227.00,420.71M 227.00,420.71 C 227.00,421.71 228.00,400.21 228.00,401.21M 228.00,401.21 C 228.00,402.21 229.00,380.96 229.00,381.96M 229.00,381.96 C 229.00,382.96 230.00,362.01 230.00,363.01M 230.00,363.01 C 230.00,364.01 231.00,343.40 231.00,344.40M 231.00,344.40 C 231.00,345.40 232.00,325.17 232.00,326.17M 232.00,326.17 C 232.00,327.17 233.00,307.39 233.00,308.39M 233.00,308.39 C 233.00,309.39 234.00,290.08 234.00,291.08M 234.00,291.08 C 234.00,292.08 235.00,273.29 235.00,274.29M 235.00,274.29 C 235.00,275.29 236.00,257.07 236.00,258.07M 236.00,258.07 C 236.00,259.07 237.00,241.45 237.00,242.45M 237.00,242.45 C 237.00,243.45 238.00,226.47 238.00,227.47M 238.00,227.47 C 238.00,228.47 239.00,212.18 239.00,213.18M 239.00,213.18 C 239.00,214.18 240.00,198.61 240.00,199.61M 240.00,199.61 C 240.00,200.61 241.00,185.78 241.00,186.78M 241.00,186.78 C 241.00,187.78 242.00,173.74 242.00,174.74M 242.00,174.74 C 242.00,175.74 243.00,162.51 243.00,163.51M 243.00,163.51 C 243.00,164.51 243.99,152.12 244.00,153.12M 244.00,153.12 C 244.01,154.12 244.99,142.60 245.00,143.60M 245.00,143.60 C 245.01,144.60 245.99,133.97 246.00,134.97M 246.00,134.97 C 246.01,135.97 246.99,126.25 247.00,127.25M 247.00,127.25 C 247.01,128.25 247.99,119.46 248.00,120.46M 248.00,120.46 C 248.01,121.46 248.99,113.62 249.00,114.62M 249.00,114.62 C 249.01,115.62 249.99,108.75 250.00,109.75M 250.00,109.75 C 250.01,110.75 250.99,104.85 251.00,105.85M 251.00,105.85 C 251.01,106.85 251.98,101.94 252.00,102.94M 252.00,102.94 C 252.02,103.94 252.96,100.02 253.00,101.01M 253.00,101.01 C 253.04,102.01 253.88,99.10 254.00,100.09M 254.00,100.09 C 254.12,101.08 254.91,101.16 255.00,100.17M 255.00,100.17 C 255.09,99.17 255.97,102.24 256.00,101.24M 256.00,101.24 C 256.03,100.24 256.98,104.31 257.00,103.31M 257.00,103.31 C 257.02,102.31 257.99,107.37 258.00,106.37M 258.00,106.37 C 258.01,105.37 258.99,111.42 259.00,110.42M 259.00,110.42 C 259.01,109.42 259.99,116.44 260.00,115.44M 260.00,115.44 C 260.01,114.44 260.99,122.42 261.00,121.42M 261.00,121.42 C 261.01,120.42 261.99,129.35 262.00,128.35M 262.00,128.35 C 262.01,127.35 262.99,137.21 263.00,136.21M 263.00,136.21 C 263.01,135.21 263.99,145.97 264.00,144.97M 264.00,144.97 C 264.01,143.97 265.00,155.63 265.00,154.63M 265.00,154.63 C 265.00,153.63 266.00,166.14 266.00,165.14M 266.00,165.14 C 266.00,164.14 267.00,177.50 267.00,176.50M 267.00,176.50 C 267.00,175.50 268.00,189.66 268.00,188.66M 268.00,188.66 C 268.00,187.66 269.00,202.60 269.00,201.60M 269.00,201.60 C 269.00,200.60 270.00,216.29 270.00,215.29M 270.00,215.29 C 270.00,214.29 271.00,230.68 271.00,229.68M 271.00,229.68 C 271.00,228.68 272.00,245.76 272.00,244.76M 272.00,244.76 C 272.00,243.76 273.00,261.47 273.00,260.47M 273.00,260.47 C 273.00,259.47 274.00,277.78 274.00,276.78M 274.00,276.78 C 274.00,275.78 275.00,294.65 275.00,293.65M 275.00,293.65 C 275.00,292.65 276.00,312.03 276.00,311.03M 276.00,311.03 C 276.00,310.03 277.00,329.89 277.00,328.89M 277.00,328.89 C 277.00,327.89 278.00,348.17 278.00,347.17M 278.00,347.17 C 278.00,346.17 279.00,366.84 279.00,365.84M 279.00,365.84 C 279.00,364.84 280.00,385.84 280.00,384.84M 280.00,384.84 C 280.00,383.84 281.00,405.13 281.00,404.13M 281.00,404.13 C 281.00,403.13 282.00,424.66 282.00,423.66M 282.00,423.66 C 282.00,422.66 283.00,444.38 283.00,443.38M 283.00,443.38 C 283.00,442.38 284.00,464.24 284.00,463.24M 284.00,463.24 C 284.00,462.24 285.00,484.19 285.00,483.19M 285.00,483.19 C 285.00,482.19 286.00,504.19 286.00,503.19M 286.00,503.19 C 286.00,502.19 287.00,524.17 287.00,523.17M 287.00,523.17 C 287.00,522.17 288.00,544.10 288.00,543.10M 288.00,543.10 C 288.00,542.10 289.00,563.92 289.00,562.92M 289.00,562.92 C 289.00,561.92 290.00,583.59 290.00,582.59M 290.00,582.59 C 290.00,581.59 291.00,603.04 291.00,602.04M 291.00,602.04 C 291.00,601.04 292.00,622.25 292.00,621.25M 292.00,621.25 C 292.00,620.25 293.00,641.15 293.00,640.15M 293.00,640.15 C 293.00,639.15 294.00,659.70 294.00,658.70M 294.00,658.70 C 294.00,657.70 295.00,677.85 295.00,676.85M 295.00,676.85 C 295.00,675.85 296.00,695.56 296.00,694.56M 296.00,694.56 C 296.00,693.56 297.00,712.78 297.00,711.78M 297.00,711.78 C 297.00,710.78 298.00,729.48 298.00,728.48M 298.00,728.48 C 298.00,727.48 299.00,745.60 299.00,744.60M 299.00,744.60 C 299.00,743.60 300.00,761.12 300.00,760.12M 300.00,760.12 C 300.00,759.12 301.00,775.98 301.00,774.98M 301.00,774.98 C 301.00,773.98 302.00,790.15 302.00,789.15M 302.00,789.15 C 302.00,788.15 303.00,803.60 303.00,802.60M 303.00,802.60 C 303.00,801.60 304.00,816.30 304.00,815.30M 304.00,815.30 C 304.00,814.30 305.00,828.21 305.00,827.21M 305.00,827.21 C 305.00,826.21 306.00,839.30 306.00,838.30M 306.00,838.30 C 306.00,837.30 306.99,849.54 307.00,848.54M 307.00,848.54 C 307.01,847.54 307.99,858.92 308.00,857.92M 308.00,857.92 C 308.01,856.92 308.99,867.40 309.00,866.40M 309.00,866.40 C 309.01,865.40 309.99,874.96 310.00,873.96M 310.00,873.96 C 310.01,872.96 310.99,881.59 311.00,880.59M 311.00,880.59 C 311.01,879.59 311.99,887.26 312.00,886.26M 312.00,886.26 C 312.01,885.26 312.99,891.97 313.00,890.97M 313.00,890.97 C 313.01,889.97 313.98,895.71 314.00,894.71M 314.00,894.71 C 314.02,893.71 314.98,898.46 315.00,897.46M 315.00,897.46 C 315.02,896.46 315.96,900.21 316.00,899.21M 316.00,899.21 C 316.04,898.21 316.81,900.95 317.00,899.97M 317.00,899.97 C 317.19,898.99 317.93,898.73 318.00,899.72M 318.00,899.72 C 318.07,900.72 318.97,897.48 319.00,898.48M 319.00,898.48 C 319.03,899.48 319.98,895.24 320.00,896.24M 320.00,896.24 C 320.02,897.24 320.99,892.01 321.00,893.01M 321.00,893.01 C 321.01,894.01 321.99,887.80 322.00,888.80M 322.00,888.80 C 322.01,889.80 322.99,882.62 323.00,883.62M 323.00,883.62 C 323.01,884.62 323.99,876.48 324.00,877.48M 324.00,877.48 C 324.01,878.48 324.99,869.39 325.00,870.39M 325.00,870.39 C 325.01,871.39 325.99,861.38 326.00,862.38M 326.00,862.38 C 326.01,863.38 326.99,852.47 327.00,853.47M 327.00,853.47 C 327.01,854.47 328.00,842.66 328.00,843.66M 328.00,843.66 C 328.00,844.66 329.00,832.01 329.00,833.01M 329.00,833.01 C 329.00,834.01 330.00,820.51 330.00,821.51M 330.00,821.51 C 330.00,822.51 331.00,808.22 331.00,809.22M 331.00,809.22 C 331.00,810.22 332.00,795.15 332.00,796.15M 332.00,796.15 C 332.00,797.15 333.00,781.34 333.00,782.34M 333.00,782.34 C 333.00,783.34 334.00,766.83 334.00,767.83M 334.00,767.83 C 334.00,768.83 335.00,751.64 335.00,752.64M 335.00,752.64 C 335.00,753.64 336.00,735.83 336.00,736.83M 336.00,736.83 C 336.00,737.83 337.00,719.42 337.00,720.42M 337.00,720.42 C 337.00,721.42 338.00,702.46 338.00,703.46M 338.00,703.46 C 338.00,704.46 339.00,685.00 339.00,686.00M 339.00,686.00 C 339.00,687.00 340.00,667.07 340.00,668.07M 340.00,668.07 C 340.00,669.07 341.00,648.72 341.00,649.72M 341.00,649.72 C 341.00,650.72 342.00,629.99 342.00,630.99M 342.00,630.99 C 342.00,631.99 343.00,610.94 343.00,611.94M 343.00,611.94 C 343.00,612.94 344.00,591.60 344.00,592.60M 344.00,592.60 C 344.00,593.60 345.00,572.04 345.00,573.04M 345.00,573.04 C 345.00,574.04 346.00,552.29 346.00,553.29M 346.00,553.29 C 346.00,554.29 347.00,532.41 347.00,533.41M 347.00,533.41 C 347.00,534.41 348.00,512.45 348.00,513.45M 348.00,513.45 C 348.00,514.45 349.00,492.45 349.00,493.45M 349.00,493.45 C 349.00,494.45 350.00,472.47 350.00,473.47M 350.00,473.47 C 350.00,474.47 351.00,452.56 351.00,453.56M 351.00,453.56 C 351.00,454.56 352.00,432.76 352.00,433.76M 352.00,433.76 C 352.00,434.76 353.00,413.13 353.00,414.13M 353.00,414.13 C 353.00,415.13 354.00,393.71 354.00,394.71M 354.00,394.71 C 354.00,395.71 355.00,374.55 355.00,375.55M 355.00,375.55 C 355.00,376.55 356.00,355.71 356.00,356.71M 356.00,356.71 C 356.00,357.71 357.00,337.22 357.00,338.22M 357.00,338.22 C 357.00,339.22 358.00,319.14 358.00,320.14M 358.00,320.14 C 358.00,321.14 359.00,301.51 359.00,302.51M 359.00,302.51 C 359.00,303.51 360.00,284.37 360.00,285.37M 360.00,285.37 C 360.00,286.37 361.00,267.77 361.00,268.77M 361.00,268.77 C 361.00,269.77 362.00,251.75 362.00,252.75M 362.00,252.75 C 362.00,253.75 363.00,236.34 363.00,237.34M 363.00,237.34 C 363.00,238.34 364.00,221.59 364.00,222.59M 364.00,222.59 C 364.00,223.59 365.00,207.53 365.00,208.53M 365.00,208.53 C 365.00,209.53 366.00,194.21 366.00,195.21M 366.00,195.21 C 366.00,196.21 367.00,181.64 367.00,182.64M 367.00,182.64 C 367.00,183.64 368.00,169.87 368.00,170.87M 368.00,170.87 C 368.00,171.87 369.00,158.92 369.00,159.92M 369.00,159.92 C 369.00,160.92 369.99,148.82 370.00,149.82M 370.00,149.82 C 370.01,150.82 370.99,139.59 371.00,140.59M 371.00,140.59 C 371.01,141.59 371.99,131.27 372.00,132.27M 372.00,132.27 C 372.01,133.27 372.99,123.86 373.00,124.86M 373.00,124.86 C 373.01,125.86 373.99,117.39 374.00,118.39M 374.00,118.39 C 374.01,119.39 374.99,111.88 375.00,112.88M 375.00,112.88 C 375.01,113.88 375.99,107.33 376.00,108.33M 376.00,108.33 C 376.01,109.33 376.98,103.76 377.00,104.76M 377.00,104.76 C 377.02,105.76 377.98,101.18 378.00,102.18M 378.00,102.18 C 378.02,103.18 378.95,99.59 379.00,100.59M 379.00,100.59 C 379.05,101.59 379.51,99.13 380.00,100.00M 380.00,100.00 C 380.49,100.87 380.95,101.41 381.00,100.42M 381.00,100.42 C 381.05,99.42 381.97,102.83 382.00,101.83M 382.00,101.83 C 382.03,100.83 382.98,105.23 383.00,104.23M 383.00,104.23 C 383.02,103.23 383.99,108.63 384.00,107.63M 384.00,107.63 C 384.01,106.63 384.99,113.00 385.00,112.00M 385.00,112.00 C 385.01,111.00 385.99,118.35 386.00,117.35M 386.00,117.35 C 386.01,116.35 386.99,124.65 387.00,123.65M 387.00,123.65 C 387.01,122.65 387.99,131.89 388.00,130.89M 388.00,130.89 C 388.01,129.89 388.99,140.05 389.00,139.05M 389.00,139.05 C 389.01,138.05 389.99,149.12 390.00,148.12M 390.00,148.12 C 390.01,147.12 391.00,159.07 391.00,158.07M 391.00,158.07 C 391.00,157.07 392.00,169.87 392.00,168.87M 392.00,168.87 C 392.00,167.87 393.00,181.50 393.00,180.50M 393.00,180.50 C 393.00,179.50 394.00,193.93 394.00,192.93M 394.00,192.93 C 394.00,191.93 395.00,207.12 395.00,206.12M 395.00,206.12 C 395.00,205.12 396.00,221.05 396.00,220.05M 396.00,220.05 C 396.00,219.05 397.00,235.68 397.00,234.68M 397.00,234.68 C 397.00,233.68 398.00,250.97 398.00,249.97M 398.00,249.97 C 398.00,248.97 399.00,266.89 399.00,265.89M 399.00,265.89 C 399.00,264.89 400.00,283.39 400.00,282.39M 400.00,282.39 C 400.00,281.39 401.00,300.44 401.00,299.44M 401.00,299.44 C 401.00,298.44 402.00,317.99 402.00,316.99M 402.00,316.99 C 402.00,315.99 403.00,335.99 403.00,334.99M 403.00,334.99 C 403.00,333.99 404.00,354.41 404.00,353.41M 404.00,353.41 C 404.00,352.41 405.00,373.19 405.00,372.19M 405.00,372.19 C 405.00,371.19 406.00,392.30 406.00,391.30M 406.00,391.30 C 406.00,390.30 407.00,411.67 407.00,410.67M 407.00,410.67 C 407.00,409.67 408.00,431.27 408.00,430.27M 408.00,430.27 C 408.00,429.27 409.00,451.04 409.00,450.04M 409.00,450.04 C 409.00,449.04 410.00,470.94 410.00,469.94M 410.00,469.94 C 410.00,468.94 411.00,490.91 411.00,489.91M 411.00,489.91 C 411.00,488.91 412.00,510.91 412.00,509.91M 412.00,509.91 C 412.00,508.91 413.00,530.88 413.00,529.88M 413.00,529.88 C 413.00,528.88 414.00,550.78 414.00,549.78M 414.00,549.78 C 414.00,548.78 415.00,570.56 415.00,569.56M 415.00,569.56 C 415.00,568.56 416.00,590.16 416.00,589.16M 416.00,589.16 C 416.00,588.16 417.00,609.53 417.00,608.53M 417.00,608.53 C 417.00,607.53 418.00,628.64 418.00,627.64M 418.00,627.64 C 418.00,626.64 419.00,647.43 419.00,646.43M 419.00,646.43 C 419.00,645.43 420.00,665.85 420.00,664.85M 420.00,664.85 C 420.00,663.85 421.00,683.86 421.00,682.86M 421.00,682.86 C 421.00,681.86 422.00,701.41 422.00,700.41M 422.00,700.41 C 422.00,699.41 423.00,718.46 423.00,717.46M 423.00,717.46 C 423.00,716.46 424.00,734.97 424.00,733.97M 424.00,733.97 C 424.00,732.97 425.00,750.89 425.00,749.89M 425.00,749.89 C 425.00,748.89 426.00,766.19 426.00,765.19M 426.00,765.19 C 426.00,764.19 427.00,780.82 427.00,779.82M 427.00,779.82 C 427.00,778.82 428.00,794.76 428.00,793.76M 428.00,793.76 C 428.00,792.76 429.00,807.96 429.00,806.96M 429.00,806.96 C 429.00,805.96 430.00,820.39 430.00,819.39M 430.00,819.39 C 430.00,818.39 431.00,832.03 431.00,831.03M 431.00,831.03 C 431.00,830.03 432.00,842.84 432.00,841.84M 432.00,841.84 C 432.00,840.84 432.99,852.79 433.00,851.79M 433.00,851.79 C 433.01,850.79 433.99,861.87 434.00,860.87M 434.00,860.87 C 434.01,859.87 434.99,870.04 435.00,869.04M 435.00,869.04 C 435.01,868.04 435.99,877.29 436.00,876.29M 436.00,876.29 C 436.01,875.29 436.99,883.60 437.00,882.60M 437.00,882.60 C 437.01,881.60 437.99,888.96 438.00,887.96M 438.00,887.96 C 438.01,886.96 438.99,893.34 439.00,892.34M 439.00,892.34 C 439.01,891.34 439.98,896.74 440.00,895.74M 440.00,895.74 C 440.02,894.74 440.97,899.16 441.00,898.16M 441.00,898.16 C 441.03,897.16 441.95,900.58 442.00,899.58M 442.00,899.58 C 442.05,898.58 442.47,899.15 443.00,900.00M 443.00,900.00 C 443.53,900.84 443.95,898.42 444.00,899.42M 444.00,899.42 C 444.05,900.42 444.98,896.84 445.00,897.84M 445.00,897.84 C 445.02,898.84 445.98,894.27 446.00,895.27M 446.00,895.27 C 446.02,896.27 446.99,890.71 447.00,891.71M 447.00,891.71 C 447.01,892.71 447.99,886.17 448.00,887.17M 448.00,887.17 C 448.01,888.17 448.99,880.66 449.00,881.66M 449.00,881.66 C 449.01,882.66 449.99,874.20 450.00,875.20M 450.00,875.20 C 450.01,876.20 450.99,866.80 451.00,867.80M 451.00,867.80 C 451.01,868.80 451.99,858.48 452.00,859.48M 452.00,859.48 C 452.01,860.48 452.99,849.27 453.00,850.27M 453.00,850.27 C 453.01,851.27 454.00,839.17 454.00,840.17M 454.00,840.17 C 454.00,841.17 455.00,828.23 455.00,829.23M 455.00,829.23 C 455.00,830.23 456.00,816.47 456.00,817.47M 456.00,817.47 C 456.00,818.47 457.00,803.91 457.00,804.91M 457.00,804.91 C 457.00,805.91 458.00,790.59 458.00,791.59M 458.00,791.59 C 458.00,792.59 459.00,776.54 459.00,777.54M 459.00,777.54 C 459.00,778.54 460.00,761.79 460.00,762.79M 460.00,762.79 C 460.00,763.79 461.00,746.39 461.00,747.39M 461.00,747.39 C 461.00,748.39 462.00,730.38 462.00,731.38M 462.00,731.38 C 462.00,732.38 463.00,713.78 463.00,714.78M 463.00,714.78 C 463.00,715.78 464.00,696.65 464.00,697.65M 464.00,697.65 C 464.00,698.65 465.00,679.02 465.00,680.02M 465.00,680.02 C 465.00,681.02 466.00,660.94 466.00,661.94M 466.00,661.94 C 466.00,662.94 467.00,642.46 467.00,643.46M 467.00,643.46 C 467.00,644.46 468.00,623.62 468.00,624.62M 468.00,624.62 C 468.00,625.62 469.00,604.46 469.00,605.46M 469.00,605.46 C 469.00,606.46 470.00,585.05 470.00,586.05M 470.00,586.05 C 470.00,587.05 471.00,565.42 471.00,566.42M 471.00,566.42 C 471.00,567.42 472.00,545.62 472.00,546.62M 472.00,546.62 C 472.00,547.62 473.00,525.71 473.00,526.71M 473.00,526.71 C 473.00,527.71 474.00,505.73 474.00,506.73M 474.00,506.73 C 474.00,507.73 475.00,485.73 475.00,486.73M 475.00,486.73 C 475.00,487.73 476.00,465.76 476.00,466.76M 476.00,466.76 C 476.00,467.76 477.00,445.88 477.00,446.88M 477.00,446.88 C 477.00,447.88 478.00,426.14 478.00,427.13M 478.00,427.13 C 478.00,428.13 479.00,406.57 479.00,407.57M 479.00,407.57 C 479.00,408.57 480.00,387.23 480.00,388.23M 480.00,388.23 C 480.00,389.23 481.00,368.18 481.00,369.18M 481.00,369.18 C 481.00,370.18 482.00,349.45 482.00,350.45M 482.00,350.45 C 482.00,351.45 483.00,331.09 483.00,332.09M 483.00,332.09 C 483.00,333.09 484.00,313.16 484.00,314.16M 484.00,314.16 C 484.00,315.16 485.00,295.69 485.00,296.69M 485.00,296.69 C 485.00,297.69 486.00,278.73 486.00,279.73M 486.00,279.73 C 486.00,280.73 487.00,262.31 487.00,263.31M 487.00,263.31 C 487.00,264.31 488.00,246.49 488.00,247.49M 488.00,247.49 C 488.00,248.49 489.00,231.30 489.00,232.30M 489.00,232.30 C 489.00,233.30 490.00,216.78 490.00,217.78M 490.00,217.78 C 490.00,218.78 491.00,202.97 491.00,203.97M 491.00,203.97 C 491.00,204.97 492.00,189.89 492.00,190.89M 492.00,190.89 C 492.00,191.89 493.00,177.59 493.00,178.59M 493.00,178.59 C 493.00,179.59 494.00,166.09 494.00,167.09M 494.00,167.09 C 494.00,168.09 495.00,155.43 495.00,156.43M 495.00,156.43 C 495.00,157.43 495.99,145.62 496.00,146.62M 496.00,146.62 C 496.01,147.62 496.99,136.69 497.00,137.69M 497.00,137.69 C 497.01,138.69 497.99,128.67 498.00,129.67M 498.00,129.67 C 498.01,130.67 498.99,121.58 499.00,122.58M 499.00,122.58 C 499.01,123.58 499.99,115.43 500.00,116.43M 500.00,116.43 C 500.01,117.43 500.99,110.24 501.00,111.24M 501.00,111.24 C 501.01,112.24 501.99,106.02 502.00,107.02M 502.00,107.02 C 502.01,108.02 502.98,102.78 503.00,103.78M 503.00,103.78 C 503.02,104.78 503.97,100.53 504.00,101.53M 504.00,101.53 C 504.03,102.53 504.93,99.29 505.00,100.28M 505.00,100.28 C 505.07,101.28 505.80,101.01 506.00,100.03M 506.00,100.03 C 506.20,99.05 506.96,101.78 507.00,100.78M 507.00,100.78 C 507.04,99.78 507.98,103.52 508.00,102.52M 508.00,102.52 C 508.02,101.52 508.98,106.26 509.00,105.26M 509.00,105.26 C 509.02,104.26 509.99,109.99 510.00,108.99M 510.00,108.99 C 510.01,107.99 510.99,114.69 511.00,113.69M 511.00,113.69 C 511.01,112.69 511.99,120.36 512.00,119.36M 512.00,119.36 C 512.01,118.36 512.99,126.98 513.00,125.98M 513.00,125.98 C 513.01,124.98 513.99,134.53 514.00,133.53M 514.00,133.53 C 514.01,132.53 514.99,143.00 515.00,142.00M 515.00,142.00 C 515.01,141.00 515.99,152.37 516.00,151.37M 516.00,151.37 C 516.01,150.37 517.00,162.61 517.00,161.61M 517.00,161.61 C 517.00,160.61 518.00,173.69 518.00,172.69M 518.00,172.69 C 518.00,171.69 519.00,185.59 519.00,184.59M 519.00,184.59 C 519.00,183.59 520.00,198.28 520.00,197.28M 520.00,197.28 C 520.00,196.28 521.00,211.72 521.00,210.72M 521.00,210.72 C 521.00,209.72 522.00,225.89 522.00,224.89M 522.00,224.89 C 522.00,223.89 523.00,240.75 523.00,239.75M 523.00,239.75 C 523.00,238.75 524.00,256.26 524.00,255.26M 524.00,255.26 C 524.00,254.26 525.00,272.38 525.00,271.38M 525.00,271.38 C 525.00,270.38 526.00,289.07 526.00,288.07M 526.00,288.07 C 526.00,287.07 527.00,306.29 527.00,305.29M 527.00,305.29 C 527.00,304.29 528.00,323.99 528.00,322.99M 528.00,322.99 C 528.00,321.99 529.00,342.14 529.00,341.14M 529.00,341.14 C 529.00,340.14 530.00,360.69 530.00,359.69M 530.00,359.69 C 530.00,358.69 531.00,379.58 531.00,378.58M 531.00,378.58 C 531.00,377.58 532.00,398.78 532.00,397.78M 532.00,397.78 C 532.00,396.78 533.00,418.24 533.00,417.24M 533.00,417.24 C 533.00,416.24 534.00,437.90 534.00,436.90M 534.00,436.90 C 534.00,435.90 535.00,457.72 535.00,456.72M 535.00,456.72 C 535.00,455.72 536.00,477.65 536.00,476.65M 536.00,476.65 C 536.00,475.65 537.00,497.64 537.00,496.64M 537.00,496.64 C 537.00,495.64 538.00,517.63 538.00,516.63M 538.00,516.63 C 538.00,515.63 539.00,537.59 539.00,536.59M 539.00,536.59 C 539.00,535.59 540.00,557.45 540.00,556.45M 540.00,556.45 C 540.00,555.45 541.00,577.17 541.00,576.17M 541.00,576.17 C 541.00,575.17 542.00,596.70 542.00,595.70M 542.00,595.70 C 542.00,594.70 543.00,615.99 543.00,614.99M 543.00,614.99 C 543.00,613.99 544.00,635.00 544.00,634.00M 544.00,634.00 C 544.00,633.00 545.00,653.66 545.00,652.66M 545.00,652.66 C 545.00,651.66 546.00,671.95 546.00,670.95M 546.00,670.95 C 546.00,669.95 547.00,689.81 547.00,688.81M 547.00,688.81 C 547.00,687.81 548.00,707.20 548.00,706.20M 548.00,706.20 C 548.00,705.20 549.00,724.07 549.00,723.07M 549.00,723.07 C 549.00,722.07 550.00,740.39 550.00,739.39M 550.00,739.39 C 550.00,738.39 551.00,756.11 551.00,755.11M 551.00,755.11 C 551.00,754.11 552.00,771.19 552.00,770.19M 552.00,770.19 C 552.00,769.19 553.00,785.59 553.00,784.59M 553.00,784.59 C 553.00,783.59 554.00,799.28 554.00,798.28M 554.00,798.28 C 554.00,797.28 555.00,812.23 555.00,811.23M 555.00,811.23 C 555.00,810.23 556.00,824.40 556.00,823.40M 556.00,823.40 C 556.00,822.40 557.00,835.76 557.00,834.76M 557.00,834.76 C 557.00,833.76 558.00,846.28 558.00,845.28M 558.00,845.28 C 558.00,844.28 558.99,855.94 559.00,854.94M 559.00,854.94 C 559.01,853.94 559.99,864.72 560.00,863.72M 560.00,863.72 C 560.01,862.72 560.99,872.58 561.00,871.58M 561.00,871.58 C 561.01,870.58 561.99,879.52 562.00,878.52M 562.00,878.52 C 562.01,877.52 562.99,885.51 563.00,884.51M 563.00,884.51 C 563.01,883.51 563.99,890.54 564.00,889.54M 564.00,889.54 C 564.01,888.54 564.99,894.59 565.00,893.59M 565.00,893.59 C 565.01,892.59 565.98,897.67 566.00,896.67M 566.00,896.67 C 566.02,895.67 566.97,899.75 567.00,898.75M 567.00,898.75 C 567.03,897.75 567.91,900.83 568.00,899.83M 568.00,899.83 C 568.09,898.83 568.88,898.92 569.00,899.91M 569.00,899.91 C 569.12,900.91 569.96,898.00 570.00,899.00M 570.00,899.00 C 570.04,900.00 570.98,896.09 571.00,897.09M 571.00,897.09 C 571.02,898.08 571.99,893.18 572.00,894.18M 572.00,894.18 C 572.01,895.18 572.99,889.29 573.00,890.29M 573.00,890.29 C 573.01,891.29 573.99,884.42 574.00,885.42M 574.00,885.42 C 574.01,886.42 574.99,878.59 575.00,879.59M 575.00,879.59 C 575.01,880.59 575.99,871.82 576.00,872.82M 576.00,872.82 C 576.01,873.82 576.99,864.11 577.00,865.11M 577.00,865.11 C 577.01,866.11 577.99,855.48 578.00,856.48M 578.00,856.48 C 578.01,857.48 578.99,845.97 579.00,846.97M 579.00,846.97 C 579.01,847.97 580.00,835.59 580.00,836.59M 580.00,836.59 C 580.00,837.59 581.00,824.37 581.00,825.37M 581.00,825.37 C 581.00,826.37 582.00,812.33 582.00,813.33M 582.00,813.33 C 582.00,814.33 583.00,799.51 583.00,800.51M 583.00,800.51 C 583.00,801.51 584.00,785.94 584.00,786.94M 584.00,786.94 C 584.00,787.94 585.00,771.66 585.00,772.66M 585.00,772.66 C 585.00,773.66 586.00,756.69 586.00,757.69M 586.00,757.69 C 586.00,758.69 587.00,741.07 587.00,742.07M 587.00,742.07 C 587.00,743.07 588.00,724.86 588.00,725.86M 588.00,725.86 C 588.00,726.86 589.00,708.07 589.00,709.07M 589.00,709.07 C 589.00,710.07 590.00,690.77 590.00,691.77M 590.00,691.77 C 590.00,692.77 591.00,672.99 591.00,673.99M 591.00,673.99 C 591.00,674.99 592.00,654.77 592.00,655.77M 592.00,655.77 C 592.00,656.77 593.00,636.16 593.00,637.16M 593.00,637.16 C 593.00,638.16 594.00,617.21 594.00,618.21M 594.00,618.21 C 594.00,619.21 595.00,597.96 595.00,598.96M 595.00,598.96 C 595.00,599.96 596.00,578.47 596.00,579.47M 596.00,579.47 C 596.00,580.47 597.00,558.78 597.00,559.78M 597.00,559.78 C 597.00,560.78 598.00,538.93 598.00,539.93M 598.00,539.93 C 598.00,540.93 599.00,518.99 599.00,519.99M 599.00,519.99 C 599.00,520.99 600.00,499.00 600.00,500.00M 600.00,500.00 C 600.00,501.00 601.00,479.01 601.00,480.01M 601.00,480.01 C 601.00,481.01 602.00,459.07 602.00,460.07M 602.00,460.07 C 602.00,461.07 603.00,439.22 603.00,440.22M 603.00,440.22 C 603.00,441.22 604.00,419.53 604.00,420.53M 604.00,420.53 C 604.00,421.53 605.00,400.04 605.00,401.04M 605.00,401.04 C 605.00,402.04 606.00,380.79 606.00,381.79M 606.00,381.79 C 606.00,382.79 607.00,361.84 607.00,362.84M 607.00,362.84 C 607.00,363.84 608.00,343.23 608.00,344.23M 608.00,344.23 C 608.00,345.23 609.00,325.01 609.00,326.01M 609.00,326.01 C 609.00,327.01 610.00,307.23 610.00,308.23M 610.00,308.23 C 610.00,309.23 611.00,289.93 611.00,290.93M 611.00,290.93 C 611.00,291.93 612.00,273.14 612.00,274.14M 612.00,274.14 C 612.00,275.14 613.00,256.93 613.00,257.93M 613.00,257.93 C 613.00,258.93 614.00,241.31 614.00,242.31M 614.00,242.31 C 614.00,243.31 615.00,226.34 615.00,227.34M 615.00,227.34 C 615.00,228.34 616.00,212.06 616.00,213.06M 616.00,213.06 C 616.00,214.06 617.00,198.49 617.00,199.49M 617.00,199.49 C 617.00,200.49 618.00,185.67 618.00,186.67M 618.00,186.67 C 618.00,187.67 619.00,173.63 619.00,174.63M 619.00,174.63 C 619.00,175.63 620.00,162.41 620.00,163.41M 620.00,163.41 C 620.00,164.41 620.99,152.03 621.00,153.03M 621.00,153.03 C 621.01,154.03 621.99,142.52 622.00,143.52M 622.00,143.52 C 622.01,144.52 622.99,133.89 623.00,134.89M 623.00,134.89 C 623.01,135.89 623.99,126.18 624.00,127.18M 624.00,127.18 C 624.01,128.18 624.99,119.41 625.00,120.41M 625.00,120.41 C 625.01,121.41 625.99,113.58 626.00,114.58M 626.00,114.58 C 626.01,115.58 626.99,108.71 627.00,109.71M 627.00,109.71 C 627.01,110.71 627.99,104.82 628.00,105.82M 628.00,105.82 C 628.01,106.82 628.98,101.92 629.00,102.91M 629.00,102.91 C 629.02,103.91 629.96,100.00 630.00,101.00M 630.00,101.00 C 630.04,102.00 630.88,99.09 631.00,100.09M 631.00,100.09 C 631.12,101.08 631.91,101.17 632.00,100.17M 632.00,100.17 C 632.09,99.17 632.97,102.25 633.00,101.25M 633.00,101.25 C 633.03,100.25 633.98,104.33 634.00,103.33M 634.00,103.33 C 634.02,102.33 634.99,107.41 635.00,106.41M 635.00,106.41 C 635.01,105.41 635.99,111.46 636.00,110.46M 636.00,110.46 C 636.01,109.46 636.99,116.49 637.00,115.49M 637.00,115.49 C 637.01,114.49 637.99,122.48 638.00,121.48M 638.00,121.48 C 638.01,120.48 638.99,129.42 639.00,128.42M 639.00,128.42 C 639.01,127.42 639.99,137.28 640.00,136.28M 640.00,136.28 C 640.01,135.28 640.99,146.06 641.00,145.06M 641.00,145.06 C 641.01,144.06 642.00,155.72 642.00,154.72M 642.00,154.72 C 642.00,153.72 643.00,166.24 643.00,165.24M 643.00,165.24 C 643.00,164.24 644.00,177.60 644.00,176.60M 644.00,176.60 C 644.00,175.60 645.00,189.77 645.00,188.77M 645.00,188.77 C 645.00,187.77 646.00,202.72 646.00,201.72M 646.00,201.72 C 646.00,200.72 647.00,216.41 647.00,215.41M 647.00,215.41 C 647.00,214.41 648.00,230.81 648.00,229.81M 648.00,229.81 C 648.00,228.81 649.00,245.89 649.00,244.89M 649.00,244.89 C 649.00,243.89 650.00,261.61 650.00,260.61M 650.00,260.61 C 650.00,259.61 651.00,277.93 651.00,276.93M 651.00,276.93 C 651.00,275.93 652.00,294.80 652.00,293.80M 652.00,293.80 C 652.00,292.80 653.00,312.19 653.00,311.19M 653.00,311.19 C 653.00,310.19 654.00,330.05 654.00,329.05M 654.00,329.05 C 654.00,328.05 655.00,348.34 655.00,347.34M 655.00,347.34 C 655.00,346.34 656.00,367.00 656.00,366.00M 656.00,366.00 C 656.00,365.00 657.00,386.01 657.00,385.01M 657.00,385.01 C 657.00,384.01 658.00,405.30 658.00,404.30M 658.00,404.30 C 658.00,403.30 659.00,424.83 659.00,423.83M 659.00,423.83 C 659.00,422.83 660.00,444.55 660.00,443.55M 660.00,443.55 C 660.00,442.55 661.00,464.41 661.00,463.41M 661.00,463.41 C 661.00,462.41 662.00,484.37 662.00,483.37M 662.00,483.37 C 662.00,482.37 663.00,504.36 663.00,503.36M 663.00,503.36 C 663.00,502.36 664.00,524.35 664.00,523.35M 664.00,523.35 C 664.00,522.35 665.00,544.28 665.00,543.28M 665.00,543.28 C 665.00,542.28 666.00,564.10 666.00,563.10M 666.00,563.10 C 666.00,562.10 667.00,583.76 667.00,582.76M 667.00,582.76 C 667.00,581.76 668.00,603.22 668.00,602.22M 668.00,602.22 C 668.00,601.22 669.00,622.42 669.00,621.42M 669.00,621.42 C 669.00,620.42 670.00,641.31 670.00,640.31M 670.00,640.31 C 670.00,639.31 671.00,659.86 671.00,658.86M 671.00,658.86 C 671.00,657.86 672.00,678.01 672.00,677.01M 672.00,677.01 C 672.00,676.01 673.00,695.71 673.00,694.71M 673.00,694.71 C 673.00,693.71 674.00,712.93 674.00,711.93M 674.00,711.93 C 674.00,710.93 675.00,729.62 675.00,728.62M 675.00,728.62 C 675.00,727.62 676.00,745.74 676.00,744.74M 676.00,744.74 C 676.00,743.74 677.00,761.25 677.00,760.25M 677.00,760.25 C 677.00,759.25 678.00,776.11 678.00,775.11M 678.00,775.11 C 678.00,774.11 679.00,790.28 679.00,789.28M 679.00,789.28 C 679.00,788.28 680.00,803.72 680.00,802.72M 680.00,802.72 C 680.00,801.72 681.00,816.41 681.00,815.41M 681.00,815.41 C 681.00,814.41 682.00,828.31 682.00,827.31M 682.00,827.31 C 682.00,826.31 683.00,839.39 683.00,838.39M 683.00,838.39 C 683.00,837.39 683.99,849.63 684.00,848.63M 684.00,848.63 C 684.01,847.63 684.99,859.00 685.00,858.00M 685.00,858.00 C 685.01,857.00 685.99,867.47 686.00,866.47M 686.00,866.47 C 686.01,865.47 686.99,875.02 687.00,874.02M 687.00,874.02 C 687.01,873.02 687.99,881.64 688.00,880.64M 688.00,880.64 C 688.01,879.64 688.99,887.31 689.00,886.31M 689.00,886.31 C 689.01,885.31 689.99,892.01 690.00,891.01M 690.00,891.01 C 690.01,890.01 690.98,895.74 691.00,894.74M 691.00,894.74 C 691.02,893.74 691.98,898.48 692.00,897.48M 692.00,897.48 C 692.02,896.48 692.96,900.22 693.00,899.22M 693.00,899.22 C 693.04,898.22 693.80,900.95 694.00,899.97M 694.00,899.97 C 694.20,898.99 694.93,898.72 695.00,899.72M 695.00,899.72 C 695.07,900.71 695.97,897.47 696.00,898.47M 696.00,898.47 C 696.03,899.47 696.98,895.22 697.00,896.22M 697.00,896.22 C 697.02,897.22 697.99,891.98 698.00,892.98M 698.00,892.98 C 698.01,893.98 698.99,887.76 699.00,888.76M 699.00,888.76 C 699.01,889.76 699.99,882.57 700.00,883.57M 700.00,883.57 C 700.01,884.57 700.99,876.42 701.00,877.42M 701.00,877.42 C 701.01,878.42 701.99,869.33 702.00,870.33M 702.00,870.33 C 702.01,871.33 702.99,861.31 703.00,862.31M 703.00,862.31 C 703.01,863.31 703.99,852.38 704.00,853.38M 704.00,853.38 C 704.01,854.38 705.00,842.57 705.00,843.57M 705.00,843.57 C 705.00,844.57 706.00,831.91 706.00,832.91M 706.00,832.91 C 706.00,833.91 707.00,820.41 707.00,821.41M 707.00,821.41 C 707.00,822.41 708.00,808.11 708.00,809.11M 708.00,809.11 C 708.00,810.11 709.00,795.03 709.00,796.03M 709.00,796.03 C 709.00,797.03 710.00,781.22 710.00,782.22M 710.00,782.22 C 710.00,783.22 711.00,766.70 711.00,767.70M 711.00,767.70 C 711.00,768.70 712.00,751.51 712.00,752.51M 712.00,752.51 C 712.00,753.51 713.00,735.69 713.00,736.69M 713.00,736.69 C 713.00,737.69 714.00,719.27 714.00,720.27M 714.00,720.27 C 714.00,721.27 715.00,702.31 715.00,703.31M 715.00,703.31 C 715.00,704.31 716.00,684.84 716.00,685.84M 716.00,685.84 C 716.00,686.84 717.00,666.91 717.00,667.91M 717.00,667.91 C 717.00,668.91 718.00,648.55 718.00,649.55M 718.00,649.55 C 718.00,650.55 719.00,629.82 719.00,630.82M 719.00,630.82 C 719.00,631.82 720.00,610.77 720.00,611.77M 720.00,611.77 C 720.00,612.77 721.00,591.43 721.00,592.43M 721.00,592.43 C 721.00,593.43 722.00,571.87 722.00,572.87M 722.00,572.87 C 722.00,573.86 723.00,552.12 723.00,553.12M 723.00,553.12 C 723.00,554.12 724.00,532.24 724.00,533.24M 724.00,533.24 C 724.00,534.24 725.00,512.27 725.00,513.27M 725.00,513.27 C 725.00,514.27 726.00,492.27 726.00,493.27M 726.00,493.27 C 726.00,494.27 727.00,472.29 727.00,473.29M 727.00,473.29 C 727.00,474.29 728.00,452.38 728.00,453.38M 728.00,453.38 C 728.00,454.38 729.00,432.58 729.00,433.58M 729.00,433.58 C 729.00,434.58 730.00,412.95 730.00,413.95M 730.00,413.95 C 730.00,414.95 731.00,393.54 731.00,394.54M 731.00,394.54 C 731.00,395.54 732.00,374.38 732.00,375.38M 732.00,375.38 C 732.00,376.38 733.00,355.54 733.00,356.54M 733.00,356.54 C 733.00,357.54 734.00,337.06 734.00,338.06M 734.00,338.06 C 734.00,339.06 735.00,318.98 735.00,319.98M 735.00,319.98 C 735.00,320.98 736.00,301.35 736.00,302.35M 736.00,302.35 C 736.00,303.35 737.00,284.22 737.00,285.22M 737.00,285.22 C 737.00,286.22 738.00,267.62 738.00,268.62M 738.00,268.62 C 738.00,269.62 739.00,251.61 739.00,252.61M 739.00,252.61 C 739.00,253.61 740.00,236.21 740.00,237.21M 740.00,237.21 C 740.00,238.21 741.00,221.46 741.00,222.46M 741.00,222.46 C 741.00,223.46 742.00,207.41 742.00,208.41M 742.00,208.41 C 742.00,209.41 743.00,194.09 743.00,195.09M 743.00,195.09 C 743.00,196.09 744.00,181.53 744.00,182.53M 744.00,182.53 C 744.00,183.53 745.00,169.77 745.00,170.77M 745.00,170.77 C 745.00,171.77 746.00,158.83 746.00,159.83M 746.00,159.83 C 746.00,160.83 746.99,148.73 747.00,149.73M 747.00,149.73 C 747.01,150.73 747.99,139.52 748.00,140.52M 748.00,140.52 C 748.01,141.52 748.99,131.20 749.00,132.20M 749.00,132.20 C 749.01,133.20 749.99,123.80 750.00,124.80M 750.00,124.80 C 750.01,125.80 750.99,117.34 751.00,118.34M 751.00,118.34 C 751.01,119.34 751.99,111.83 752.00,112.83M 752.00,112.83 C 752.01,113.83 752.99,107.29 753.00,108.29M 753.00,108.29 C 753.01,109.29 753.98,103.73 754.00,104.73M 754.00,104.73 C 754.02,105.73 754.98,101.16 755.00,102.16M 755.00,102.16 C 755.02,103.16 755.95,99.58 756.00,100.58M 756.00,100.58 C 756.05,101.58 756.47,99.16 757.00,100.00M 757.00,100.00 C 757.53,100.85 757.95,101.42 758.00,100.42M 758.00,100.42 C 758.05,99.42 758.97,102.84 759.00,101.84M 759.00,101.84 C 759.03,100.84 759.98,105.26 760.00,104.26M 760.00,104.26 C 760.02,103.26 760.99,108.66 761.00,107.66M 761.00,107.66 C 761.01,106.66 761.99,113.04 762.00,112.04M 762.00,112.04 C 762.01,111.04 762.99,118.40 763.00,117.40M 763.00,117.40 C 763.01,116.40 763.99,124.71 764.00,123.71M 764.00,123.71 C 764.01,122.71 764.99,131.96 765.00,130.96M 765.00,130.96 C 765.01,129.96 765.99,140.13 766.00,139.13M 766.00,139.13 C 766.01,138.13 766.99,149.21 767.00,148.21M 767.00,148.21 C 767.01,147.21 768.00,159.16 768.00,158.16M 768.00,158.16 C 768.00,157.16 769.00,169.97 769.00,168.97M 769.00,168.97 C 769.00,167.97 770.00,181.61 770.00,180.61M 770.00,180.61 C 770.00,179.61 771.00,194.04 771.00,193.04M 771.00,193.04 C 771.00,192.04 772.00,207.24 772.00,206.24M 772.00,206.24 C 772.00,205.24 773.00,221.18 773.00,220.18M 773.00,220.18 C 773.00,219.18 774.00,235.81 774.00,234.81M 774.00,234.81 C 774.00,233.81 775.00,251.11 775.00,250.11M 775.00,250.11 C 775.00,249.11 776.00,267.03 776.00,266.03M 776.00,266.03 C 776.00,265.03 777.00,283.54 777.00,282.54M 777.00,282.54 C 777.00,281.54 778.00,300.59 778.00,299.59M 778.00,299.59 C 778.00,298.59 779.00,318.14 779.00,317.14M 779.00,317.14 C 779.00,316.14 780.00,336.15 780.00,335.15M 780.00,335.15 C 780.00,334.15 781.00,354.57 781.00,353.57M 781.00,353.57 C 781.00,352.57 782.00,373.36 782.00,372.36M 782.00,372.36 C 782.00,371.36 783.00,392.47 783.00,391.47M 783.00,391.47 C 783.00,390.47 784.00,411.84 784.00,410.84M 784.00,410.84 C 784.00,409.84 785.00,431.44 785.00,430.44M 785.00,430.44 C 785.00,429.44 786.00,451.22 786.00,450.22M 786.00,450.22 C 786.00,449.22 787.00,471.12 787.00,470.12M 787.00,470.12 C 787.00,469.12 788.00,491.09 788.00,490.09M 788.00,490.09 C 788.00,489.09 789.00,511.09 789.00,510.09M 789.00,510.09 C 789.00,509.09 790.00,531.06 790.00,530.06M 790.00,530.06 C 790.00,529.06 791.00,550.96 791.00,549.96M 791.00,549.96 C 791.00,548.96 792.00,570.73 792.00,569.73M 792.00,569.73 C 792.00,568.73 793.00,590.33 793.00,589.33M 793.00,589.33 C 793.00,588.33 794.00,609.70 794.00,608.70M 794.00,608.70 C 794.00,607.70 795.00,628.81 795.00,627.81M 795.00,627.81 C 795.00,626.81 796.00,647.59 796.00,646.59M 796.00,646.59 C 796.00,645.59 797.00,666.01 797.00,665.01M 797.00,665.01 C 797.00,664.01 798.00,684.01 798.00,683.01M 798.00,683.01 C 798.00,682.01 799.00,701.56 799.00,700.56M 799.00,700.56 C 799.00,699.56 800.00,718.61 800.00,717.61M 800.00,717.61 C 800.00,716.61 801.00,735.11 801.00,734.11M 801.00,734.11 C 801.00,733.11 802.00,751.03 802.00,750.03M 802.00,750.03 C 802.00,749.03 803.00,766.32 803.00,765.32M 803.00,765.32 C 803.00,764.32 804.00,780.95 804.00,779.95M 804.00,779.95 C 804.00,778.95 805.00,794.88 805.00,793.88M 805.00,793.88 C 805.00,792.88 806.00,808.07 806.00,807.07M 806.00,807.07 C 806.00,806.07 807.00,820.50 807.00,819.50M 807.00,819.50 C 807.00,818.50 808.00,832.13 808.00,831.13M 808.00,831.13 C 808.00,830.13 809.00,842.93 809.00,841.93M 809.00,841.93 C 809.00,840.93 809.99,852.88 810.00,851.88M 810.00,851.88 C 810.01,850.88 810.99,861.95 811.00,860.95M 811.00,860.95 C 811.01,859.95 811.99,870.11 812.00,869.11M 812.00,869.11 C 812.01,868.11 812.99,877.35 813.00,876.35M 813.00,876.35 C 813.01,875.35 813.99,883.65 814.00,882.65M 814.00,882.65 C 814.01,881.65 814.99,889.00 815.00,888.00M 815.00,888.00 C 815.01,887.00 815.99,893.37 816.00,892.37M 816.00,892.37 C 816.01,891.37 816.98,896.77 817.00,895.77M 817.00,895.77 C 817.02,894.77 817.97,899.17 818.00,898.17M 818.00,898.17 C 818.03,897.17 818.95,900.58 819.00,899.58M 819.00,899.58 C 819.05,898.59 819.51,899.13 820.00,900.00M 820.00,900.00 C 820.49,900.87 820.95,898.41 821.00,899.41M 821.00,899.41 C 821.05,900.41 821.98,896.82 822.00,897.82M 822.00,897.82 C 822.02,898.82 822.98,894.24 823.00,895.24M 823.00,895.24 C 823.02,896.24 823.99,890.67 824.00,891.67M 824.00,891.67 C 824.01,892.67 824.99,886.12 825.00,887.12M 825.00,887.12 C 825.01,888.12 825.99,880.61 826.00,881.61M 826.00,881.61 C 826.01,882.61 826.99,874.14 827.00,875.14M 827.00,875.14 C 827.01,876.14 827.99,866.73 828.00,867.73M 828.00,867.73 C 828.01,868.73 828.99,858.41 829.00,859.41M 829.00,859.41 C 829.01,860.41 829.99,849.18 830.00,850.18M 830.00,850.18 C 830.01,851.18 831.00,839.08 831.00,840.08M 831.00,840.08 C 831.00,841.08 832.00,828.13 832.00,829.13M 832.00,829.13 C 832.00,830.13 833.00,816.36 833.00,817.36M 833.00,817.36 C 833.00,818.36 834.00,803.79 834.00,804.79M 834.00,804.79 C 834.00,805.79 835.00,790.47 835.00,791.47M 835.00,791.47 C 835.00,792.47 836.00,776.41 836.00,777.41M 836.00,777.41 C 836.00,778.41 837.00,761.66 837.00,762.66M 837.00,762.66 C 837.00,763.66 838.00,746.25 838.00,747.25M 838.00,747.25 C 838.00,748.25 839.00,730.23 839.00,731.23M 839.00,731.23 C 839.00,732.23 840.00,713.63 840.00,714.63M 840.00,714.63 C 840.00,715.63 841.00,696.49 841.00,697.49M 841.00,697.49 C 841.00,698.49 842.00,678.86 842.00,679.86M 842.00,679.86 C 842.00,680.86 843.00,660.78 843.00,661.78M 843.00,661.78 C 843.00,662.78 844.00,642.29 844.00,643.29M 844.00,643.29 C 844.00,644.29 845.00,623.45 845.00,624.45M 845.00,624.45 C 845.00,625.45 846.00,604.29 846.00,605.29M 846.00,605.29 C 846.00,606.29 847.00,584.87 847.00,585.87M 847.00,585.87 C 847.00,586.87 848.00,565.24 848.00,566.24M 848.00,566.24 C 848.00,567.24 849.00,545.44 849.00,546.44M 849.00,546.44 C 849.00,547.44 850.00,525.53 850.00,526.53M 850.00,526.53 C 850.00,527.53 851.00,505.55 851.00,506.55M 851.00,506.55 C 851.00,507.55 852.00,485.55 852.00,486.55M 852.00,486.55 C 852.00,487.55 853.00,465.59 853.00,466.59M 853.00,466.59 C 853.00,467.59 854.00,445.71 854.00,446.71M 854.00,446.71 C 854.00,447.71 855.00,425.96 855.00,426.96M 855.00,426.96 C 855.00,427.96 856.00,406.40 856.00,407.40M 856.00,407.40 C 856.00,408.40 857.00,387.06 857.00,388.06M 857.00,388.06 C 857.00,389.06 858.00,368.01 858.00,369.01M 858.00,369.01 C 858.00,370.01 859.00,349.28 859.00,350.28M 859.00,350.28 C 859.00,351.28 860.00,330.93 860.00,331.93M 860.00,331.93 C 860.00,332.93 861.00,313.00 861.00,314.00M 861.00,314.00 C 861.00,315.00 862.00,295.54 862.00,296.54M 862.00,296.54 C 862.00,297.54 863.00,278.58 863.00,279.58M 863.00,279.58 C 863.00,280.58 864.00,262.17 864.00,263.17M 864.00,263.17 C 864.00,264.17 865.00,246.36 865.00,247.36M 865.00,247.36 C 865.00,248.36 866.00,231.17 866.00,232.17M 866.00,232.17 C 866.00,233.17 867.00,216.66 867.00,217.66M 867.00,217.66 C 867.00,218.66 868.00,202.85 868.00,203.85M 868.00,203.85 C 868.00,204.85 869.00,189.78 869.00,190.78M 869.00,190.78 C 869.00,191.78 870.00,177.49 870.00,178.49M 870.00,178.49 C 870.00,179.49 871.00,165.99 871.00,166.99M 871.00,166.99 C 871.00,167.99 872.00,155.34 872.00,156.34M 872.00,156.34 C 872.00,157.34 872.99,145.53 873.00,146.53M 873.00,146.53 C 873.01,147.53 873.99,136.62 874.00,137.62M 874.00,137.62 C 874.01,138.62 874.99,128.61 875.00,129.61M 875.00,129.61 C 875.01,130.61 875.99,121.52 876.00,122.52M 876.00,122.52 C 876.01,123.52 876.99,115.38 877.00,116.38M 877.00,116.38 C 877.01,117.38 877.99,110.20 878.00,111.20M 878.00,111.20 C 878.01,112.20 878.99,105.99 879.00,106.99M 879.00,106.99 C 879.01,107.99 879.98,102.76 880.00,103.76M 880.00,103.76 C 880.02,104.76 880.97,100.52 881.00,101.52M 881.00,101.52 C 881.03,102.52 881.93,99.28 882.00,100.28M 882.00,100.28 C 882.07,101.27 882.81,101.01 883.00,100.03M 883.00,100.03 C 883.19,99.05 883.96,101.79 884.00,100.79M 884.00,100.79 C 884.04,99.79 884.98,103.54 885.00,102.54M 885.00,102.54 C 885.02,101.54 885.98,106.29 886.00,105.29M 886.00,105.29 C 886.02,104.29 886.99,110.03 887.00,109.03M 887.00,109.03 C 887.01,108.03 887.99,114.74 888.00,113.74M 888.00,113.74 C 888.01,112.74 888.99,120.41 889.00,119.41M 889.00,119.41 C 889.01,118.41 889.99,127.04 890.00,126.04M 890.00,126.04 C 890.01,125.04 890.99,134.60 891.00,133.60M 891.00,133.60 C 891.01,132.60 891.99,143.08 892.00,142.08M 892.00,142.08 C 892.01,141.08 892.99,152.46 893.00,151.46M 893.00,151.46 C 893.01,150.46 894.00,162.70 894.00,161.70M 894.00,161.70 C 894.00,160.70 895.00,173.79 895.00,172.79M 895.00,172.79 C 895.00,171.79 896.00,185.70 896.00,184.70M 896.00,184.70 C 896.00,183.70 897.00,198.40 897.00,197.40M 897.00,197.40 C 897.00,196.40 898.00,211.85 898.00,210.85M 898.00,210.85 C 898.00,209.85 899.00,226.02 899.00,225.02M 899.00,225.02 C 899.00,224.02 900.00,240.88 900.00,239.88M 900.00,239.88 C 900.00,238.88 901.00,256.40 901.00,255.40M 901.00,255.40 C 901.00,254.40 902.00,272.52 902.00,271.52M 902.00,271.52 C 902.00,270.52 903.00,289.22 903.00,288.22M 903.00,288.22 C 903.00,287.22 904.00,306.44 904.00,305.44M 904.00,305.44 C 904.00,304.44 905.00,324.15 905.00,323.15M 905.00,323.15 C 905.00,322.15 906.00,342.30 906.00,341.30M 906.00,341.30 C 906.00,340.30 907.00,360.85 907.00,359.85M 907.00,359.85 C 907.00,358.85 908.00,379.75 908.00,378.75M 908.00,378.75 C 908.00,377.75 909.00,398.96 909.00,397.96M 909.00,397.96 C 909.00,396.96 910.00,418.41 910.00,417.41M 910.00,417.41 C 910.00,416.41 911.00,438.08 911.00,437.08M 911.00,437.08 C 911.00,436.08 912.00,457.90 912.00,456.90M 912.00,456.90 C 912.00,455.90 913.00,477.83 913.00,476.83M 913.00,476.83 C 913.00,475.83 914.00,497.81 914.00,496.81M 914.00,496.81 C 914.00,495.81 915.00,517.81 915.00,516.81M 915.00,516.81 C 915.00,515.81 916.00,537.76 916.00,536.76M 916.00,536.76 C 916.00,535.76 917.00,557.62 917.00,556.62M 917.00,556.62 C 917.00,555.62 918.00,577.34 918.00,576.34M 918.00,576.34 C 918.00,575.34 919.00,596.87 919.00,595.87M 919.00,595.87 C 919.00,594.87 920.00,616.16 920.00,615.16M 920.00,615.16 C 920.00,614.16 921.00,635.16 921.00,634.16M 921.00,634.16 C 921.00,633.16 922.00,653.83 922.00,652.83M 922.00,652.83 C 922.00,651.83 923.00,672.11 923.00,671.11M 923.00,671.11 C 923.00,670.11 924.00,689.97 924.00,688.97M 924.00,688.97 C 924.00,687.97 925.00,707.35 925.00,706.35M 925.00,706.35 C 925.00,705.35 926.00,724.22 926.00,723.22M 926.00,723.22 C 926.00,722.22 927.00,740.53 927.00,739.53M 927.00,739.53 C 927.00,738.53 928.00,756.24 928.00,755.24M 928.00,755.24 C 928.00,754.24 929.00,771.32 929.00,770.32M 929.00,770.32 C 929.00,769.32 930.00,785.71 930.00,784.71M 930.00,784.71 C 930.00,783.71 931.00,799.40 931.00,798.40M 931.00,798.40 C 931.00,797.40 932.00,812.34 932.00,811.34M 932.00,811.34 C 932.00,810.34 933.00,824.50 933.00,823.50M 933.00,823.50 C 933.00,822.50 934.00,835.86 934.00,834.86M 934.00,834.86 C 934.00,833.86 935.00,846.37 935.00,845.37M 935.00,845.37 C 935.00,844.37 935.99,856.03 936.00,855.03M 936.00,855.03 C 936.01,854.03 936.99,864.79 937.00,863.79M 937.00,863.79 C 937.01,862.79 937.99,872.65 938.00,871.65M 938.00,871.65 C 938.01,870.65 938.99,879.58 939.00,878.58M 939.00,878.58 C 939.01,877.58 939.99,885.56 940.00,884.56M 940.00,884.56 C 940.01,883.56 940.99,890.58 941.00,889.58M 941.00,889.58 C 941.01,888.58 941.99,894.63 942.00,893.63M 942.00,893.63 C 942.01,892.63 942.98,897.69 943.00,896.69M 943.00,896.69 C 943.02,895.69 943.97,899.76 944.00,898.76M 944.00,898.76 C 944.03,897.76 944.91,900.83 945.00,899.83M 945.00,899.83 C 945.09,898.84 945.88,898.92 946.00,899.91M 946.00,899.91 C 946.12,900.90 946.96,897.99 947.00,898.99M 947.00,898.99 C 947.04,899.98 947.98,896.06 948.00,897.06M 948.00,897.06 C 948.02,898.06 948.99,893.15 949.00,894.15M 949.00,894.15 C 949.01,895.15 949.99,889.25 950.00,890.25M 950.00,890.25 C 950.01,891.25 950.99,884.38 951.00,885.38M 951.00,885.38 C 951.01,886.38 951.99,878.54 952.00,879.54M 952.00,879.54 C 952.01,880.54 952.99,871.75 953.00,872.75M 953.00,872.75 C 953.01,873.75 953.99,864.03 954.00,865.03M 954.00,865.03 C 954.01,866.03 954.99,855.40 955.00,856.40M 955.00,856.40 C 955.01,857.40 955.99,845.88 956.00,846.88M 956.00,846.88 C 956.01,847.88 957.00,835.49 957.00,836.49M 957.00,836.49 C 957.00,837.49 958.00,824.26 958.00,825.26M 958.00,825.26 C 958.00,826.26 959.00,812.22 959.00,813.22M 959.00,813.22 C 959.00,814.22 960.00,799.39 960.00,800.39M 960.00,800.39 C 960.00,801.39 961.00,785.82 961.00,786.82M 961.00,786.82 C 961.00,787.82 962.00,771.53 962.00,772.53M 962.00,772.53 C 962.00,773.53 963.00,756.55 963.00,757.55M 963.00,757.55 C 963.00,758.55 964.00,740.93 964.00,741.93M 964.00,741.93 C 964.00,742.93 965.00,724.71 965.00,725.71M 965.00,725.71 C 965.00,726.71 966.00,707.92 966.00,708.92M 966.00,708.92 C 966.00,709.92 967.00,690.61 967.00,691.61M 967.00,691.61 C 967.00,692.61 968.00,672.83 968.00,673.83M 968.00,673.83 C 968.00,674.83 969.00,654.60 969.00,655.60M 969.00,655.60 C 969.00,656.60 970.00,635.99 970.00,636.99M 970.00,636.99 C 970.00,637.99 971.00,617.04 971.00,618.04M 971.00,618.04 C 971.00,619.04 972.00,597.79 972.00,598.79M 972.00,598.79 C 972.00,599.79 973.00,578.29 973.00,579.29M 973.00,579.29 C 973.00,580.29 974.00,558.60 974.00,559.60M 974.00,559.60 C 974.00,560.60 975.00,538.76 975.00,539.76M 975.00,539.76 C 975.00,540.76 976.00,518.81 976.00,519.81M 976.00,519.81 C 976.00,520.81 977.00,498.82 977.00,499.82M 977.00,499.82 C 977.00,500.82 978.00,478.83 978.00,479.83M 978.00,479.83 C 978.00,480.83 979.00,458.89 979.00,459.89M 979.00,459.89 C 979.00,460.89 980.00,439.05 980.00,440.05M 980.00,440.05 C 980.00,441.05 981.00,419.36 981.00,420.36M 981.00,420.36 C 981.00,421.36 982.00,399.87 982.00,400.87M 982.00,400.87 C 982.00,401.87 983.00,380.62 983.00,381.62M 983.00,381.62 C 983.00,382.62 984.00,361.67 984.00,362.67M 984.00,362.67 C 984.00,363.67 985.00,343.07 985.00,344.07M 985.00,344.07 C 985.00,345.07 986.00,324.85 986.00,325.85M 986.00,325.85 C 986.00,326.85 987.00,307.07 987.00,308.07M 987.00,308.07 C 987.00,309.07 988.00,289.77 988.00,290.77M 988.00,290.77 C 988.00,291.77 989.00,273.00 989.00,274.00M 989.00,274.00 C 989.00,275.00 990.00,256.78 990.00,257.78M 990.00,257.78 C 990.00,258.78 991.00,241.18 991.00,242.18M 991.00,242.18 C 991.00,243.18 992.00,226.21 992.00,227.21M 992.00,227.21 C 992.00,228.21 993.00,211.93 993.00,212.93M 993.00,212.93 C 993.00,213.93 994.00,198.37 994.00,199.37M 994.00,199.37 C 994.00,200.37 995.00,185.56 995.00,186.56M 995.00,186.56 C 995.00,187.56 996.00,173.53 996.00,174.53M 996.00,174.53 C 996.00,175.53 997.00,162.32 997.00,163.32M 997.00,163.32 C 997.00,164.32 997.99,151.94 998.00,152.94M 998.00,152.94 C 998.01,153.94 998.99,142.44 999.00,143.44M 999.00,143.44 C 999.01,144.44 999.99,133.82 1000.00,134.82M 1000.00,134.82 C 1000.01,135.82 1000.99,126.12 1001.00,127.12M 1001.00,127.12 C 1001.01,128.12 1001.99,119.35 1002.00,120.35M 1002.00,120.35 C 1002.01,121.35 1002.99,113.53 1003.00,114.53M 1003.00,114.53 C 1003.01,115.53 1003.99,108.67 1004.00,109.67M 1004.00,109.67 C 1004.01,110.67 1004.99,104.79 1005.00,105.79M 1005.00,105.79 C 1005.01,106.79 1005.98,101.89 1006.00,102.89M 1006.00,102.89 C 1006.02,103.89 1006.96,99.99 1007.00,100.99M 1007.00,100.99 C 1007.04,101.99 1007.88,99.09 1008.00,100.08M 1008.00,100.08 C 1008.12,101.08 1008.92,101.17 1009.00,100.18M 1009.00,100.18 C 1009.08,99.18 1009.97,102.27 1010.00,101.27M 1010.00,101.27 C 1010.03,100.27 1010.98,104.36 1011.00,103.36M 1011.00,103.36 C 1011.02,102.36 1011.99,107.44 1012.00,106.44M 1012.00,106.44 C 1012.01,105.44 1012.99,111.50 1013.00,110.50M 1013.00,110.50 C 1013.01,109.50 1013.99,116.54 1014.00,115.54M 1014.00,115.54 C 1014.01,114.54 1014.99,122.54 1015.00,121.54M 1015.00,121.54 C 1015.01,120.54 1015.99,129.48 1016.00,128.48M 1016.00,128.48 C 1016.01,127.48 1016.99,137.35 1017.00,136.35M 1017.00,136.35 C 1017.01,135.36 1017.99,146.14 1018.00,145.14M 1018.00,145.14 C 1018.01,144.14 1019.00,155.81 1019.00,154.81M 1019.00,154.81 C 1019.00,153.81 1020.00,166.34 1020.00,165.34M 1020.00,165.34 C 1020.00,164.34 1021.00,177.71 1021.00,176.71M 1021.00,176.71 C 1021.00,175.71 1022.00,189.88 1022.00,188.88M 1022.00,188.88 C 1022.00,187.88 1023.00,202.84 1023.00,201.84M 1023.00,201.84 C 1023.00,200.84 1024.00,216.54 1024.00,215.54M 1024.00,215.54 C 1024.00,214.54 1025.00,230.95 1025.00,229.95M 1025.00,229.95 C 1025.00,228.95 1026.00,246.03 1026.00,245.03M 1026.00,245.03 C 1026.00,244.03 1027.00,261.75 1027.00,260.75M 1027.00,260.75 C 1027.00,259.75 1028.00,278.07 1028.00,277.07M 1028.00,277.07 C 1028.00,276.07 1029.00,294.95 1029.00,293.95M 1029.00,293.95 C 1029.00,292.95 1030.00,312.34 1030.00,311.34M 1030.00,311.34 C 1030.00,310.34 1031.00,330.21 1031.00,329.21M 1031.00,329.21 C 1031.00,328.21 1032.00,348.50 1032.00,347.50M 1032.00,347.50 C 1032.00,346.50 1033.00,367.17 1033.00,366.17M 1033.00,366.17 C 1033.00,365.17 1034.00,386.18 1034.00,385.18M 1034.00,385.18 C 1034.00,384.18 1035.00,405.47 1035.00,404.47M 1035.00,404.47 C 1035.00,403.47 1036.00,425.01 1036.00,424.01M 1036.00,424.01 C 1036.00,423.01 1037.00,444.73 1037.00,443.73M 1037.00,443.73 C 1037.00,442.73 1038.00,464.59 1038.00,463.59M 1038.00,463.59 C 1038.00,462.59 1039.00,484.55 1039.00,483.55M 1039.00,483.55 C 1039.00,482.55 1040.00,504.54 1040.00,503.54M 1040.00,503.54 C 1040.00,502.54 1041.00,524.53 1041.00,523.53M 1041.00,523.53 C 1041.00,522.53 1042.00,544.45 1042.00,543.45M 1042.00,543.45 C 1042.00,542.45 1043.00,564.27 1043.00,563.27M 1043.00,563.27 C 1043.00,562.27 1044.00,583.93 1044.00,582.93M 1044.00,582.93 C 1044.00,581.93 1045.00,603.39 1045.00,602.39M 1045.00,602.39 C 1045.00,601.39 1046.00,622.59 1046.00,621.59M 1046.00,621.59 C 1046.00,620.59 1047.00,641.48 1047.00,640.48M 1047.00,640.48 C 1047.00,639.48 1048.00,660.02 1048.00,659.02M 1048.00,659.02 C 1048.00,658.02 1049.00,678.17 1049.00,677.17M 1049.00,677.17 C 1049.00,676.17 1050.00,695.87 1050.00,694.87M 1050.00,694.87 C 1050.00,693.87 1051.00,713.09 1051.00,712.09M 1051.00,712.09 C 1051.00,711.09 1052.00,729.77 1052.00,728.77M 1052.00,728.77 C 1052.00,727.77 1053.00,745.88 1053.00,744.88M 1053.00,744.88 C 1053.00,743.88 1054.00,761.38 1054.00,760.38M 1054.00,760.38 C 1054.00,759.38 1055.00,776.24 1055.00,775.24M 1055.00,775.24 C 1055.00,774.24 1056.00,790.40 1056.00,789.40M 1056.00,789.40 C 1056.00,788.40 1057.00,803.84 1057.00,802.84M 1057.00,802.84 C 1057.00,801.84 1058.00,816.52 1058.00,815.52M 1058.00,815.52 C 1058.00,814.52 1059.00,828.41 1059.00,827.41M 1059.00,827.41 C 1059.00,826.41 1060.00,839.49 1060.00,838.49M 1060.00,838.49 C 1060.00,837.49 1060.99,849.72 1061.00,848.72M 1061.00,848.72 C 1061.01,847.72 1061.99,859.07 1062.00,858.07M 1062.00,858.07 C 1062.01,857.07 1062.99,867.54 1063.00,866.54M 1063.00,866.54 C 1063.01,865.54 1063.99,875.08 1064.00,874.08M 1064.00,874.08 C 1064.01,873.08 1064.99,881.70 1065.00,880.70M 1065.00,880.70 C 1065.01,879.70 1065.99,887.36 1066.00,886.36M 1066.00,886.36 C 1066.01,885.36 1066.99,892.05 1067.00,891.05M 1067.00,891.05 C 1067.01,890.05 1067.98,895.77 1068.00,894.77M 1068.00,894.77 C 1068.02,893.77 1068.98,898.50 1069.00,897.50M 1069.00,897.50 C 1069.02,896.50 1069.96,900.23 1070.00,899.23M 1070.00,899.23 C 1070.04,898.23 1070.80,900.95 1071.00,899.97M 1071.00,899.97 C 1071.20,898.99 1071.93,898.71 1072.00,899.71M 1072.00,899.71 C 1072.07,900.71 1072.97,897.45 1073.00,898.45M 1073.00,898.45 C 1073.03,899.45 1073.98,895.19 1074.00,896.19M 1074.00,896.19 C 1074.02,897.19 1074.99,891.95 1075.00,892.95M 1075.00,892.95 C 1075.01,893.95 1075.99,887.72 1076.00,888.72M 1076.00,888.72 C 1076.01,889.72 1076.99,882.52 1077.00,883.52M 1077.00,883.52 C 1077.01,884.52 1077.99,876.36 1078.00,877.36M 1078.00,877.36 C 1078.01,878.36 1078.99,869.26 1079.00,870.26M 1079.00,870.26 C 1079.01,871.26 1079.99,861.23 1080.00,862.23M 1080.00,862.23 C 1080.01,863.23 1080.99,852.30 1081.00,853.30M 1081.00,853.30 C 1081.01,854.30 1082.00,842.48 1082.00,843.48M 1082.00,843.48 C 1082.00,844.48 1083.00,831.81 1083.00,832.81M 1083.00,832.81 C 1083.00,833.81 1084.00,820.30 1084.00,821.30M 1084.00,821.30 C 1084.00,822.30 1085.00,807.99 1085.00,808.99M 1085.00,808.99 C 1085.00,809.99 1086.00,794.91 1086.00,795.91M 1086.00,795.91 C 1086.00,796.91 1087.00,781.09 1087.00,782.09M 1087.00,782.09 C 1087.00,783.09 1088.00,766.56 1088.00,767.56M 1088.00,767.56 C 1088.00,768.56 1089.00,751.37 1089.00,752.37M 1089.00,752.37 C 1089.00,753.37 1090.00,735.54 1090.00,736.54M 1090.00,736.54 C 1090.00,737.54 1091.00,719.13 1091.00,720.13M 1091.00,720.13 C 1091.00,721.13 1092.00,702.16 1092.00,703.16M 1092.00,703.16 C 1092.00,704.16 1093.00,684.68 1093.00,685.68M 1093.00,685.68 C 1093.00,686.68 1094.00,666.74 1094.00,667.74M 1094.00,667.74 C 1094.00,668.74 1095.00,648.39 1095.00,649.39M 1095.00,649.39 C 1095.00,650.39 1096.00,629.65 1096.00,630.65M 1096.00,630.65 C 1096.00,631.65 1097.00,610.60 1097.00,611.60M 1097.00,611.60 C 1097.00,612.60 1098.00,591.26 1098.00,592.26M 1098.00,592.26 C 1098.00,593.26 1099.00,571.69 1099.00,572.69M 1099.00,572.69 C 1099.00,573.69 1100.00,551.94 1100.00,552.94M 1100.00,552.94 C 1100.00,553.94 1101.00,532.06 1101.00,533.06M 1101.00,533.06 C 1101.00,534.06 1102.00,512.09 1102.00,513.09M 1102.00,513.09 C 1102.00,514.09 1103.00,492.10 1103.00,493.10M 1103.00,493.10 C 1103.00,494.10 1104.00,472.12 1104.00,473.12M 1104.00,473.12 C 1104.00,474.12 1105.00,452.20 1105.00,453.20M 1105.00,453.20 C 1105.00,454.20 1106.00,432.41 1106.00,433.41M 1106.00,433.41 C 1106.00,434.41 1107.00,412.78 1107.00,413.78M 1107.00,413.78 C 1107.00,414.78 1108.00,393.36 1108.00,394.36M 1108.00,394.36 C 1108.00,395.36 1109.00,374.21 1109.00,375.21M 1109.00,375.21 C 1109.00,376.21 1110.00,355.38 1110.00,356.38M 1110.00,356.38 C 1110.00,357.38 1111.00,336.90 1111.00,337.90M 1111.00,337.90 C 1111.00,338.90 1112.00,318.82 1112.00,319.82M 1112.00,319.82 C 1112.00,320.82 1113.00,301.20 1113.00,302.20M 1113.00,302.20 C 1113.00,303.20 1114.00,284.07 1114.00,285.07M 1114.00,285.07 C 1114.00,286.07 1115.00,267.48 1115.00,268.48M 1115.00,268.48 C 1115.00,269.48 1116.00,251.47 1116.00,252.47M 1116.00,252.47 C 1116.00,253.47 1117.00,236.07 1117.00,237.07M 1117.00,237.07 C 1117.00,238.07 1118.00,221.33 1118.00,222.33M 1118.00,222.33 C 1118.00,223.33 1119.00,207.29 1119.00,208.29M 1119.00,208.29 C 1119.00,209.29 1120.00,193.98 1120.00,194.98M 1120.00,194.98 C 1120.00,195.98 1121.00,181.42 1121.00,182.42M 1121.00,182.42 C 1121.00,183.42 1122.00,169.67 1122.00,170.67M 1122.00,170.67 C 1122.00,171.67 1123.00,158.73 1123.00,159.73M 1123.00,159.73 C 1123.00,160.73 1123.99,148.65 1124.00,149.65M 1124.00,149.65 C 1124.01,150.65 1124.99,139.44 1125.00,140.44M 1125.00,140.44 C 1125.01,141.44 1125.99,131.13 1126.00,132.13M 1126.00,132.13 C 1126.01,133.13 1126.99,123.74 1127.00,124.74M 1127.00,124.74 C 1127.01,125.74 1127.99,117.29 1128.00,118.29M 1128.00,118.29 C 1128.01,119.29 1128.99,111.79 1129.00,112.79M 1129.00,112.79 C 1129.01,113.79 1129.99,107.26 1130.00,108.26M 1130.00,108.26 C 1130.01,109.26 1130.98,103.71 1131.00,104.71M 1131.00,104.71 C 1131.02,105.71 1131.98,101.14 1132.00,102.14M 1132.00,102.14 C 1132.02,103.14 1132.95,99.57 1133.00,100.57M 1133.00,100.57 C 1133.05,101.57 1133.42,99.19 1134.00,100.00M 1134.00,100.00 C 1134.58,100.82 1134.95,101.43 1135.00,100.43M 1135.00,100.43 C 1135.05,99.43 1135.97,102.86 1136.00,101.86M 1136.00,101.86 C 1136.03,100.86 1136.98,105.28 1137.00,104.28M 1137.00,104.28 C 1137.02,103.28 1137.99,108.69 1138.00,107.69M 1138.00,107.69 C 1138.01,106.69 1138.99,113.09 1139.00,112.09M 1139.00,112.09 C 1139.01,111.09 1139.99,118.45 1140.00,117.45M 1140.00,117.45 C 1140.01,116.45 1140.99,124.77 1141.00,123.77M 1141.00,123.77 C 1141.01,122.77 1141.99,132.03 1142.00,131.03M 1142.00,131.03 C 1142.01,130.03 1142.99,140.21 1143.00,139.21M 1143.00,139.21 C 1143.01,138.21 1143.99,149.29 1144.00,148.29M 1144.00,148.29 C 1144.01,147.29 1145.00,159.25 1145.00,158.25M 1145.00,158.25 C 1145.00,157.25 1146.00,170.07 1146.00,169.07M 1146.00,169.07 C 1146.00,168.07 1147.00,181.71 1147.00,180.71M 1147.00,180.71 C 1147.00,179.71 1148.00,194.15 1148.00,193.15M 1148.00,193.15 C 1148.00,192.15 1149.00,207.36 1149.00,206.36M 1149.00,206.36 C 1149.00,205.36 1150.00,221.30 1150.00,220.30M 1150.00,220.30 C 1150.00,219.30 1151.00,235.95 1151.00,234.95M 1151.00,234.95 C 1151.00,233.95 1152.00,251.25 1152.00,250.25M 1152.00,250.25 C 1152.00,249.25 1153.00,267.18 1153.00,266.18M 1153.00,266.18 C 1153.00,265.18 1154.00,283.69 1154.00,282.69M 1154.00,282.69 C 1154.00,281.69 1155.00,300.75 1155.00,299.75M 1155.00,299.75 C 1155.00,298.75 1156.00,318.30 1156.00,317.30M 1156.00,317.30 C 1156.00,316.30 1157.00,336.31 1157.00,335.31M 1157.00,335.31 C 1157.00,334.31 1158.00,354.74 1158.00,353.74M 1158.00,353.74 C 1158.00,352.74 1159.00,373.53 1159.00,372.53M 1159.00,372.53 C 1159.00,371.53 1160.00,392.64 1160.00,391.64M 1160.00,391.64 C 1160.00,390.64 1161.00,412.02 1161.00,411.02M 1161.00,411.02 C 1161.00,410.02 1162.00,431.62 1162.00,430.62M 1162.00,430.62 C 1162.00,429.62 1163.00,451.39 1163.00,450.39M 1163.00,450.39 C 1163.00,449.39 1164.00,471.29 1164.00,470.29M 1164.00,470.29 C 1164.00,469.29 1165.00,491.27 1165.00,490.27M 1165.00,490.27 C 1165.00,489.27 1166.00,511.27 1166.00,510.27M 1166.00,510.27 C 1166.00,509.27 1167.00,531.24 1167.00,530.24M 1167.00,530.24 C 1167.00,529.24 1168.00,551.13 1168.00,550.13M 1168.00,550.13 C 1168.00,549.13 1169.00,570.91 1169.00,569.91M 1169.00,569.91 C 1169.00,568.91 1170.00,590.50 1170.00,589.50M 1170.00,589.50 C 1170.00,588.50 1171.00,609.88 1171.00,608.88M 1171.00,608.88 C 1171.00,607.88 1172.00,628.98 1172.00,627.98M 1172.00,627.98 C 1172.00,626.98 1173.00,647.76 1173.00,646.76M 1173.00,646.76 C 1173.00,645.76 1174.00,666.17 1174.00,665.17M 1174.00,665.17 C 1174.00,664.17 1175.00,684.17 1175.00,683.17M 1175.00,683.17 C 1175.00,682.17 1176.00,701.72 1176.00,700.72M 1176.00,700.72 C 1176.00,699.72 1177.00,718.76 1177.00,717.76M 1177.00,717.76 C 1177.00,716.76 1178.00,735.25 1178.00,734.25M 1178.00,734.25 C 1178.00,733.25 1179.00,751.17 1179.00,750.17M 1179.00,750.17 C 1179.00,749.17 1180.00,766.45 1180.00,765.45M 1180.00,765.45 C 1180.00,764.45 1181.00,781.08 1181.00,780.08M 1181.00,780.08 C 1181.00,779.08 1182.00,795.00 1182.00,794.00M 1182.00,794.00 C 1182.00,793.00 1183.00,808.19 1183.00,807.19M 1183.00,807.19 C 1183.00,806.19 1184.00,820.61 1184.00,819.61M 1184.00,819.61 C 1184.00,818.61 1185.00,832.23 1185.00,831.23M 1185.00,831.23 C 1185.00,830.23 1186.00,843.02 1186.00,842.02M 1186.00,842.02 C 1186.00,841.02 1186.99,852.96 1187.00,851.96M 1187.00,851.96 C 1187.01,850.96 1187.99,862.02 1188.00,861.02M 1188.00,861.02 C 1188.01,860.02 1188.99,870.18 1189.00,869.18M 1189.00,869.18 C 1189.01,868.18 1189.99,877.41 1190.00,876.41M 1190.00,876.41 C 1190.01,875.41 1190.99,883.71 1191.00,882.71M 1191.00,882.71 C 1191.01,881.71 1191.99,889.04 1192.00,888.04M 1192.00,888.04 C 1192.01,887.04 1192.99,893.41 1193.00,892.41M 1193.00,892.41 C 1193.01,891.41 1193.98,896.79 1194.00,895.79M 1194.00,895.79 C 1194.02,894.79 1194.97,899.19 1195.00,898.19M 1195.00,898.19 C 1195.03,897.19 1195.94,900.59 1196.00,899.59M 1196.00,899.59 C 1196.06,898.59 1196.54,899.11 1197.00,900.00M 1197.00,900.00 C 1197.46,900.88 1197.95,898.40 1198.00,899.40M 1198.00,899.40 C 1198.05,900.40 1198.98,896.80 1199.00,897.80" stroke="black" fill="none" stroke-width="2"/>
</svg>
