<?xml version="1.0" encoding="UTF-8"?>
<svg width="1200" height="1000" xmlns="http://www.w3.org/2000/svg">
  <path d="M 0.00,500.00 C 108.33,500.00 214.00,500.00 324.00,500.00M 324.00,500.00 C 330.65,500.00 334.69,500.00 343.00,500.00M 343.00,500.00 C 344.00,500.00 343.00,500.00 344.00,500.00M 344.00,500.00 C 345.00,500.00 344.00,500.00 345.00,500.00M 345.00,500.00 C 346.00,500.00 345.00,500.00 346.00,500.00M 346.00,500.00 C 347.00,500.00 346.00,500.00 347.00,500.00M 347.00,500.00 C 348.00,500.00 347.00,500.00 348.00,500.00M 348.00,500.00 C 349.00,500.00 348.00,500.00 349.00,500.00M 349.00,500.00 C 350.00,500.00 349.00,500.00 350.00,500.00M 350.00,500.00 C 351.00,500.00 350.00,500.00 351.00,500.00M 351.00,500.00 C 352.00,500.00 351.00,500.00 352.00,500.00M 352.00,500.00 C 353.00,500.00 352.00,500.00 353.00,500.00M 353.00,500.00 C 354.00,500.00 353.00,500.00 354.00,500.00M 354.00,500.00 C 355.00,500.00 354.00,500.00 355.00,500.00M 355.00,500.00 C 356.00,500.00 355.00,500.00 356.00,500.00M 356.00,500.00 C 357.00,500.00 356.00,500.00 357.00,500.00M 357.00,500.00 C 358.00,500.00 357.00,500.00 358.00,500.00M 358.00,500.00 C 359.00,500.00 358.00,500.00 359.00,500.00M 359.00,500.00 C 360.00,500.00 359.00,500.00 360.00,500.00M 360.00,500.00 C 361.00,500.00 360.00,500.00 361.00,500.00M 361.00,500.00 C 362.00,500.00 361.00,500.00 362.00,500.00M 362.00,500.00 C 363.00,500.00 362.00,500.00 363.00,500.00M 363.00,500.00 C 364.00,500.00 363.00,500.00 364.00,500.00M 364.00,500.00 C 365.00,500.00 364.00,500.00 365.00,500.00M 365.00,500.00 C 366.00,500.00 365.00,500.00 366.00,500.00M 366.00,500.00 C 367.00,500.00 366.00,500.00 367.00,500.00M 367.00,500.00 C 368.00,500.00 367.00,500.00 368.00,500.00M 368.00,500.00 C 369.00,500.00 368.00,500.00 369.00,500.00M 369.00,500.00 C 370.00,500.00 369.00,500.00 370.00,500.00M 370.00,500.00 C 371.00,500.00 370.00,500.00 371.00,500.00M 371.00,500.00 C 372.00,500.00 371.00,500.00 372.00,500.00M 372.00,500.00 C 373.00,500.00 372.00,500.00 373.00,500.00M 373.00,500.00 C 374.00,500.00 373.00,500.00 374.00,500.00M 374.00,500.00 C 375.00,500.00 374.00,500.00 375.00,500.00M 375.00,500.00 C 376.00,500.00 375.00,500.00 376.00,500.00M 376.00,500.00 C 377.00,500.00 376.00,500.00 377.00,500.00M 377.00,500.00 C 378.00,500.00 377.00,500.00 378.00,500.00M 378.00,500.00 C 379.00,500.00 378.00,500.00 379.00,500.00M 379.00,500.00 C 380.00,500.00 379.00,500.00 380.00,500.00M 380.00,500.00 C 381.00,500.00 380.00,500.00 381.00,500.00M 381.00,500.00 C 382.00,500.00 381.00,500.00 382.00,500.00M 382.00,500.00 C 383.00,500.00 382.00,500.00 383.00,500.00M 383.00,500.00 C 384.00,500.00 383.00,500.00 384.00,500.00M 384.00,500.00 C 385.00,500.00 384.00,500.00 385.00,500.00M 385.00,500.00 C 386.00,500.00 385.00,500.00 386.00,500.00M 386.00,500.00 C 387.00,500.00 386.00,500.00 387.00,500.00M 387.00,500.00 C 388.00,500.00 387.00,500.00 388.00,500.00M 388.00,500.00 C 389.00,500.00 388.00,500.00 389.00,500.00M 389.00,500.00 C 390.00,500.00 389.00,500.00 390.00,500.00M 390.00,500.00 C 391.00,500.00 390.00,500.00 391.00,500.00M 391.00,500.00 C 392.00,500.00 391.00,500.00 392.00,500.00M 392.00,500.00 C 393.00,500.00 392.00,500.00 393.00,500.00M 393.00,500.00 C 394.00,500.00 393.00,500.00 394.00,500.00M 394.00,500.00 C 395.00,500.00 394.00,500.00 395.00,500.00M 395.00,500.00 C 396.00,500.00 395.00,500.00 396.00,500.00M 396.00,500.00 C 397.00,500.00 396.00,500.00 397.00,500.00M 397.00,500.00 C 398.00,500.00 397.00,500.00 398.00,500.00M 398.00,500.00 C 399.00,500.00 398.00,500.00 399.00,500.00M 399.00,500.00 C 400.00,500.00 399.00,500.00 400.00,500.00M 400.00,500.00 C 401.00,500.00 400.00,500.00 401.00,500.00M 401.00,500.00 C 402.00,500.00 401.00,500.00 402.00,500.00M 402.00,500.00 C 403.00,500.00 402.00,500.00 403.00,500.00M 403.00,500.00 C 404.00,500.00 403.00,500.00 404.00,500.00M 404.00,500.00 C 405.00,500.00 404.00,500.00 405.00,500.00M 405.00,500.00 C 406.00,500.00 405.00,500.00 406.00,500.00M 406.00,500.00 C 407.00,500.00 406.00,500.00 407.00,500.00M 407.00,500.00 C 408.00,500.00 407.00,500.00 408.00,500.00M 408.00,500.00 C 409.00,500.00 408.00,500.00 409.00,500.00M 409.00,500.00 C 410.00,500.00 409.00,500.00 410.00,500.00M 410.00,500.00 C 411.00,500.00 410.00,500.00 411.00,500.00M 411.00,500.00 C 412.00,500.00 411.00,500.00 412.00,500.00M 412.00,500.00 C 413.00,500.00 412.00,500.00 413.00,500.00M 413.00,500.00 C 414.00,500.00 413.00,500.00 414.00,500.00M 414.00,500.00 C 415.00,500.00 414.00,500.00 415.00,500.00M 415.00,500.00 C 416.00,500.00 415.00,500.00 416.00,500.00M 416.00,500.00 C 417.00,500.00 416.00,500.00 417.00,500.00M 417.00,500.00 C 418.00,500.00 417.00,500.00 418.00,500.00M 418.00,500.00 C 419.00,500.00 418.00,500.00 419.00,500.00M 419.00,500.00 C 420.00,500.00 419.00,500.00 420.00,500.00M 420.00,500.00 C 421.00,500.00 420.00,500.00 421.00,500.00M 421.00,500.00 C 422.00,500.00 421.00,500.00 422.00,500.00M 422.00,500.00 C 423.00,499.99 422.00,500.00 423.00,499.99M 423.00,499.99 C 424.00,499.99 423.00,499.99 424.00,499.99M 424.00,499.99 C 425.00,499.99 424.00,499.99 425.00,499.99M 425.00,499.99 C 426.00,499.99 425.00,499.99 426.00,499.99M 426.00,499.99 C 427.00,499.99 426.00,499.99 427.00,499.99M 427.00,499.99 C 428.00,499.99 427.00,499.99 428.00,499.99M 428.00,499.99 C 429.00,499.99 428.00,499.99 429.00,499.99M 429.00,499.99 C 430.00,499.99 429.00,499.99 430.00,499.99M 430.00,499.99 C 431.00,499.99 430.00,499.99 431.00,499.99M 431.00,499.99 C 432.00,499.99 431.00,499.99 432.00,499.99M 432.00,499.99 C 433.00,499.98 432.00,499.99 433.00,499.98M 433.00,499.98 C 434.00,499.98 433.00,499.98 434.00,499.98M 434.00,499.98 C 435.00,499.98 434.00,499.98 435.00,499.98M 435.00,499.98 C 436.00,499.98 435.00,499.98 436.00,499.98M 436.00,499.98 C 437.00,499.98 436.00,499.98 437.00,499.98M 437.00,499.98 C 438.00,499.97 437.00,499.98 438.00,499.97M 438.00,499.97 C 439.00,499.97 438.00,499.97 439.00,499.97M 439.00,499.97 C 440.00,499.97 439.00,499.97 440.00,499.97M 440.00,499.97 C 441.00,499.96 440.00,499.97 441.00,499.96M 441.00,499.96 C 442.00,499.96 441.00,499.96 442.00,499.96M 442.00,499.96 C 443.00,499.95 442.00,499.96 443.00,499.95M 443.00,499.95 C 444.00,499.95 443.00,499.95 444.00,499.95M 444.00,499.95 C 445.00,499.95 444.00,499.95 445.00,499.95M 445.00,499.95 C 446.00,499.94 445.00,499.95 446.00,499.94M 446.00,499.94 C 447.00,499.93 446.00,499.94 447.00,499.93M 447.00,499.93 C 448.00,499.93 447.00,499.93 448.00,499.93M 448.00,499.93 C 449.00,499.92 448.00,499.93 449.00,499.92M 449.00,499.92 C 450.00,499.91 449.00,499.92 450.00,499.91M 450.00,499.91 C 451.00,499.90 450.00,499.91 451.00,499.90M 451.00,499.90 C 452.00,499.89 451.00,499.90 452.00,499.89M 452.00,499.89 C 453.00,499.88 452.00,499.89 453.00,499.88M 453.00,499.88 C 454.00,499.87 453.00,499.88 454.00,499.87M 454.00,499.87 C 455.00,499.86 454.00,499.87 455.00,499.86M 455.00,499.86 C 456.00,499.85 455.00,499.86 456.00,499.85M 456.00,499.85 C 457.00,499.83 456.00,499.85 457.00,499.83M 457.00,499.83 C 458.00,499.82 457.00,499.83 458.00,499.82M 458.00,499.82 C 459.00,499.80 458.00,499.82 459.00,499.80M 459.00,499.80 C 460.00,499.78 459.00,499.80 460.00,499.78M 460.00,499.78 C 461.00,499.76 460.00,499.78 461.00,499.76M 461.00,499.76 C 462.00,499.74 461.00,499.76 462.00,499.74M 462.00,499.74 C 463.00,499.72 462.00,499.74 463.00,499.72M 463.00,499.72 C 464.00,499.69 463.00,499.72 464.00,499.69M 464.00,499.69 C 465.00,499.66 464.00,499.69 465.00,499.66M 465.00,499.66 C 466.00,499.64 465.00,499.66 466.00,499.64M 466.00,499.64 C 467.00,499.60 466.00,499.64 467.00,499.60M 467.00,499.60 C 468.00,499.57 467.00,499.60 468.00,499.57M 468.00,499.57 C 469.00,499.53 468.00,499.57 469.00,499.53M 469.00,499.53 C 470.00,499.49 469.00,499.53 470.00,499.49M 470.00,499.49 C 471.00,499.45 470.00,499.49 471.00,499.45M 471.00,499.45 C 472.00,499.40 471.00,499.45 472.00,499.40M 472.00,499.40 C 473.00,499.35 472.00,499.40 473.00,499.35M 473.00,499.35 C 474.00,499.30 473.00,499.35 474.00,499.30M 474.00,499.30 C 475.00,499.24 474.00,499.30 475.00,499.24M 475.00,499.24 C 476.00,499.18 475.00,499.24 476.00,499.18M 476.00,499.18 C 477.00,499.12 476.00,499.18 477.00,499.12M 477.00,499.12 C 478.00,499.05 477.00,499.12 478.00,499.05M 478.00,499.05 C 479.00,498.97 478.00,499.05 479.00,498.97M 479.00,498.97 C 480.00,498.89 479.00,498.97 480.00,498.89M 480.00,498.89 C 481.00,498.81 480.00,498.89 481.00,498.81M 481.00,498.81 C 482.00,498.71 481.00,498.81 482.00,498.71M 482.00,498.71 C 483.00,498.62 482.00,498.71 483.00,498.62M 483.00,498.62 C 484.00,498.51 483.00,498.62 484.00,498.51M 484.00,498.51 C 485.00,498.40 484.00,498.51 485.00,498.40M 485.00,498.40 C 486.00,498.28 485.00,498.40 486.00,498.28M 486.00,498.28 C 487.00,498.16 486.00,498.28 487.00,498.16M 487.00,498.16 C 488.00,498.02 487.00,498.16 488.00,498.02M 488.00,498.02 C 489.00,497.88 488.00,498.02 489.00,497.88M 489.00,497.88 C 490.00,497.73 489.00,497.88 490.00,497.73M 490.00,497.73 C 491.00,497.57 490.00,497.73 491.00,497.57M 491.00,497.57 C 492.00,497.39 491.00,497.57 492.00,497.39M 492.00,497.39 C 493.00,497.21 492.00,497.39 493.00,497.21M 493.00,497.21 C 494.00,497.02 493.00,497.21 494.00,497.02M 494.00,497.02 C 495.00,496.82 494.00,497.02 495.00,496.82M 495.00,496.82 C 496.00,496.60 495.00,496.82 496.00,496.60M 496.00,496.60 C 497.00,496.38 496.00,496.60 497.00,496.38M 497.00,496.38 C 498.00,496.14 497.00,496.38 498.00,496.14M 498.00,496.14 C 499.00,495.88 498.00,496.14 499.00,495.88M 499.00,495.88 C 500.00,495.62 499.00,495.88 500.00,495.62M 500.00,495.62 C 501.00,495.34 500.00,495.62 501.00,495.34M 501.00,495.34 C 502.00,495.04 501.00,495.34 502.00,495.04M 502.00,495.04 C 503.00,494.73 502.00,495.04 503.00,494.73M 503.00,494.73 C 504.00,494.40 503.00,494.73 504.00,494.40M 504.00,494.40 C 505.00,494.06 504.00,494.40 505.00,494.06M 505.00,494.06 C 506.00,493.70 505.00,494.06 506.00,493.70M 506.00,493.70 C 507.00,493.32 506.00,493.70 507.00,493.32M 507.00,493.32 C 508.00,492.92 507.00,493.32 508.00,492.92M 508.00,492.92 C 509.00,492.50 508.00,492.92 509.00,492.50M 509.00,492.50 C 510.00,492.07 509.00,492.50 510.00,492.07M 510.00,492.07 C 511.00,491.61 510.00,492.07 511.00,491.61M 511.00,491.61 C 512.00,491.13 511.00,491.61 512.00,491.13M 512.00,491.13 C 513.00,490.63 512.00,491.13 513.00,490.63M 513.00,490.63 C 514.00,490.11 513.00,490.63 514.00,490.11M 514.00,490.11 C 515.00,489.57 514.00,490.11 515.00,489.57M 515.00,489.57 C 516.00,489.00 515.00,489.57 516.00,489.00M 516.00,489.00 C 517.00,488.42 516.00,489.00 517.00,488.42M 517.00,488.42 C 518.00,487.80 517.00,488.42 518.00,487.80M 518.00,487.80 C 519.00,487.16 518.00,487.80 519.00,487.16M 519.00,487.16 C 520.00,486.50 519.00,487.16 520.00,486.50M 520.00,486.50 C 521.00,485.81 520.00,486.50 521.00,485.81M 521.00,485.81 C 522.00,485.10 521.00,485.81 522.00,485.10M 522.00,485.10 C 523.00,484.36 522.00,485.10 523.00,484.36M 523.00,484.36 C 524.00,483.60 523.00,484.36 524.00,483.60M 524.00,483.60 C 525.00,482.80 524.00,483.60 525.00,482.80M 525.00,482.80 C 526.00,481.98 525.00,482.80 526.00,481.98M 526.00,481.98 C 527.00,481.14 526.00,481.98 527.00,481.14M 527.00,481.14 C 528.00,480.26 527.00,481.14 528.00,480.26M 528.00,480.26 C 529.00,479.36 528.00,480.26 529.00,479.36M 529.00,479.36 C 530.00,478.43 529.00,479.36 530.00,478.43M 530.00,478.43 C 531.00,477.47 530.00,478.43 531.00,477.47M 531.00,477.47 C 532.00,476.49 531.00,477.47 532.00,476.49M 532.00,476.49 C 533.00,475.47 532.00,476.49 533.00,475.47M 533.00,475.47 C 534.00,474.43 533.00,475.47 534.00,474.43M 534.00,474.43 C 535.00,473.37 534.00,474.43 535.00,473.37M 535.00,473.37 C 536.00,472.27 535.00,473.37 536.00,472.27M 536.00,472.27 C 537.00,471.15 536.00,472.27 537.00,471.15M 537.00,471.15 C 538.00,470.00 537.00,471.15 538.00,470.00M 538.00,470.00 C 539.00,468.82 538.00,470.00 539.00,468.82M 539.00,468.82 C 540.00,467.62 539.00,468.82 540.00,467.62M 540.00,467.62 C 541.00,466.39 540.00,467.62 541.00,466.39M 541.00,466.39 C 542.00,465.14 541.00,466.39 542.00,465.14M 542.00,465.14 C 543.00,463.87 542.00,465.14 543.00,463.87M 543.00,463.87 C 544.00,462.57 543.00,463.87 544.00,462.57M 544.00,462.57 C 545.00,461.25 544.00,462.57 545.00,461.25M 545.00,461.25 C 546.00,459.90 545.00,461.25 546.00,459.90M 546.00,459.90 C 547.00,458.54 546.00,459.90 547.00,458.54M 547.00,458.54 C 548.00,457.16 547.00,458.54 548.00,457.16M 548.00,457.16 C 549.00,455.76 548.00,457.16 549.00,455.76M 549.00,455.76 C 550.00,454.34 549.00,455.76 550.00,454.34M 550.00,454.34 C 551.00,452.90 550.00,454.34 551.00,452.90M 551.00,452.90 C 552.00,451.45 551.00,452.90 552.00,451.45M 552.00,451.45 C 553.00,449.99 552.00,451.45 553.00,449.99M 553.00,449.99 C 554.00,448.52 553.00,449.99 554.00,448.52M 554.00,448.52 C 555.00,447.03 554.00,448.52 555.00,447.03M 555.00,447.03 C 556.00,445.54 555.00,447.03 556.00,445.54M 556.00,445.54 C 557.00,444.04 556.00,445.54 557.00,444.04M 557.00,444.04 C 558.00,442.53 557.00,444.04 558.00,442.53M 558.00,442.53 C 559.00,441.02 558.00,442.53 559.00,441.02M 559.00,441.02 C 560.00,439.51 559.00,441.02 560.00,439.51M 560.00,439.51 C 561.00,438.00 560.00,439.51 561.00,438.00M 561.00,438.00 C 562.00,436.49 561.00,438.00 562.00,436.49M 562.00,436.49 C 563.00,434.98 562.00,436.49 563.00,434.98M 563.00,434.98 C 564.00,433.48 563.00,434.98 564.00,433.48M 564.00,433.48 C 565.00,431.99 564.00,433.48 565.00,431.99M 565.00,431.99 C 566.00,430.50 565.00,431.99 566.00,430.50M 566.00,430.50 C 567.00,429.03 566.00,430.50 567.00,429.03M 567.00,429.03 C 568.00,427.58 567.00,429.03 568.00,427.58M 568.00,427.58 C 569.00,426.14 568.00,427.58 569.00,426.14M 569.00,426.14 C 570.00,424.72 569.00,426.14 570.00,424.72M 570.00,424.72 C 571.00,423.31 570.00,424.72 571.00,423.31M 571.00,423.31 C 572.00,421.94 571.00,423.31 572.00,421.94M 572.00,421.94 C 573.00,420.58 572.00,421.94 573.00,420.58M 573.00,420.58 C 574.00,419.26 573.00,420.58 574.00,419.26M 574.00,419.26 C 575.00,417.96 574.00,419.26 575.00,417.96M 575.00,417.96 C 576.00,416.69 575.00,417.96 576.00,416.69M 576.00,416.69 C 577.00,415.46 576.00,416.69 577.00,415.46M 577.00,415.46 C 578.00,414.26 577.00,415.46 578.00,414.26M 578.00,414.26 C 579.00,413.10 578.00,414.26 579.00,413.10M 579.00,413.10 C 580.00,411.98 579.00,413.10 580.00,411.98M 580.00,411.98 C 581.00,410.90 580.00,411.98 581.00,410.90M 581.00,410.90 C 582.00,409.87 581.00,410.90 582.00,409.87M 582.00,409.87 C 583.00,408.88 582.00,409.87 583.00,408.88M 583.00,408.88 C 584.00,407.93 583.00,408.88 584.00,407.93M 584.00,407.93 C 585.00,407.04 584.00,407.93 585.00,407.04M 585.00,407.04 C 586.00,406.19 585.00,407.04 586.00,406.19M 586.00,406.19 C 587.00,405.40 586.00,406.19 587.00,405.40M 587.00,405.40 C 588.00,404.65 587.00,405.40 588.00,404.65M 588.00,404.65 C 589.00,403.97 588.00,404.65 589.00,403.97M 589.00,403.97 C 590.00,403.33 589.00,403.97 590.00,403.33M 590.00,403.33 C 591.00,402.76 590.00,403.33 591.00,402.76M 591.00,402.76 C 592.00,402.24 591.00,402.76 592.00,402.24M 592.00,402.24 C 593.00,401.78 592.00,402.24 593.00,401.78M 593.00,401.78 C 594.00,401.38 593.00,401.78 594.00,401.38M 594.00,401.38 C 595.00,401.04 594.00,401.38 595.00,401.04M 595.00,401.04 C 596.00,400.76 595.00,401.04 596.00,400.76M 596.00,400.76 C 597.00,400.54 596.00,400.76 597.00,400.54M 597.00,400.54 C 598.00,400.39 597.00,400.54 598.00,400.39M 598.00,400.39 C 599.00,400.30 598.00,400.39 599.00,400.30M 599.00,400.30 C 600.00,400.26 599.00,400.30 600.00,400.26M 600.00,400.26 C 601.00,400.30 600.00,400.26 601.00,400.30M 601.00,400.30 C 602.00,400.39 601.00,400.30 602.00,400.39M 602.00,400.39 C 603.00,400.54 602.00,400.39 603.00,400.54M 603.00,400.54 C 604.00,400.76 603.00,400.54 604.00,400.76M 604.00,400.76 C 605.00,401.04 604.00,400.76 605.00,401.04M 605.00,401.04 C 606.00,401.38 605.00,401.04 606.00,401.38M 606.00,401.38 C 607.00,401.78 606.00,401.38 607.00,401.78M 607.00,401.78 C 608.00,402.24 607.00,401.78 608.00,402.24M 608.00,402.24 C 609.00,402.76 608.00,402.24 609.00,402.76M 609.00,402.76 C 610.00,403.33 609.00,402.76 610.00,403.33M 610.00,403.33 C 611.00,403.97 610.00,403.33 611.00,403.97M 611.00,403.97 C 612.00,404.65 611.00,403.97 612.00,404.65M 612.00,404.65 C 613.00,405.40 612.00,404.65 613.00,405.40M 613.00,405.40 C 614.00,406.19 613.00,405.40 614.00,406.19M 614.00,406.19 C 615.00,407.04 614.00,406.19 615.00,407.04M 615.00,407.04 C 616.00,407.93 615.00,407.04 616.00,407.93M 616.00,407.93 C 617.00,408.88 616.00,407.93 617.00,408.88M 617.00,408.88 C 618.00,409.87 617.00,408.88 618.00,409.87M 618.00,409.87 C 619.00,410.90 618.00,409.87 619.00,410.90M 619.00,410.90 C 620.00,411.98 619.00,410.90 620.00,411.98M 620.00,411.98 C 621.00,413.10 620.00,411.98 621.00,413.10M 621.00,413.10 C 622.00,414.26 621.00,413.10 622.00,414.26M 622.00,414.26 C 623.00,415.46 622.00,414.26 623.00,415.46M 623.00,415.46 C 624.00,416.69 623.00,415.46 624.00,416.69M 624.00,416.69 C 625.00,417.96 624.00,416.69 625.00,417.96M 625.00,417.96 C 626.00,419.26 625.00,417.96 626.00,419.26M 626.00,419.26 C 627.00,420.58 626.00,419.26 627.00,420.58M 627.00,420.58 C 628.00,421.94 627.00,420.58 628.00,421.94M 628.00,421.94 C 629.00,423.31 628.00,421.94 629.00,423.31M 629.00,423.31 C 630.00,424.72 629.00,423.31 630.00,424.72M 630.00,424.72 C 631.00,426.14 630.00,424.72 631.00,426.14M 631.00,426.14 C 632.00,427.58 631.00,426.14 632.00,427.58M 632.00,427.58 C 633.00,429.03 632.00,427.58 633.00,429.03M 633.00,429.03 C 634.00,430.50 633.00,429.03 634.00,430.50M 634.00,430.50 C 635.00,431.99 634.00,430.50 635.00,431.99M 635.00,431.99 C 636.00,433.48 635.00,431.99 636.00,433.48M 636.00,433.48 C 637.00,434.98 636.00,433.48 637.00,434.98M 637.00,434.98 C 638.00,436.49 637.00,434.98 638.00,436.49M 638.00,436.49 C 639.00,438.00 638.00,436.49 639.00,438.00M 639.00,438.00 C 640.00,439.51 639.00,438.00 640.00,439.51M 640.00,439.51 C 641.00,441.02 640.00,439.51 641.00,441.02M 641.00,441.02 C 642.00,442.53 641.00,441.02 642.00,442.53M 642.00,442.53 C 643.00,444.04 642.00,442.53 643.00,444.04M 643.00,444.04 C 644.00,445.54 643.00,444.04 644.00,445.54M 644.00,445.54 C 645.00,447.03 644.00,445.54 645.00,447.03M 645.00,447.03 C 646.00,448.52 645.00,447.03 646.00,448.52M 646.00,448.52 C 647.00,449.99 646.00,448.52 647.00,449.99M 647.00,449.99 C 648.00,451.45 647.00,449.99 648.00,451.45M 648.00,451.45 C 649.00,452.90 648.00,451.45 649.00,452.90M 649.00,452.90 C 650.00,454.34 649.00,452.90 650.00,454.34M 650.00,454.34 C 651.00,455.76 650.00,454.34 651.00,455.76M 651.00,455.76 C 652.00,457.16 651.00,455.76 652.00,457.16M 652.00,457.16 C 653.00,458.54 652.00,457.16 653.00,458.54M 653.00,458.54 C 654.00,459.90 653.00,458.54 654.00,459.90M 654.00,459.90 C 655.00,461.25 654.00,459.90 655.00,461.25M 655.00,461.25 C 656.00,462.57 655.00,461.25 656.00,462.57M 656.00,462.57 C 657.00,463.87 656.00,462.57 657.00,463.87M 657.00,463.87 C 658.00,465.14 657.00,463.87 658.00,465.14M 658.00,465.14 C 659.00,466.39 658.00,465.14 659.00,466.39M 659.00,466.39 C 660.00,467.62 659.00,466.39 660.00,467.62M 660.00,467.62 C 661.00,468.82 660.00,467.62 661.00,468.82M 661.00,468.82 C 662.00,470.00 661.00,468.82 662.00,470.00M 662.00,470.00 C 663.00,471.15 662.00,470.00 663.00,471.15M 663.00,471.15 C 664.00,472.27 663.00,471.15 664.00,472.27M 664.00,472.27 C 665.00,473.37 664.00,472.27 665.00,473.37M 665.00,473.37 C 666.00,474.43 665.00,473.37 666.00,474.43M 666.00,474.43 C 667.00,475.47 666.00,474.43 667.00,475.47M 667.00,475.47 C 668.00,476.49 667.00,475.47 668.00,476.49M 668.00,476.49 C 669.00,477.47 668.00,476.49 669.00,477.47M 669.00,477.47 C 670.00,478.43 669.00,477.47 670.00,478.43M 670.00,478.43 C 671.00,479.36 670.00,478.43 671.00,479.36M 671.00,479.36 C 672.00,480.26 671.00,479.36 672.00,480.26M 672.00,480.26 C 673.00,481.14 672.00,480.26 673.00,481.14M 673.00,481.14 C 674.00,481.98 673.00,481.14 674.00,481.98M 674.00,481.98 C 675.00,482.80 674.00,481.98 675.00,482.80M 675.00,482.80 C 676.00,483.60 675.00,482.80 676.00,483.60M 676.00,483.60 C 677.00,484.36 676.00,483.60 677.00,484.36M 677.00,484.36 C 678.00,485.10 677.00,484.36 678.00,485.10M 678.00,485.10 C 679.00,485.81 678.00,485.10 679.00,485.81M 679.00,485.81 C 680.00,486.50 679.00,485.81 680.00,486.50M 680.00,486.50 C 681.00,487.16 680.00,486.50 681.00,487.16M 681.00,487.16 C 682.00,487.80 681.00,487.16 682.00,487.80M 682.00,487.80 C 683.00,488.42 682.00,487.80 683.00,488.42M 683.00,488.42 C 684.00,489.00 683.00,488.42 684.00,489.00M 684.00,489.00 C 685.00,489.57 684.00,489.00 685.00,489.57M 685.00,489.57 C 686.00,490.11 685.00,489.57 686.00,490.11M 686.00,490.11 C 687.00,490.63 686.00,490.11 687.00,490.63M 687.00,490.63 C 688.00,491.13 687.00,490.63 688.00,491.13M 688.00,491.13 C 689.00,491.61 688.00,491.13 689.00,491.61M 689.00,491.61 C 690.00,492.07 689.00,491.61 690.00,492.07M 690.00,492.07 C 691.00,492.50 690.00,492.07 691.00,492.50M 691.00,492.50 C 692.00,492.92 691.00,492.50 692.00,492.92M 692.00,492.92 C 693.00,493.32 692.00,492.92 693.00,493.32M 693.00,493.32 C 694.00,493.70 693.00,493.32 694.00,493.70M 694.00,493.70 C 695.00,494.06 694.00,493.70 695.00,494.06M 695.00,494.06 C 696.00,494.40 695.00,494.06 696.00,494.40M 696.00,494.40 C 697.00,494.73 696.00,494.40 697.00,494.73M 697.00,494.73 C 698.00,495.04 697.00,494.73 698.00,495.04M 698.00,495.04 C 699.00,495.34 698.00,495.04 699.00,495.34M 699.00,495.34 C 700.00,495.62 699.00,495.34 700.00,495.62M 700.00,495.62 C 701.00,495.88 700.00,495.62 701.00,495.88M 701.00,495.88 C 702.00,496.14 701.00,495.88 702.00,496.14M 702.00,496.14 C 703.00,496.38 702.00,496.14 703.00,496.38M 703.00,496.38 C 704.00,496.60 703.00,496.38 704.00,496.60M 704.00,496.60 C 705.00,496.82 704.00,496.60 705.00,496.82M 705.00,496.82 C 706.00,497.02 705.00,496.82 706.00,497.02M 706.00,497.02 C 707.00,497.21 706.00,497.02 707.00,497.21M 707.00,497.21 C 708.00,497.39 707.00,497.21 708.00,497.39M 708.00,497.39 C 709.00,497.57 708.00,497.39 709.00,497.57M 709.00,497.57 C 710.00,497.73 709.00,497.57 710.00,497.73M 710.00,497.73 C 711.00,497.88 710.00,497.73 711.00,497.88M 711.00,497.88 C 712.00,498.02 711.00,497.88 712.00,498.02M 712.00,498.02 C 713.00,498.16 712.00,498.02 713.00,498.16M 713.00,498.16 C 714.00,498.28 713.00,498.16 714.00,498.28M 714.00,498.28 C 715.00,498.40 714.00,498.28 715.00,498.40M 715.00,498.40 C 716.00,498.51 715.00,498.40 716.00,498.51M 716.00,498.51 C 717.00,498.62 716.00,498.51 717.00,498.62M 717.00,498.62 C 718.00,498.71 717.00,498.62 718.00,498.71M 718.00,498.71 C 719.00,498.81 718.00,498.71 719.00,498.81M 719.00,498.81 C 720.00,498.89 719.00,498.81 720.00,498.89M 720.00,498.89 C 721.00,498.97 720.00,498.89 721.00,498.97M 721.00,498.97 C 722.00,499.05 721.00,498.97 722.00,499.05M 722.00,499.05 C 723.00,499.12 722.00,499.05 723.00,499.12M 723.00,499.12 C 724.00,499.18 723.00,499.12 724.00,499.18M 724.00,499.18 C 725.00,499.24 724.00,499.18 725.00,499.24M 725.00,499.24 C 726.00,499.30 725.00,499.24 726.00,499.30M 726.00,499.30 C 727.00,499.35 726.00,499.30 727.00,499.35M 727.00,499.35 C 728.00,499.40 727.00,499.35 728.00,499.40M 728.00,499.40 C 729.00,499.45 728.00,499.40 729.00,499.45M 729.00,499.45 C 730.00,499.49 729.00,499.45 730.00,499.49M 730.00,499.49 C 731.00,499.53 730.00,499.49 731.00,499.53M 731.00,499.53 C 732.00,499.57 731.00,499.53 732.00,499.57M 732.00,499.57 C 733.00,499.60 732.00,499.57 733.00,499.60M 733.00,499.60 C 734.00,499.64 733.00,499.60 734.00,499.64M 734.00,499.64 C 735.00,499.66 734.00,499.64 735.00,499.66M 735.00,499.66 C 736.00,499.69 735.00,499.66 736.00,499.69M 736.00,499.69 C 737.00,499.72 736.00,499.69 737.00,499.72M 737.00,499.72 C 738.00,499.74 737.00,499.72 738.00,499.74M 738.00,499.74 C 739.00,499.76 738.00,499.74 739.00,499.76M 739.00,499.76 C 740.00,499.78 739.00,499.76 740.00,499.78M 740.00,499.78 C 741.00,499.80 740.00,499.78 741.00,499.80M 741.00,499.80 C 742.00,499.82 741.00,499.80 742.00,499.82M 742.00,499.82 C 743.00,499.83 742.00,499.82 743.00,499.83M 743.00,499.83 C 744.00,499.85 743.00,499.83 744.00,499.85M 744.00,499.85 C 745.00,499.86 744.00,499.85 745.00,499.86M 745.00,499.86 C 746.00,499.87 745.00,499.86 746.00,499.87M 746.00,499.87 C 747.00,499.88 746.00,499.87 747.00,499.88M 747.00,499.88 C 748.00,499.89 747.00,499.88 748.00,499.89M 748.00,499.89 C 749.00,499.90 748.00,499.89 749.00,499.90M 749.00,499.90 C 750.00,499.91 749.00,499.90 750.00,499.91M 750.00,499.91 C 751.00,499.92 750.00,499.91 751.00,499.92M 751.00,499.92 C 752.00,499.93 751.00,499.92 752.00,499.93M 752.00,499.93 C 753.00,499.93 752.00,499.93 753.00,499.93M 753.00,499.93 C 754.00,499.94 753.00,499.93 754.00,499.94M 754.00,499.94 C 755.00,499.95 754.00,499.94 755.00,499.95M 755.00,499.95 C 756.00,499.95 755.00,499.95 756.00,499.95M 756.00,499.95 C 757.00,499.95 756.00,499.95 757.00,499.95M 757.00,499.95 C 758.00,499.96 757.00,499.95 758.00,499.96M 758.00,499.96 C 759.00,499.96 758.00,499.96 759.00,499.96M 759.00,499.96 C 760.00,499.97 759.00,499.96 760.00,499.97M 760.00,499.97 C 761.00,499.97 760.00,499.97 761.00,499.97M 761.00,499.97 C 762.00,499.97 761.00,499.97 762.00,499.97M 762.00,499.97 C 763.00,499.98 762.00,499.97 763.00,499.98M 763.00,499.98 C 764.00,499.98 763.00,499.98 764.00,499.98M 764.00,499.98 C 765.00,499.98 764.00,499.98 765.00,499.98M 765.00,499.98 C 766.00,499.98 765.00,499.98 766.00,499.98M 766.00,499.98 C 767.00,499.98 766.00,499.98 767.00,499.98M 767.00,499.98 C 768.00,499.99 767.00,499.98 768.00,499.99M 768.00,499.99 C 769.00,499.99 768.00,499.99 769.00,499.99M 769.00,499.99 C 770.00,499.99 769.00,499.99 770.00,499.99M 770.00,499.99 C 771.00,499.99 770.00,499.99 771.00,499.99M 771.00,499.99 C 772.00,499.99 771.00,499.99 772.00,499.99M 772.00,499.99 C 773.00,499.99 772.00,499.99 773.00,499.99M 773.00,499.99 C 774.00,499.99 773.00,499.99 774.00,499.99M 774.00,499.99 C 808.33,500.02 840.00,500.00 876.00,500.00M 876.00,500.00 C 984.00,500.00 1089.33,500.00 1199.00,500.00" stroke="black" fill="none" stroke-width="2"/>
</svg>
